Hack-Regular.ufo
<glyph name="zero" format="1">
  <advance width="1233"/>
  <unicode hex="0030"/>
  <outline>
    <contour>
      <point x="616" y="-29" type="curve" smooth="yes" name="dv01"/>
      <point x="456" y="-29"/>
      <point x="336" y="36" name="sh01"/>
      <point x="255" y="167" type="curve" smooth="yes"/>
      <point x="174" y="298" name="at01"/>
      <point x="133" y="491"/>
      <point x="133" y="745" type="curve" smooth="yes" name="sh04"/>
      <point x="133" y="1000"/>
      <point x="174" y="1193"/>
      <point x="255" y="1324" type="curve" smooth="yes" name="dv02"/>
      <point x="336" y="1455"/>
      <point x="456" y="1520" name="sh03"/>
      <point x="616" y="1520" type="curve" smooth="yes"/>
      <point x="773" y="1520" name="sv01"/>
      <point x="895" y="1457"/>
      <point x="978" y="1324" type="curve" smooth="yes" name="sh05"/>
      <point x="1058" y="1196"/>
      <point x="1100" y="1006"/>
      <point x="1100" y="745" type="curve" smooth="yes"/>
      <point x="1100" y="484"/>
      <point x="1058" y="295" name="sh02"/>
      <point x="978" y="167" type="curve" smooth="yes"/>
      <point x="896" y="36"/>
      <point x="775" y="-29"/>
    </contour>
    <contour>
      <point x="616" y="131" type="curve" smooth="yes"/>
      <point x="713" y="131"/>
      <point x="783" y="184" name="ah01"/>
      <point x="828" y="283" type="curve" smooth="yes" name="sh07"/>
      <point x="874" y="384"/>
      <point x="897" y="538"/>
      <point x="897" y="745" type="curve" smooth="yes"/>
      <point x="897" y="953"/>
      <point x="874" y="1107"/>
      <point x="828" y="1207" type="curve" smooth="yes"/>
      <point x="783" y="1307"/>
      <point x="715" y="1360"/>
      <point x="616" y="1360" type="curve" smooth="yes"/>
      <point x="522" y="1360"/>
      <point x="452" y="1309"/>
      <point x="406" y="1208" type="curve"/>
      <point x="359" y="1108"/>
      <point x="336" y="960"/>
      <point x="336" y="745" type="curve" smooth="yes"/>
      <point x="336" y="537"/>
      <point x="359" y="383"/>
      <point x="406" y="283" type="curve" smooth="yes"/>
      <point x="454" y="179"/>
      <point x="524" y="131"/>
    </contour>
    <contour>
      <point x="618" y="396" type="curve" smooth="yes"/>
      <point x="576" y="396"/>
      <point x="555" y="462"/>
      <point x="539" y="540" type="curve" smooth="yes"/>
      <point x="526" y="602"/>
      <point x="516" y="705"/>
      <point x="516" y="750" type="curve" smooth="yes"/>
      <point x="516" y="782"/>
      <point x="520" y="879"/>
      <point x="536" y="953" type="curve"/>
      <point x="555" y="1048"/>
      <point x="581" y="1096"/>
      <point x="614" y="1096" type="curve" smooth="yes"/>
      <point x="651" y="1096"/>
      <point x="676" y="1043"/>
      <point x="695" y="950" type="curve" smooth="yes"/>
      <point x="708" y="884"/>
      <point x="717" y="788"/>
      <point x="717" y="742" type="curve" smooth="yes"/>
      <point x="717" y="715"/>
      <point x="713" y="624"/>
      <point x="700" y="542" type="curve"/>
      <point x="683" y="443"/>
      <point x="653" y="396"/>
    </contour>
  </outline>
</glyph>
<glyph name="one" format="1">
  <advance width="1233"/>
  <unicode hex="0031"/>
  <outline>
    <contour>
      <point x="270" y="170" type="line" name="sv01"/>
      <point x="584" y="170" type="line" name="dh01"/>
      <point x="584" y="1311" type="line"/>
      <point x="246" y="1235" type="line"/>
      <point x="246" y="1419" type="line"/>
      <point x="582" y="1493" type="line" name="at01"/>
      <point x="784" y="1493" type="line"/>
      <point x="784" y="170" type="line" name="dh02"/>
      <point x="1094" y="170" type="line" name="sv02"/>
      <point x="1094" y="0" type="line" name="ab01"/>
      <point x="270" y="0" type="line"/>
    </contour>
  </outline>
</glyph>
<glyph name="six" format="1">
  <advance width="1233"/>
  <unicode hex="0036"/>
  <outline>
    <contour>
      <point x="633" y="-29" type="curve" smooth="yes" name="dv01"/>
      <point x="450" y="-29"/>
      <point x="334" y="38" name="dh01"/>
      <point x="255" y="159" type="curve" smooth="yes"/>
      <point x="171" y="290" name="at01"/>
      <point x="133" y="480"/>
      <point x="133" y="724" type="curve" smooth="yes"/>
      <point x="133" y="999" name="ih01"/>
      <point x="182" y="1191"/>
      <point x="278" y="1322" type="curve" smooth="yes" name="sv01"/>
      <point x="374" y="1453"/>
      <point x="515" y="1520" name="dh02"/>
      <point x="698" y="1520" type="curve" smooth="yes"/>
      <point x="753" y="1520" name="dv04"/>
      <point x="805" y="1514"/>
      <point x="848" y="1505" type="curve" smooth="yes" name="dh04"/>
      <point x="901" y="1494"/>
      <point x="948" y="1477"/>
      <point x="991" y="1460" type="curve" name="dv02"/>
      <point x="991" y="1274" type="line"/>
      <point x="951" y="1298" name="dh03"/>
      <point x="902" y="1319"/>
      <point x="857" y="1331" type="curve" smooth="yes" name="dv03"/>
      <point x="810" y="1344"/>
      <point x="758" y="1350" name="sh01"/>
      <point x="711" y="1350" type="curve" smooth="yes"/>
      <point x="581" y="1350"/>
      <point x="483" y="1302"/>
      <point x="418" y="1206" type="curve" smooth="yes" name="sh02"/>
      <point x="352" y="1109"/>
      <point x="319" y="967"/>
      <point x="319" y="780" type="curve"/>
      <point x="351" y="847"/>
      <point x="395" y="898"/>
      <point x="452" y="934" type="curve" smooth="yes"/>
      <point x="512" y="971"/>
      <point x="575" y="987"/>
      <point x="655" y="987" type="curve" smooth="yes"/>
      <point x="788" y="987"/>
      <point x="902" y="943"/>
      <point x="982" y="855" type="curve" smooth="yes"/>
      <point x="1062" y="767"/>
      <point x="1100" y="638"/>
      <point x="1100" y="481" type="curve" smooth="yes" name="hr01"/>
      <point x="1100" y="318"/>
      <point x="1059" y="192"/>
      <point x="979" y="104" type="curve" smooth="yes"/>
      <point x="899" y="16"/>
      <point x="784" y="-29"/>
    </contour>
    <contour>
      <point x="633" y="129" type="curve" smooth="yes"/>
      <point x="720" y="129"/>
      <point x="788" y="158"/>
      <point x="833" y="218" type="curve" smooth="yes"/>
      <point x="878" y="277"/>
      <point x="901" y="364"/>
      <point x="901" y="479" type="curve" smooth="yes"/>
      <point x="901" y="594"/>
      <point x="878" y="682"/>
      <point x="833" y="741" type="curve" smooth="yes"/>
      <point x="786" y="802"/>
      <point x="717" y="829"/>
      <point x="634" y="829" type="curve" smooth="yes"/>
      <point x="541" y="829"/>
      <point x="473" y="794"/>
      <point x="428" y="737" type="curve" smooth="yes"/>
      <point x="381" y="678"/>
      <point x="354" y="592"/>
      <point x="354" y="479" type="curve" smooth="yes"/>
      <point x="354" y="366"/>
      <point x="381" y="280"/>
      <point x="428" y="221" type="curve" smooth="yes"/>
      <point x="473" y="164"/>
      <point x="541" y="129"/>
    </contour>
  </outline>
</glyph>
<glyph name="nine" format="1">
  <advance width="1233"/>
  <unicode hex="0039"/>
  <outline>
    <contour>
      <point x="528" y="-29" type="curve" smooth="yes" name="dv01"/>
      <point x="479" y="-29"/>
      <point x="426" y="-25"/>
      <point x="379" y="-14" type="curve" smooth="yes" name="ih01"/>
      <point x="336" y="-5"/>
      <point x="283" y="12" name="dv02"/>
      <point x="236" y="31" type="curve"/>
      <point x="236" y="217" type="line" name="sh01"/>
      <point x="279" y="192"/>
      <point x="326" y="173" name="dv03"/>
      <point x="370" y="161" type="curve" smooth="yes"/>
      <point x="418" y="148" name="dh01"/>
      <point x="467" y="141"/>
      <point x="517" y="141" type="curve" smooth="yes" name="at01"/>
      <point x="646" y="141"/>
      <point x="743" y="189" name="dh04"/>
      <point x="809" y="286" type="curve" smooth="yes"/>
      <point x="874" y="383"/>
      <point x="907" y="524" name="dv04"/>
      <point x="907" y="711" type="curve"/>
      <point x="876" y="643" name="dh03"/>
      <point x="827" y="590"/>
      <point x="775" y="557" type="curve" smooth="yes" name="sv01"/>
      <point x="720" y="522"/>
      <point x="651" y="504" name="dh02"/>
      <point x="569" y="504" type="curve" smooth="yes"/>
      <point x="436" y="504"/>
      <point x="325" y="549"/>
      <point x="246" y="637" type="curve" smooth="yes" name="sh02"/>
      <point x="167" y="726"/>
      <point x="127" y="851"/>
      <point x="127" y="1010" type="curve" smooth="yes"/>
      <point x="127" y="1167"/>
      <point x="165" y="1298"/>
      <point x="249" y="1389" type="curve" smooth="yes"/>
      <point x="329" y="1477"/>
      <point x="446" y="1520"/>
      <point x="594" y="1520" type="curve" smooth="yes"/>
      <point x="777" y="1520"/>
      <point x="893" y="1453"/>
      <point x="972" y="1332" type="curve"/>
      <point x="1057" y="1199"/>
      <point x="1094" y="1006"/>
      <point x="1094" y="766" type="curve" smooth="yes"/>
      <point x="1094" y="502"/>
      <point x="1050" y="304"/>
      <point x="950" y="169" type="curve" smooth="yes"/>
      <point x="851" y="36"/>
      <point x="707" y="-29"/>
    </contour>
    <contour>
      <point x="593" y="662" type="curve" smooth="yes"/>
      <point x="686" y="662"/>
      <point x="754" y="697"/>
      <point x="799" y="754" type="curve" smooth="yes" name="hr01"/>
      <point x="846" y="813"/>
      <point x="872" y="899"/>
      <point x="872" y="1012" type="curve" smooth="yes"/>
      <point x="872" y="1125"/>
      <point x="846" y="1211"/>
      <point x="799" y="1270" type="curve" smooth="yes"/>
      <point x="754" y="1327"/>
      <point x="686" y="1362"/>
      <point x="593" y="1362" type="curve" smooth="yes"/>
      <point x="510" y="1362"/>
      <point x="441" y="1335"/>
      <point x="394" y="1274" type="curve" smooth="yes"/>
      <point x="349" y="1215"/>
      <point x="326" y="1127"/>
      <point x="326" y="1012" type="curve" smooth="yes"/>
      <point x="326" y="897"/>
      <point x="349" y="809"/>
      <point x="394" y="750" type="curve" smooth="yes"/>
      <point x="439" y="690"/>
      <point x="508" y="662"/>
    </contour>
  </outline>
</glyph>
<glyph name="D" format="1">
  <advance width="1233"/>
  <unicode hex="0044"/>
  <outline>
    <contour>
      <point x="137" y="1493" type="line" name="sh01"/>
      <point x="440" y="1493" type="line" smooth="yes"/>
      <point x="668" y="1493"/>
      <point x="836" y="1432" name="sh02"/>
      <point x="944" y="1311" type="curve" smooth="yes"/>
      <point x="1052" y="1190" name="ab01"/>
      <point x="1106" y="1001"/>
      <point x="1106" y="745" type="curve" smooth="yes" name="sv01"/>
      <point x="1106" y="490"/>
      <point x="1052" y="303" name="ah02"/>
      <point x="944" y="182" type="curve" smooth="yes"/>
      <point x="836" y="61" name="sv02"/>
      <point x="668" y="0" name="sh03"/>
      <point x="440" y="0" type="curve" smooth="yes"/>
      <point x="137" y="0" type="line" name="ah01"/>
    </contour>
    <contour>
      <point x="436" y="166" type="line" smooth="yes" name="sh04"/>
      <point x="606" y="166"/>
      <point x="725" y="208"/>
      <point x="792" y="292" type="curve" smooth="yes"/>
      <point x="860" y="376"/>
      <point x="893" y="523"/>
      <point x="893" y="747" type="curve" smooth="yes"/>
      <point x="893" y="967"/>
      <point x="861" y="1118"/>
      <point x="793" y="1202" type="curve" smooth="yes"/>
      <point x="725" y="1287"/>
      <point x="603" y="1327"/>
      <point x="436" y="1327" type="curve" smooth="yes"/>
      <point x="340" y="1327" type="line"/>
      <point x="340" y="166" type="line"/>
    </contour>
  </outline>
</glyph>
<glyph name="backslash" format="1">
  <advance width="1233"/>
  <unicode hex="005C"/>
  <outline>
    <contour>
      <point x="102" y="1493" type="line" name="at01"/>
      <point x="293" y="1493" type="line"/>
      <point x="1079" y="-190" type="line" name="av01"/>
      <point x="889" y="-190" type="line"/>
    </contour>
  </outline>
</glyph>
<glyph name="b" format="1">
  <advance width="1233"/>
  <unicode hex="0062"/>
  <outline>
    <contour>
      <point x="676" y="-29" type="curve" smooth="yes" name="dv01"/>
      <point x="608" y="-29"/>
      <point x="555" y="-16" name="sh02"/>
      <point x="500" y="15" type="curve" smooth="yes" name="ab01"/>
      <point x="449" y="44" name="sh01"/>
      <point x="408" y="86" name="at01"/>
      <point x="377" y="141" type="curve" name="sh03"/>
      <point x="359" y="0" type="line" name="ih01"/>
      <point x="193" y="0" type="line"/>
      <point x="193" y="1556" type="line" name="dv04"/>
      <point x="377" y="1556" type="line"/>
      <point x="377" y="977" type="line" name="sh04"/>
      <point x="406" y="1032"/>
      <point x="446" y="1074"/>
      <point x="499" y="1103" type="curve" smooth="yes" name="dv02"/>
      <point x="550" y="1132"/>
      <point x="611" y="1147" name="ah02"/>
      <point x="680" y="1147" type="curve" smooth="yes"/>
      <point x="808" y="1147" name="dv03"/>
      <point x="917" y="1097"/>
      <point x="996" y="993" type="curve" name="sh05"/>
      <point x="1073" y="889"/>
      <point x="1112" y="742"/>
      <point x="1112" y="561" type="curve" smooth="yes" name="ah01"/>
      <point x="1112" y="378" name="sh06"/>
      <point x="1073" y="234"/>
      <point x="996" y="129" type="curve" smooth="yes"/>
      <point x="920" y="25"/>
      <point x="813" y="-29"/>
    </contour>
    <contour>
      <point x="650" y="127" type="curve" smooth="yes"/>
      <point x="739" y="127"/>
      <point x="805" y="163"/>
      <point x="850" y="236" type="curve" smooth="yes"/>
      <point x="895" y="309"/>
      <point x="918" y="417"/>
      <point x="918" y="559" type="curve" smooth="yes"/>
      <point x="918" y="701"/>
      <point x="895" y="809"/>
      <point x="850" y="882" type="curve" smooth="yes"/>
      <point x="805" y="955"/>
      <point x="738" y="991"/>
      <point x="649" y="991" type="curve" smooth="yes" name="hr01"/>
      <point x="560" y="991"/>
      <point x="492" y="955"/>
      <point x="446" y="882" type="curve" smooth="yes"/>
      <point x="400" y="809"/>
      <point x="377" y="701"/>
      <point x="377" y="559" type="curve" smooth="yes"/>
      <point x="377" y="417"/>
      <point x="400" y="310"/>
      <point x="446" y="237" type="curve" smooth="yes"/>
      <point x="492" y="164"/>
      <point x="560" y="127"/>
    </contour>
  </outline>
</glyph>
<glyph name="g" format="1">
  <advance width="1233"/>
  <unicode hex="0067"/>
  <outline>
    <contour>
      <point x="601" y="-440" type="curve" smooth="yes" name="dv01"/>
      <point x="549" y="-440"/>
      <point x="498" y="-435"/>
      <point x="442" y="-426" type="curve" smooth="yes" name="ih01"/>
      <point x="387" y="-417"/>
      <point x="335" y="-404" name="dv02"/>
      <point x="276" y="-385" type="curve"/>
      <point x="276" y="-203" type="line" name="ah02"/>
      <point x="341" y="-234"/>
      <point x="403" y="-256"/>
      <point x="454" y="-271" type="curve" smooth="yes" name="ab01"/>
      <point x="506" y="-286"/>
      <point x="556" y="-293" name="sh01"/>
      <point x="605" y="-293" type="curve" smooth="yes"/>
      <point x="704" y="-293" name="dv04"/>
      <point x="771" y="-267"/>
      <point x="818" y="-211" type="curve" smooth="yes" name="sh03"/>
      <point x="863" y="-158"/>
      <point x="886" y="-72"/>
      <point x="886" y="45" type="curve" smooth="yes" name="sh04"/>
      <point x="886" y="178" type="line"/>
      <point x="857" y="116"/>
      <point x="817" y="69" name="sv01"/>
      <point x="766" y="38" type="curve" smooth="yes"/>
      <point x="715" y="7" name="sh05"/>
      <point x="654" y="-8"/>
      <point x="582" y="-8" type="curve" smooth="yes" name="dv03"/>
      <point x="451" y="-8"/>
      <point x="346" y="44" name="sh02"/>
      <point x="268" y="149" type="curve" smooth="yes"/>
      <point x="190" y="254"/>
      <point x="151" y="394" name="ah01"/>
      <point x="151" y="569" type="curve" smooth="yes" name="sh06"/>
      <point x="151" y="744"/>
      <point x="190" y="885"/>
      <point x="268" y="990" type="curve" smooth="yes"/>
      <point x="347" y="1095"/>
      <point x="448" y="1147"/>
      <point x="583" y="1147" type="curve" smooth="yes"/>
      <point x="652" y="1147"/>
      <point x="713" y="1133"/>
      <point x="764" y="1104" type="curve" smooth="yes"/>
      <point x="815" y="1075"/>
      <point x="855" y="1030"/>
      <point x="886" y="971" type="curve"/>
      <point x="904" y="1116" type="line"/>
      <point x="1070" y="1116" type="line"/>
      <point x="1070" y="72" type="line" smooth="yes"/>
      <point x="1070" y="-95"/>
      <point x="1030" y="-223"/>
      <point x="951" y="-310" type="curve" smooth="yes"/>
      <point x="872" y="-397"/>
      <point x="756" y="-440"/>
    </contour>
    <contour>
      <point x="622" y="145" type="curve" smooth="yes"/>
      <point x="709" y="145"/>
      <point x="774" y="181"/>
      <point x="819" y="254" type="curve" smooth="yes"/>
      <point x="864" y="327"/>
      <point x="886" y="432"/>
      <point x="886" y="569" type="curve" smooth="yes"/>
      <point x="886" y="708"/>
      <point x="864" y="813"/>
      <point x="819" y="884" type="curve" smooth="yes"/>
      <point x="772" y="960"/>
      <point x="704" y="991"/>
      <point x="621" y="991" type="curve" smooth="yes"/>
      <point x="532" y="991"/>
      <point x="463" y="955"/>
      <point x="416" y="884" type="curve" smooth="yes"/>
      <point x="369" y="813"/>
      <point x="345" y="707"/>
      <point x="345" y="568" type="curve" smooth="yes"/>
      <point x="345" y="431"/>
      <point x="369" y="327"/>
      <point x="417" y="254" type="curve" smooth="yes"/>
      <point x="465" y="181"/>
      <point x="533" y="145"/>
    </contour>
  </outline>
</glyph>
<glyph name="n" format="1">
  <advance width="1233"/>
  <unicode hex="006E"/>
  <outline>
    <contour>
      <point x="195" y="1120" type="line" name="sh01"/>
      <point x="361" y="1120" type="line"/>
      <point x="379" y="952" type="line" name="sh02"/>
      <point x="412" y="1017"/>
      <point x="457" y="1065" name="dv02"/>
      <point x="512" y="1098" type="curve" smooth="yes"/>
      <point x="567" y="1131"/>
      <point x="633" y="1147" name="sh03"/>
      <point x="710" y="1147" type="curve" smooth="yes" name="ah02"/>
      <point x="830" y="1147"/>
      <point x="912" y="1107"/>
      <point x="967" y="1035" type="curve" smooth="yes" name="dv01"/>
      <point x="1023" y="960"/>
      <point x="1051" y="846" name="sh04"/>
      <point x="1051" y="694" type="curve" smooth="yes" name="ab01"/>
      <point x="1051" y="0" type="line"/>
      <point x="866" y="0" type="line" name="ah01"/>
      <point x="866" y="694" type="line" smooth="yes" name="sh05"/>
      <point x="866" y="795"/>
      <point x="848" y="869"/>
      <point x="813" y="916" type="curve" smooth="yes"/>
      <point x="778" y="963"/>
      <point x="722" y="987"/>
      <point x="646" y="987" type="curve" smooth="yes"/>
      <point x="558" y="987"/>
      <point x="494" y="956"/>
      <point x="449" y="896" type="curve" smooth="yes"/>
      <point x="402" y="835"/>
      <point x="379" y="748"/>
      <point x="379" y="633" type="curve" smooth="yes"/>
      <point x="379" y="0" type="line" name="hr01"/>
      <point x="195" y="0" type="line"/>
    </contour>
  </outline>
</glyph>
<glyph name="cent" format="1">
  <advance width="1233"/>
  <unicode hex="00A2"/>
  <outline>
    <contour>
      <point x="698" y="-27" type="line" name="dh03"/>
      <point x="549" y="-12"/>
      <point x="432" y="44" name="dh01"/>
      <point x="344" y="152" type="curve" smooth="yes"/>
      <point x="260" y="255" name="sh01"/>
      <point x="210" y="398" name="av01"/>
      <point x="210" y="558" type="curve" smooth="yes" name="sh02"/>
      <point x="210" y="721"/>
      <point x="262" y="866"/>
      <point x="345" y="967" type="curve" smooth="yes" name="sh04"/>
      <point x="426" y="1067" name="iv01"/>
      <point x="541" y="1130"/>
      <point x="698" y="1145" type="curve" name="sh05"/>
      <point x="698" y="1432" type="line"/>
      <point x="801" y="1432" type="line"/>
      <point x="801" y="1145" type="line" name="iv02"/>
      <point x="840" y="1142" name="sh03"/>
      <point x="884" y="1136"/>
      <point x="923" y="1125" type="curve" smooth="yes" name="dh04"/>
      <point x="962" y="1114" name="av02"/>
      <point x="1013" y="1098"/>
      <point x="1061" y="1077" type="curve" name="sh06"/>
      <point x="1061" y="905" type="line"/>
      <point x="1021" y="929" name="dh02"/>
      <point x="972" y="952"/>
      <point x="929" y="967" type="curve" smooth="yes"/>
      <point x="882" y="983"/>
      <point x="842" y="990"/>
      <point x="801" y="993" type="curve" name="hr02"/>
      <point x="801" y="123" type="line"/>
      <point x="844" y="126"/>
      <point x="886" y="136"/>
      <point x="930" y="151" type="curve" smooth="yes"/>
      <point x="971" y="166"/>
      <point x="1018" y="186"/>
      <point x="1061" y="213" type="curve" name="hr03"/>
      <point x="1061" y="41" type="line"/>
      <point x="1000" y="14"/>
      <point x="964" y="4"/>
      <point x="923" y="-7" type="curve" smooth="yes"/>
      <point x="880" y="-18"/>
      <point x="839" y="-25"/>
      <point x="801" y="-27" type="curve" name="hr04"/>
      <point x="801" y="-313" type="line"/>
      <point x="698" y="-313" type="line"/>
    </contour>
    <contour>
      <point x="698" y="991" type="line"/>
      <point x="609" y="983"/>
      <point x="539" y="940"/>
      <point x="486" y="861" type="curve" smooth="yes"/>
      <point x="433" y="782"/>
      <point x="406" y="681"/>
      <point x="406" y="559" type="curve" smooth="yes"/>
      <point x="406" y="437"/>
      <point x="433" y="337"/>
      <point x="486" y="258" type="curve" smooth="yes"/>
      <point x="541" y="178"/>
      <point x="610" y="136"/>
      <point x="698" y="127" type="curve"/>
    </contour>
  </outline>
</glyph>
<glyph name="logicalnot" format="1">
  <advance width="1233"/>
  <unicode hex="00AC"/>
  <outline>
    <contour>
      <point x="977" y="690" type="line" name="dh01"/>
      <point x="88" y="690" type="line"/>
      <point x="88" y="862" type="line"/>
      <point x="1145" y="862" type="line" name="dh02"/>
      <point x="1145" y="371" type="line" name="dv01"/>
      <point x="977" y="371" type="line"/>
    </contour>
  </outline>
</glyph>
<glyph name="threesuperior" format="1">
  <advance width="1233"/>
  <unicode hex="00B3"/>
  <outline>
    <contour>
      <point x="562" y="1109" type="curve" smooth="yes" name="dv01"/>
      <point x="515" y="1109"/>
      <point x="481" y="1113"/>
      <point x="442" y="1120" type="curve" smooth="yes"/>
      <point x="399" y="1128"/>
      <point x="366" y="1137" name="dv02"/>
      <point x="326" y="1150" type="curve"/>
      <point x="326" y="1271" type="line"/>
      <point x="373" y="1252"/>
      <point x="413" y="1240" name="dv05"/>
      <point x="452" y="1231" type="curve" smooth="yes"/>
      <point x="487" y="1222"/>
      <point x="522" y="1218" name="dv06"/>
      <point x="556" y="1218" type="curve" smooth="yes"/>
      <point x="619" y="1218" name="dh01"/>
      <point x="674" y="1232"/>
      <point x="714" y="1259" type="curve" smooth="yes" name="dv03"/>
      <point x="749" y="1283"/>
      <point x="772" y="1320"/>
      <point x="772" y="1371" type="curve" smooth="yes"/>
      <point x="772" y="1418"/>
      <point x="752" y="1455" name="dv04"/>
      <point x="717" y="1479" type="curve" smooth="yes"/>
      <point x="680" y="1504"/>
      <point x="625" y="1517"/>
      <point x="553" y="1517" type="curve" smooth="yes" name="iv01"/>
      <point x="487" y="1517" type="line"/>
      <point x="487" y="1625" type="line" name="dh02"/>
      <point x="561" y="1625" type="line" smooth="yes"/>
      <point x="622" y="1625"/>
      <point x="670" y="1636"/>
      <point x="703" y="1657" type="curve" smooth="yes"/>
      <point x="736" y="1678"/>
      <point x="752" y="1708"/>
      <point x="752" y="1747" type="curve" smooth="yes"/>
      <point x="752" y="1786"/>
      <point x="736" y="1815"/>
      <point x="704" y="1836" type="curve" smooth="yes"/>
      <point x="672" y="1857"/>
      <point x="625" y="1867"/>
      <point x="572" y="1867" type="curve" smooth="yes"/>
      <point x="537" y="1867"/>
      <point x="506" y="1863"/>
      <point x="469" y="1855" type="curve" smooth="yes"/>
      <point x="432" y="1847"/>
      <point x="394" y="1835"/>
      <point x="354" y="1820" type="curve"/>
      <point x="354" y="1941" type="line"/>
      <point x="401" y="1952"/>
      <point x="443" y="1960"/>
      <point x="482" y="1967" type="curve" smooth="yes"/>
      <point x="521" y="1973"/>
      <point x="557" y="1976"/>
      <point x="592" y="1976" type="curve" smooth="yes"/>
      <point x="687" y="1976"/>
      <point x="762" y="1956"/>
      <point x="819" y="1917" type="curve" smooth="yes"/>
      <point x="875" y="1878"/>
      <point x="903" y="1825"/>
      <point x="903" y="1760" type="curve" smooth="yes"/>
      <point x="903" y="1713"/>
      <point x="888" y="1673"/>
      <point x="859" y="1642" type="curve" smooth="yes"/>
      <point x="830" y="1611"/>
      <point x="788" y="1589"/>
      <point x="731" y="1576" type="curve"/>
      <point x="794" y="1562"/>
      <point x="842" y="1537"/>
      <point x="875" y="1501" type="curve" smooth="yes"/>
      <point x="908" y="1466"/>
      <point x="924" y="1420"/>
      <point x="924" y="1365" type="curve" smooth="yes"/>
      <point x="924" y="1284"/>
      <point x="892" y="1221"/>
      <point x="829" y="1176" type="curve" smooth="yes"/>
      <point x="765" y="1131"/>
      <point x="673" y="1109"/>
    </contour>
  </outline>
</glyph>
<glyph name="onehalf" format="1">
  <advance width="1233"/>
  <unicode hex="00BD"/>
  <outline>
    <contour>
      <point x="104" y="934" type="line" name="sv01"/>
      <point x="309" y="934" type="line" name="sh01"/>
      <point x="309" y="1545" type="line"/>
      <point x="86" y="1504" type="line"/>
      <point x="86" y="1620" type="line" name="dh01"/>
      <point x="315" y="1659" type="line" name="av01"/>
      <point x="453" y="1659" type="line" name="dh02"/>
      <point x="453" y="934" type="line"/>
      <point x="657" y="934" type="line" name="dv05"/>
      <point x="657" y="824" type="line" name="dv04"/>
      <point x="104" y="824" type="line"/>
    </contour>
    <contour>
      <point x="27" y="612" type="line"/>
      <point x="1087" y="874" type="line"/>
      <point x="1114" y="766" type="line"/>
      <point x="51" y="504" type="line"/>
    </contour>
    <contour>
      <point x="523" y="-160" type="line"/>
      <point x="754" y="66" type="line" smooth="yes"/>
      <point x="837" y="146"/>
      <point x="870" y="184" name="dh03"/>
      <point x="896" y="224" type="curve" smooth="yes"/>
      <point x="923" y="265" name="dv02"/>
      <point x="936" y="302"/>
      <point x="936" y="337" type="curve" smooth="yes" name="ih01"/>
      <point x="936" y="377"/>
      <point x="919" y="410"/>
      <point x="886" y="435" type="curve" smooth="yes" name="dv03"/>
      <point x="853" y="460"/>
      <point x="809" y="473" name="sh02"/>
      <point x="756" y="473" type="curve" smooth="yes"/>
      <point x="721" y="473"/>
      <point x="686" y="467"/>
      <point x="649" y="455" type="curve" smooth="yes" name="dh04"/>
      <point x="611" y="443" name="dv01"/>
      <point x="571" y="425"/>
      <point x="529" y="401" type="curve"/>
      <point x="529" y="526" type="line" name="sh03"/>
      <point x="574" y="545"/>
      <point x="616" y="559"/>
      <point x="655" y="568" type="curve" smooth="yes"/>
      <point x="695" y="577"/>
      <point x="734" y="582"/>
      <point x="777" y="582" type="curve" smooth="yes"/>
      <point x="870" y="582"/>
      <point x="945" y="560"/>
      <point x="1002" y="516" type="curve" smooth="yes"/>
      <point x="1061" y="471"/>
      <point x="1088" y="411"/>
      <point x="1088" y="344" type="curve" smooth="yes"/>
      <point x="1088" y="297"/>
      <point x="1074" y="263"/>
      <point x="1051" y="227" type="curve" smooth="yes"/>
      <point x="1020" y="180"/>
      <point x="971" y="124"/>
      <point x="895" y="49" type="curve" smooth="yes"/>
      <point x="684" y="-156" type="line"/>
      <point x="1094" y="-156" type="line" name="hr01"/>
      <point x="1094" y="-270" type="line"/>
      <point x="523" y="-270" type="line"/>
    </contour>
  </outline>
</glyph>
<glyph name="Ocircumflex" format="1">
  <advance width="1233"/>
  <unicode hex="00D4"/>
  <outline>
    <contour>
      <point x="540" y="1852" type="line" name="sv02"/>
      <point x="729" y="1852" type="line"/>
      <point x="940" y="1586" type="line" name="ih01"/>
      <point x="800" y="1586" type="line"/>
      <point x="634" y="1764" type="line"/>
      <point x="469" y="1586" type="line"/>
      <point x="329" y="1586" type="line" name="sh04"/>
    </contour>
    <contour>
      <point x="616" y="-29" type="curve" smooth="yes" name="dv01"/>
      <point x="447" y="-29"/>
      <point x="322" y="35" name="sh02"/>
      <point x="240" y="162" type="curve" smooth="yes"/>
      <point x="158" y="289" name="at01"/>
      <point x="117" y="483"/>
      <point x="117" y="745" type="curve" smooth="yes" name="sh01"/>
      <point x="117" y="1006"/>
      <point x="158" y="1201"/>
      <point x="241" y="1328" type="curve" smooth="yes" name="dv02"/>
      <point x="324" y="1456"/>
      <point x="445" y="1520" name="ah02"/>
      <point x="616" y="1520" type="curve" smooth="yes"/>
      <point x="780" y="1520" name="sv01"/>
      <point x="908" y="1461"/>
      <point x="993" y="1328" type="curve" smooth="yes" name="sh03"/>
      <point x="1075" y="1200"/>
      <point x="1116" y="1006"/>
      <point x="1116" y="745" type="curve" smooth="yes" name="ah01"/>
      <point x="1116" y="485" name="sh05"/>
      <point x="1075" y="291"/>
      <point x="993" y="163" type="curve" smooth="yes"/>
      <point x="908" y="30"/>
      <point x="780" y="-29"/>
    </contour>
    <contour>
      <point x="616" y="135" type="curve" smooth="yes"/>
      <point x="719" y="135"/>
      <point x="793" y="182"/>
      <point x="838" y="276" type="curve" smooth="yes"/>
      <point x="883" y="368"/>
      <point x="905" y="524"/>
      <point x="905" y="745" type="curve" smooth="yes"/>
      <point x="905" y="965"/>
      <point x="883" y="1122"/>
      <point x="838" y="1215" type="curve" smooth="yes"/>
      <point x="793" y="1309"/>
      <point x="719" y="1356"/>
      <point x="616" y="1356" type="curve" smooth="yes"/>
      <point x="514" y="1356"/>
      <point x="441" y="1309"/>
      <point x="396" y="1215" type="curve" smooth="yes"/>
      <point x="351" y="1120"/>
      <point x="328" y="964"/>
      <point x="328" y="745" type="curve" smooth="yes"/>
      <point x="328" y="527"/>
      <point x="351" y="371"/>
      <point x="396" y="276" type="curve" smooth="yes" name="hr01"/>
      <point x="441" y="182"/>
      <point x="514" y="135"/>
    </contour>
  </outline>
</glyph>
<glyph name="germandbls" format="1">
  <advance width="1233"/>
  <unicode hex="00DF"/>
  <outline>
    <contour>
      <point x="731" y="-29" type="curve" smooth="yes" name="dv01"/>
      <point x="686" y="-29"/>
      <point x="636" y="-25"/>
      <point x="593" y="-17" type="curve" name="ih01"/>
      <point x="562" y="-10"/>
      <point x="508" y="1" name="dv02"/>
      <point x="459" y="20" type="curve"/>
      <point x="459" y="184" type="line" name="dh05"/>
      <point x="509" y="163"/>
      <point x="557" y="148"/>
      <point x="602" y="138" type="curve" smooth="yes"/>
      <point x="646" y="128"/>
      <point x="688" y="123" name="dh03"/>
      <point x="728" y="123" type="curve" smooth="yes"/>
      <point x="801" y="123"/>
      <point x="858" y="140"/>
      <point x="899" y="171" type="curve" smooth="yes" name="sv01"/>
      <point x="946" y="206"/>
      <point x="963" y="250"/>
      <point x="963" y="310" type="curve" smooth="yes" name="dh02"/>
      <point x="963" y="353" name="dh01"/>
      <point x="954" y="384"/>
      <point x="929" y="419" type="curve" smooth="yes"/>
      <point x="896" y="466" name="at01"/>
      <point x="843" y="502"/>
      <point x="778" y="541" type="curve" smooth="yes"/>
      <point x="711" y="580" type="line" smooth="yes"/>
      <point x="648" y="616" name="dh04"/>
      <point x="603" y="660"/>
      <point x="574" y="703" type="curve" smooth="yes"/>
      <point x="543" y="748"/>
      <point x="528" y="791"/>
      <point x="528" y="851" type="curve" smooth="yes" name="dh06"/>
      <point x="528" y="931"/>
      <point x="554" y="1005"/>
      <point x="609" y="1062" type="curve"/>
      <point x="661" y="1118" name="sh01"/>
      <point x="738" y="1158"/>
      <point x="846" y="1182" type="curve" name="hr01"/>
      <point x="845" y="1253"/>
      <point x="824" y="1308"/>
      <point x="784" y="1346" type="curve" smooth="yes"/>
      <point x="743" y="1384"/>
      <point x="685" y="1403"/>
      <point x="610" y="1403" type="curve" smooth="yes"/>
      <point x="529" y="1403"/>
      <point x="470" y="1381"/>
      <point x="432" y="1338" type="curve" smooth="yes"/>
      <point x="394" y="1294"/>
      <point x="375" y="1226"/>
      <point x="375" y="1133" type="curve" smooth="yes"/>
      <point x="375" y="0" type="line"/>
      <point x="188" y="0" type="line"/>
      <point x="188" y="1137" type="line" smooth="yes"/>
      <point x="188" y="1278"/>
      <point x="223" y="1384"/>
      <point x="293" y="1453" type="curve" smooth="yes"/>
      <point x="364" y="1522"/>
      <point x="473" y="1556"/>
      <point x="610" y="1556" type="curve" smooth="yes"/>
      <point x="749" y="1556"/>
      <point x="854" y="1519"/>
      <point x="923" y="1446" type="curve" smooth="yes"/>
      <point x="994" y="1371"/>
      <point x="1029" y="1262"/>
      <point x="1030" y="1119" type="curve"/>
      <point x="927" y="1110"/>
      <point x="848" y="1085"/>
      <point x="791" y="1043" type="curve" smooth="yes"/>
      <point x="735" y="1002"/>
      <point x="707" y="948"/>
      <point x="707" y="883" type="curve" smooth="yes"/>
      <point x="707" y="846"/>
      <point x="716" y="821"/>
      <point x="735" y="794" type="curve" smooth="yes"/>
      <point x="758" y="762"/>
      <point x="788" y="740"/>
      <point x="829" y="713" type="curve" smooth="yes" name="hr02"/>
      <point x="887" y="676" type="line" smooth="yes"/>
      <point x="992" y="609"/>
      <point x="1055" y="560"/>
      <point x="1094" y="501" type="curve" smooth="yes"/>
      <point x="1131" y="445"/>
      <point x="1149" y="378"/>
      <point x="1149" y="306" type="curve" smooth="yes"/>
      <point x="1149" y="207"/>
      <point x="1117" y="122"/>
      <point x="1037" y="59" type="curve" smooth="yes"/>
      <point x="964" y="2"/>
      <point x="858" y="-29"/>
    </contour>
  </outline>
</glyph>
<glyph name="atilde" format="1">
  <advance width="1233"/>
  <unicode hex="00E3"/>
  <outline>
    <contour>
      <point x="290" y="1339" type="line"/>
      <point x="291" y="1429"/>
      <point x="309" y="1498" name="dv04"/>
      <point x="342" y="1547" type="curve" smooth="yes"/>
      <point x="376" y="1596"/>
      <point x="423" y="1621" name="at01"/>
      <point x="483" y="1621" type="curve" smooth="yes"/>
      <point x="509" y="1621"/>
      <point x="533" y="1616" name="at02"/>
      <point x="555" y="1607" type="curve" smooth="yes" name="sv01"/>
      <point x="575" y="1598"/>
      <point x="598" y="1583"/>
      <point x="624" y="1560" type="curve" name="sv02"/>
      <point x="681" y="1505" type="line"/>
      <point x="696" y="1492"/>
      <point x="711" y="1481"/>
      <point x="719" y="1476" type="curve" smooth="yes" name="at03"/>
      <point x="732" y="1468" name="at04"/>
      <point x="738" y="1466"/>
      <point x="749" y="1466" type="curve" smooth="yes" name="dv03"/>
      <point x="774" y="1466" name="dv01"/>
      <point x="793" y="1478"/>
      <point x="805" y="1503" type="curve" smooth="yes" name="sh01"/>
      <point x="816" y="1527"/>
      <point x="823" y="1566"/>
      <point x="824" y="1621" type="curve" name="ah02"/>
      <point x="949" y="1621" type="line"/>
      <point x="948" y="1531"/>
      <point x="930" y="1462" name="dv06"/>
      <point x="897" y="1413" type="curve" smooth="yes"/>
      <point x="863" y="1364" name="ih01"/>
      <point x="816" y="1339"/>
      <point x="756" y="1339" type="curve" smooth="yes"/>
      <point x="730" y="1339" name="dv07"/>
      <point x="706" y="1344"/>
      <point x="684" y="1353" type="curve" smooth="yes" name="hr01"/>
      <point x="664" y="1362"/>
      <point x="641" y="1377" name="sh03"/>
      <point x="615" y="1400" type="curve"/>
      <point x="558" y="1455" type="line" smooth="yes" name="sh04"/>
      <point x="541" y="1471"/>
      <point x="528" y="1480" name="ab01"/>
      <point x="520" y="1485" type="curve" smooth="yes"/>
      <point x="508" y="1492"/>
      <point x="501" y="1494" name="ih02"/>
      <point x="490" y="1494" type="curve" smooth="yes"/>
      <point x="465" y="1494"/>
      <point x="446" y="1482" name="dv02"/>
      <point x="434" y="1457" type="curve" smooth="yes"/>
      <point x="421" y="1431" name="sh05"/>
      <point x="415" y="1392" name="dv05"/>
      <point x="414" y="1339" type="curve"/>
    </contour>
    <contour>
      <point x="513" y="-29" type="curve" smooth="yes"/>
      <point x="397" y="-29" name="sh02"/>
      <point x="305" y="3"/>
      <point x="238" y="68" type="curve" smooth="yes"/>
      <point x="174" y="129" name="ah01"/>
      <point x="136" y="210" name="sh06"/>
      <point x="136" y="327" type="curve" smooth="yes"/>
      <point x="136" y="450"/>
      <point x="178" y="545"/>
      <point x="262" y="610" type="curve" smooth="yes"/>
      <point x="345" y="675"/>
      <point x="467" y="707"/>
      <point x="630" y="707" type="curve" smooth="yes"/>
      <point x="877" y="707" type="line"/>
      <point x="877" y="736" type="line" smooth="yes"/>
      <point x="877" y="821"/>
      <point x="854" y="890"/>
      <point x="809" y="931" type="curve" smooth="yes"/>
      <point x="765" y="971"/>
      <point x="692" y="991"/>
      <point x="596" y="991" type="curve" smooth="yes"/>
      <point x="533" y="991"/>
      <point x="469" y="982"/>
      <point x="405" y="964" type="curve" smooth="yes"/>
      <point x="340" y="946"/>
      <point x="278" y="920"/>
      <point x="218" y="885" type="curve"/>
      <point x="218" y="1069" type="line"/>
      <point x="274" y="1090"/>
      <point x="345" y="1113"/>
      <point x="414" y="1128" type="curve" smooth="yes"/>
      <point x="475" y="1141"/>
      <point x="536" y="1147"/>
      <point x="597" y="1147" type="curve" smooth="yes"/>
      <point x="692" y="1147"/>
      <point x="767" y="1133"/>
      <point x="834" y="1105" type="curve"/>
      <point x="895" y="1078"/>
      <point x="953" y="1037"/>
      <point x="992" y="984" type="curve" smooth="yes" name="hr02"/>
      <point x="1020" y="945"/>
      <point x="1037" y="901"/>
      <point x="1046" y="860" type="curve" smooth="yes"/>
      <point x="1057" y="811"/>
      <point x="1062" y="738"/>
      <point x="1062" y="639" type="curve" smooth="yes"/>
      <point x="1062" y="410" type="line" name="hr03"/>
      <point x="1065" y="333"/>
      <point x="1064" y="277"/>
      <point x="1071" y="226" type="curve" smooth="yes"/>
      <point x="1078" y="170"/>
      <point x="1087" y="116"/>
      <point x="1094" y="91" type="curve"/>
      <point x="1103" y="50"/>
      <point x="1118" y="7"/>
      <point x="1121" y="0" type="curve"/>
      <point x="936" y="0" type="line"/>
      <point x="929" y="16"/>
      <point x="918" y="50"/>
      <point x="909" y="87" type="curve" smooth="yes" name="hr04"/>
      <point x="902" y="116"/>
      <point x="896" y="149"/>
      <point x="893" y="170" type="curve"/>
      <point x="854" y="103"/>
      <point x="788" y="50"/>
      <point x="729" y="19" type="curve" smooth="yes"/>
      <point x="665" y="-14"/>
      <point x="594" y="-29"/>
    </contour>
    <contour>
      <point x="551" y="125" type="curve" smooth="yes"/>
      <point x="652" y="125"/>
      <point x="731" y="160"/>
      <point x="789" y="231" type="curve" smooth="yes"/>
      <point x="848" y="303"/>
      <point x="877" y="400"/>
      <point x="877" y="522" type="curve" smooth="yes"/>
      <point x="877" y="563" type="line"/>
      <point x="644" y="563" type="line" smooth="yes"/>
      <point x="537" y="563"/>
      <point x="457" y="544"/>
      <point x="402" y="507" type="curve" smooth="yes"/>
      <point x="345" y="468"/>
      <point x="320" y="412"/>
      <point x="320" y="337" type="curve" smooth="yes"/>
      <point x="320" y="268"/>
      <point x="342" y="217"/>
      <point x="381" y="181" type="curve" smooth="yes"/>
      <point x="420" y="146"/>
      <point x="474" y="125"/>
    </contour>
  </outline>
</glyph>
<glyph name="ugrave" format="1">
  <advance width="1233"/>
  <unicode hex="00F9"/>
  <outline>
    <contour>
      <point x="279" y="1644" type="line" name="ih01"/>
      <point x="477" y="1644" type="line" name="hr01"/>
      <point x="758" y="1268" type="line" name="ih02"/>
      <point x="604" y="1268" type="line"/>
    </contour>
    <contour>
      <point x="534" y="-29" type="curve" smooth="yes" name="dv01"/>
      <point x="420" y="-29"/>
      <point x="335" y="9" name="sh01"/>
      <point x="279" y="84" type="curve" smooth="yes"/>
      <point x="223" y="159"/>
      <point x="195" y="272" name="sh02"/>
      <point x="195" y="424" type="curve" smooth="yes"/>
      <point x="195" y="1118" type="line" name="dv02"/>
      <point x="379" y="1118" type="line"/>
      <point x="379" y="424" type="line" smooth="yes" name="sh04"/>
      <point x="379" y="323"/>
      <point x="397" y="249"/>
      <point x="433" y="202" type="curve" smooth="yes" name="sh03"/>
      <point x="468" y="157"/>
      <point x="518" y="131" name="ah02"/>
      <point x="598" y="131" type="curve" smooth="yes"/>
      <point x="685" y="131"/>
      <point x="751" y="162" name="ah01"/>
      <point x="797" y="223" type="curve" smooth="yes" name="sh05"/>
      <point x="843" y="284"/>
      <point x="866" y="371"/>
      <point x="866" y="485" type="curve" smooth="yes"/>
      <point x="866" y="1118" type="line"/>
      <point x="1051" y="1118" type="line"/>
      <point x="1051" y="0" type="line"/>
      <point x="884" y="0" type="line"/>
      <point x="866" y="168" type="line"/>
      <point x="833" y="103"/>
      <point x="788" y="54"/>
      <point x="733" y="21" type="curve" smooth="yes"/>
      <point x="676" y="-12"/>
      <point x="610" y="-29"/>
    </contour>
  </outline>
</glyph>
<glyph name="uacute" format="1">
  <advance width="1233"/>
  <unicode hex="00FA"/>
  <outline>
    <contour>
      <point x="756" y="1644" type="line" name="av01"/>
      <point x="954" y="1644" type="line" name="ih01"/>
      <point x="629" y="1268" type="line"/>
      <point x="475" y="1268" type="line" name="ih02"/>
    </contour>
    <contour>
      <point x="534" y="-29" type="curve" smooth="yes" name="dv01"/>
      <point x="420" y="-29"/>
      <point x="335" y="9" name="sh02"/>
      <point x="279" y="84" type="curve" smooth="yes"/>
      <point x="223" y="159"/>
      <point x="195" y="272" name="sh03"/>
      <point x="195" y="424" type="curve" smooth="yes"/>
      <point x="195" y="1118" type="line" name="dv02"/>
      <point x="379" y="1118" type="line"/>
      <point x="379" y="424" type="line" smooth="yes" name="sh04"/>
      <point x="379" y="323"/>
      <point x="397" y="249"/>
      <point x="433" y="202" type="curve" smooth="yes" name="sh01"/>
      <point x="468" y="157"/>
      <point x="518" y="131" name="ah02"/>
      <point x="598" y="131" type="curve" smooth="yes"/>
      <point x="685" y="131"/>
      <point x="751" y="162" name="ah01"/>
      <point x="797" y="223" type="curve" smooth="yes" name="sh05"/>
      <point x="843" y="284"/>
      <point x="866" y="371"/>
      <point x="866" y="485" type="curve" smooth="yes"/>
      <point x="866" y="1118" type="line"/>
      <point x="1051" y="1118" type="line"/>
      <point x="1051" y="0" type="line"/>
      <point x="884" y="0" type="line"/>
      <point x="866" y="168" type="line"/>
      <point x="833" y="103"/>
      <point x="788" y="54"/>
      <point x="733" y="21" type="curve" smooth="yes"/>
      <point x="676" y="-12"/>
      <point x="610" y="-29"/>
    </contour>
  </outline>
</glyph>
<glyph name="Dcroat" format="1">
  <advance width="1233"/>
  <unicode hex="0110"/>
  <outline>
    <contour>
      <point x="133" y="709" type="line" name="sh01"/>
      <point x="8" y="709" type="line"/>
      <point x="8" y="858" type="line"/>
      <point x="133" y="858" type="line" name="sh02"/>
      <point x="133" y="1493" type="line" name="at01"/>
      <point x="436" y="1493" type="line" smooth="yes"/>
      <point x="891" y="1493" name="sh03"/>
      <point x="1102" y="1257" name="ab01"/>
      <point x="1102" y="746" type="curve" smooth="yes"/>
      <point x="1102" y="237" name="sv01"/>
      <point x="892" y="0" name="ah02"/>
      <point x="436" y="0" type="curve" smooth="yes" name="sv02"/>
      <point x="133" y="0" type="line" name="sh05"/>
    </contour>
    <contour>
      <point x="436" y="166" type="line" smooth="yes" name="sv03"/>
      <point x="777" y="166"/>
      <point x="893" y="308" name="sv04"/>
      <point x="893" y="746" type="curve" smooth="yes" name="sh04"/>
      <point x="893" y="1186"/>
      <point x="776" y="1327" name="ah01"/>
      <point x="436" y="1327" type="curve" smooth="yes" name="sh06"/>
      <point x="340" y="1327" type="line"/>
      <point x="340" y="858" type="line"/>
      <point x="604" y="858" type="line"/>
      <point x="604" y="709" type="line"/>
      <point x="340" y="709" type="line"/>
      <point x="340" y="166" type="line"/>
    </contour>
  </outline>
</glyph>
<glyph name="uni0123" format="1">
  <advance width="1233"/>
  <unicode hex="0123"/>
  <outline>
    <contour>
      <point x="701" y="1642" type="line" name="dv04"/>
      <point x="847" y="1642" type="line" name="ih01"/>
      <point x="753" y="1297" type="line" name="dv03"/>
      <point x="514" y="1297" type="line" name="ih02"/>
    </contour>
    <contour>
      <point x="601" y="-440" type="curve" smooth="yes" name="dv01"/>
      <point x="500" y="-440"/>
      <point x="388" y="-421" name="ih03"/>
      <point x="276" y="-385" type="curve" name="dv02"/>
      <point x="276" y="-203" type="line" name="ah02"/>
      <point x="410" y="-265" name="iv01"/>
      <point x="509" y="-293" name="ab01"/>
      <point x="607" y="-293" type="curve" smooth="yes" name="sh01"/>
      <point x="800" y="-293" name="sv02"/>
      <point x="886" y="-186" name="sh04"/>
      <point x="886" y="45" type="curve" smooth="yes" name="at01"/>
      <point x="886" y="178" type="line"/>
      <point x="830" y="57" name="sh02"/>
      <point x="730" y="-8"/>
      <point x="585" y="-8" type="curve" smooth="yes" name="sv03"/>
      <point x="318" y="-8" name="sh05"/>
      <point x="151" y="218" name="sv01"/>
      <point x="151" y="570" type="curve" smooth="yes" name="sh03"/>
      <point x="151" y="921"/>
      <point x="317" y="1147" name="ah01"/>
      <point x="586" y="1147" type="curve" smooth="yes" name="sh06"/>
      <point x="723" y="1147"/>
      <point x="825" y="1090"/>
      <point x="886" y="971" type="curve"/>
      <point x="904" y="1116" type="line"/>
      <point x="1070" y="1116" type="line"/>
      <point x="1070" y="72" type="line" smooth="yes"/>
      <point x="1070" y="-267"/>
      <point x="910" y="-440"/>
    </contour>
    <contour>
      <point x="620" y="145" type="curve" smooth="yes"/>
      <point x="796" y="145"/>
      <point x="886" y="292"/>
      <point x="886" y="569" type="curve" smooth="yes"/>
      <point x="886" y="846"/>
      <point x="796" y="991"/>
      <point x="619" y="991" type="curve" smooth="yes"/>
      <point x="443" y="991"/>
      <point x="345" y="847"/>
      <point x="345" y="570" type="curve" smooth="yes"/>
      <point x="345" y="291"/>
      <point x="444" y="145"/>
    </contour>
  </outline>
</glyph>
<glyph name="uni0146" format="1">
  <advance width="1233"/>
  <unicode hex="0146"/>
  <outline>
    <contour>
      <point x="195" y="1120" type="line" name="sh01"/>
      <point x="361" y="1120" type="line"/>
      <point x="379" y="952" type="line" name="sh02"/>
      <point x="444" y="1081" name="sv02"/>
      <point x="558" y="1147"/>
      <point x="711" y="1147" type="curve" smooth="yes" name="sh03"/>
      <point x="940" y="1147" name="ah02"/>
      <point x="1051" y="999"/>
      <point x="1051" y="694" type="curve" smooth="yes" name="sv01"/>
      <point x="1051" y="0" type="line" name="sh04"/>
      <point x="866" y="0" type="line" name="ab01"/>
      <point x="866" y="694" type="line" smooth="yes"/>
      <point x="866" y="895" name="dv02"/>
      <point x="799" y="987" name="ih01"/>
      <point x="648" y="987" type="curve" smooth="yes" name="dv01"/>
      <point x="473" y="987" name="ih02"/>
      <point x="379" y="862" name="ah01"/>
      <point x="379" y="633" type="curve" smooth="yes" name="sh05"/>
      <point x="379" y="0" type="line"/>
      <point x="195" y="0" type="line"/>
    </contour>
    <contour>
      <point x="550" y="-199" type="line"/>
      <point x="789" y="-199" type="line"/>
      <point x="602" y="-544" type="line" name="hr01"/>
      <point x="456" y="-544" type="line"/>
    </contour>
  </outline>
</glyph>
<glyph name="Eng" format="1">
  <advance width="1233"/>
  <unicode hex="014A"/>
  <outline>
    <contour>
      <point x="536" y="-270" type="line" name="sv01"/>
      <point x="703" y="-270" type="line" smooth="yes"/>
      <point x="823" y="-270" name="ah02"/>
      <point x="882" y="-195"/>
      <point x="882" y="0" type="curve" smooth="yes" name="sv02"/>
      <point x="882" y="1009" type="line" smooth="yes"/>
      <point x="882" y="1249" name="sh02"/>
      <point x="807" y="1358" name="sh01"/>
      <point x="642" y="1358" type="curve" smooth="yes" name="at01"/>
      <point x="453" y="1358"/>
      <point x="349" y="1209" name="sh03"/>
      <point x="349" y="937" type="curve" smooth="yes" name="sv03"/>
      <point x="349" y="0" type="line" name="hr01"/>
      <point x="147" y="0" type="line" name="sh04"/>
      <point x="147" y="1493" type="line" name="ab01"/>
      <point x="331" y="1493" type="line"/>
      <point x="349" y="1295" type="line" name="ah01"/>
      <point x="421" y="1444" name="sh05"/>
      <point x="544" y="1522"/>
      <point x="713" y="1522" type="curve" smooth="yes"/>
      <point x="961" y="1522"/>
      <point x="1085" y="1348"/>
      <point x="1085" y="999" type="curve" smooth="yes"/>
      <point x="1085" y="-20" type="line" smooth="yes"/>
      <point x="1085" y="-281"/>
      <point x="962" y="-426"/>
      <point x="741" y="-426" type="curve" smooth="yes"/>
      <point x="536" y="-426" type="line"/>
    </contour>
  </outline>
</glyph>
<glyph name="omacron" format="1">
  <advance width="1233"/>
  <unicode hex="014D"/>
  <outline>
    <contour>
      <point x="317" y="1495" type="line" name="at01"/>
      <point x="915" y="1495" type="line" name="sh01"/>
      <point x="915" y="1347" type="line" name="sv01"/>
      <point x="317" y="1347" type="line"/>
    </contour>
    <contour>
      <point x="616" y="-29" type="curve" smooth="yes" name="dv01"/>
      <point x="303" y="-29" name="sh02"/>
      <point x="137" y="174" name="dv04"/>
      <point x="137" y="558" type="curve" smooth="yes" name="sh03"/>
      <point x="137" y="939"/>
      <point x="305" y="1147" name="dv02"/>
      <point x="616" y="1147" type="curve" smooth="yes" name="ah02"/>
      <point x="927" y="1147" name="dv03"/>
      <point x="1096" y="939" name="sh04"/>
      <point x="1096" y="558" type="curve" smooth="yes"/>
      <point x="1096" y="177" name="ah01"/>
      <point x="928" y="-29" name="sh05"/>
    </contour>
    <contour>
      <point x="616" y="127" type="curve" smooth="yes"/>
      <point x="805" y="127"/>
      <point x="901" y="274"/>
      <point x="901" y="559" type="curve" smooth="yes"/>
      <point x="901" y="846"/>
      <point x="805" y="991"/>
      <point x="616" y="991" type="curve" smooth="yes"/>
      <point x="428" y="991"/>
      <point x="332" y="846"/>
      <point x="332" y="559" type="curve" smooth="yes"/>
      <point x="332" y="274"/>
      <point x="428" y="127"/>
    </contour>
  </outline>
</glyph>
<glyph name="Sacute" format="1">
  <advance width="1233"/>
  <unicode hex="015A"/>
  <outline>
    <contour>
      <point x="701" y="1856" type="line" name="sv02"/>
      <point x="887" y="1856" type="line" name="ih01"/>
      <point x="658" y="1592" type="line"/>
      <point x="504" y="1592" type="line" name="ih02"/>
    </contour>
    <contour>
      <point x="586" y="-29" type="curve" smooth="yes" name="dv01"/>
      <point x="439" y="-29"/>
      <point x="302" y="1" name="ih03"/>
      <point x="158" y="61" type="curve" name="dv02"/>
      <point x="158" y="276" type="line" name="ah02"/>
      <point x="311" y="179"/>
      <point x="442" y="135"/>
      <point x="583" y="135" type="curve" smooth="yes" name="sh01"/>
      <point x="787" y="135" name="at01"/>
      <point x="905" y="225"/>
      <point x="905" y="405" type="curve" smooth="yes" name="ih04"/>
      <point x="905" y="539" name="sv01"/>
      <point x="839" y="611" name="sh03"/>
      <point x="643" y="657" type="curve" smooth="yes"/>
      <point x="535" y="682" type="line" smooth="yes"/>
      <point x="255" y="746" name="sh02"/>
      <point x="139" y="869"/>
      <point x="139" y="1077" type="curve" smooth="yes" name="ah01"/>
      <point x="139" y="1346" name="sh04"/>
      <point x="334" y="1520"/>
      <point x="631" y="1520" type="curve" smooth="yes"/>
      <point x="745" y="1520"/>
      <point x="872" y="1494"/>
      <point x="1012" y="1442" type="curve"/>
      <point x="1012" y="1237" type="line"/>
      <point x="889" y="1316"/>
      <point x="765" y="1356"/>
      <point x="640" y="1356" type="curve" smooth="yes"/>
      <point x="451" y="1356"/>
      <point x="332" y="1265"/>
      <point x="332" y="1101" type="curve" smooth="yes"/>
      <point x="332" y="982"/>
      <point x="395" y="915"/>
      <point x="590" y="872" type="curve" smooth="yes"/>
      <point x="696" y="848" type="line" smooth="yes"/>
      <point x="979" y="784"/>
      <point x="1098" y="644"/>
      <point x="1098" y="411" type="curve" smooth="yes" name="hr01"/>
      <point x="1098" y="124"/>
      <point x="917" y="-29"/>
    </contour>
  </outline>
</glyph>
<glyph name="scedilla" format="1">
  <advance width="1233"/>
  <unicode hex="015F"/>
  <outline>
    <contour>
      <point x="960" y="527" type="curve"/>
      <point x="1007" y="476" name="dh04"/>
      <point x="1030" y="408"/>
      <point x="1030" y="323" type="curve" smooth="yes" name="ih01"/>
      <point x="1030" y="208"/>
      <point x="988" y="125" name="sh01"/>
      <point x="912" y="65" type="curve" smooth="yes"/>
      <point x="859" y="23" name="dv01"/>
      <point x="793" y="-5" name="sv01"/>
      <point x="716" y="-18" type="curve" name="sh02"/>
      <point x="747" y="-53" name="ih02"/>
      <point x="768" y="-88"/>
      <point x="783" y="-115" type="curve" name="dv02"/>
      <point x="798" y="-146"/>
      <point x="809" y="-179"/>
      <point x="809" y="-219" type="curve" smooth="yes"/>
      <point x="809" y="-272" name="av01"/>
      <point x="789" y="-319"/>
      <point x="749" y="-350" type="curve" smooth="yes"/>
      <point x="710" y="-379" name="sh03"/>
      <point x="653" y="-395"/>
      <point x="570" y="-395" type="curve" smooth="yes"/>
      <point x="541" y="-395"/>
      <point x="512" y="-393"/>
      <point x="483" y="-389" type="curve" smooth="yes" name="dh03"/>
      <point x="452" y="-385"/>
      <point x="423" y="-379"/>
      <point x="395" y="-371" type="curve"/>
      <point x="395" y="-240" type="line"/>
      <point x="418" y="-251" name="dh01"/>
      <point x="442" y="-260"/>
      <point x="467" y="-265" type="curve" smooth="yes" name="dv04"/>
      <point x="492" y="-270"/>
      <point x="523" y="-272"/>
      <point x="546" y="-272" type="curve" smooth="yes" name="ih03"/>
      <point x="589" y="-272"/>
      <point x="620" y="-264" name="dv03"/>
      <point x="640" y="-248" type="curve" smooth="yes"/>
      <point x="660" y="-232" name="dh02"/>
      <point x="670" y="-209"/>
      <point x="670" y="-180" type="curve" smooth="yes"/>
      <point x="670" y="-159"/>
      <point x="663" y="-134"/>
      <point x="648" y="-105" type="curve" smooth="yes"/>
      <point x="637" y="-82" name="sh04"/>
      <point x="621" y="-58"/>
      <point x="602" y="-29" type="curve"/>
      <point x="590" y="-29" type="line" smooth="yes"/>
      <point x="531" y="-29"/>
      <point x="467" y="-23"/>
      <point x="410" y="-12" type="curve" smooth="yes"/>
      <point x="358" y="-1"/>
      <point x="284" y="18"/>
      <point x="213" y="41" type="curve"/>
      <point x="213" y="231" type="line"/>
      <point x="298" y="188"/>
      <point x="353" y="168"/>
      <point x="410" y="152" type="curve" smooth="yes"/>
      <point x="471" y="135"/>
      <point x="527" y="125"/>
      <point x="588" y="125" type="curve" smooth="yes"/>
      <point x="669" y="125"/>
      <point x="732" y="142"/>
      <point x="777" y="175" type="curve" smooth="yes"/>
      <point x="824" y="210"/>
      <point x="844" y="259"/>
      <point x="844" y="307" type="curve" smooth="yes"/>
      <point x="844" y="400"/>
      <point x="768" y="455"/>
      <point x="599" y="490" type="curve" smooth="yes"/>
      <point x="591" y="492" type="line"/>
      <point x="522" y="506" type="line" smooth="yes"/>
      <point x="422" y="526"/>
      <point x="343" y="558"/>
      <point x="290" y="611" type="curve" smooth="yes"/>
      <point x="241" y="660"/>
      <point x="217" y="727"/>
      <point x="217" y="812" type="curve" smooth="yes"/>
      <point x="217" y="920"/>
      <point x="254" y="1003"/>
      <point x="326" y="1060" type="curve" smooth="yes"/>
      <point x="402" y="1121"/>
      <point x="508" y="1147"/>
      <point x="639" y="1147" type="curve" smooth="yes"/>
      <point x="696" y="1147"/>
      <point x="754" y="1142"/>
      <point x="810" y="1131" type="curve" smooth="yes" name="hr01"/>
      <point x="861" y="1120"/>
      <point x="917" y="1104"/>
      <point x="973" y="1081" type="curve"/>
      <point x="973" y="901" type="line"/>
      <point x="920" y="932"/>
      <point x="867" y="955"/>
      <point x="814" y="970" type="curve" smooth="yes"/>
      <point x="761" y="985"/>
      <point x="708" y="993"/>
      <point x="647" y="993" type="curve" smooth="yes"/>
      <point x="570" y="993"/>
      <point x="506" y="980"/>
      <point x="465" y="953" type="curve" smooth="yes"/>
      <point x="424" y="926"/>
      <point x="403" y="884"/>
      <point x="403" y="828" type="curve" smooth="yes"/>
      <point x="403" y="781"/>
      <point x="418" y="741"/>
      <point x="449" y="717" type="curve" smooth="yes"/>
      <point x="480" y="693"/>
      <point x="546" y="670"/>
      <point x="678" y="645" type="curve" smooth="yes"/>
      <point x="752" y="631" type="line" smooth="yes"/>
      <point x="848" y="612"/>
      <point x="915" y="578"/>
    </contour>
  </outline>
</glyph>
<glyph name="umacron" format="1">
  <advance width="1233"/>
  <unicode hex="016B"/>
  <outline>
    <contour>
      <point x="317" y="1466" type="line"/>
      <point x="915" y="1466" type="line" name="dv02"/>
      <point x="915" y="1318" type="line" name="dv01"/>
      <point x="317" y="1318" type="line"/>
    </contour>
    <contour>
      <point x="534" y="-29" type="curve" smooth="yes" name="sv02"/>
      <point x="305" y="-29" name="sh01"/>
      <point x="195" y="119"/>
      <point x="195" y="424" type="curve" smooth="yes"/>
      <point x="195" y="1118" type="line" name="sh02"/>
      <point x="379" y="1118" type="line" name="sv01"/>
      <point x="379" y="424" type="line" smooth="yes" name="sh03"/>
      <point x="379" y="223"/>
      <point x="449" y="131"/>
      <point x="598" y="131" type="curve" smooth="yes" name="sh04"/>
      <point x="773" y="131"/>
      <point x="866" y="256" name="ah02"/>
      <point x="866" y="485" type="curve" smooth="yes"/>
      <point x="866" y="1118" type="line" name="ah01"/>
      <point x="1051" y="1118" type="line" name="sh05"/>
      <point x="1051" y="0" type="line"/>
      <point x="884" y="0" type="line"/>
      <point x="866" y="168" type="line"/>
      <point x="801" y="39"/>
      <point x="687" y="-29"/>
    </contour>
  </outline>
</glyph>
<glyph name="uhungarumlaut" format="1">
  <advance width="1233"/>
  <unicode hex="0171"/>
  <outline>
    <contour>
      <point x="535" y="1644" type="line" name="dv02"/>
      <point x="705" y="1644" type="line" name="ih01"/>
      <point x="481" y="1268" type="line" name="dv01"/>
      <point x="344" y="1268" type="line" name="ih02"/>
    </contour>
    <contour>
      <point x="868" y="1644" type="line" name="sh04"/>
      <point x="1047" y="1644" type="line" name="sh05"/>
      <point x="799" y="1268" type="line" name="sv01"/>
      <point x="664" y="1268" type="line" name="ih03"/>
    </contour>
    <contour>
      <point x="534" y="-29" type="curve" smooth="yes" name="sv03"/>
      <point x="305" y="-29" name="sh01"/>
      <point x="195" y="119"/>
      <point x="195" y="424" type="curve" smooth="yes"/>
      <point x="195" y="1118" type="line" name="sh03"/>
      <point x="379" y="1118" type="line" name="sv02"/>
      <point x="379" y="424" type="line" smooth="yes" name="sh06"/>
      <point x="379" y="223"/>
      <point x="449" y="131"/>
      <point x="598" y="131" type="curve" smooth="yes" name="sh02"/>
      <point x="773" y="131"/>
      <point x="866" y="256" name="ah02"/>
      <point x="866" y="485" type="curve" smooth="yes"/>
      <point x="866" y="1118" type="line" name="ah01"/>
      <point x="1051" y="1118" type="line" name="sh07"/>
      <point x="1051" y="0" type="line"/>
      <point x="884" y="0" type="line"/>
      <point x="866" y="168" type="line"/>
      <point x="801" y="39"/>
      <point x="687" y="-29"/>
    </contour>
  </outline>
</glyph>
<glyph name="ohorn" format="1">
  <advance width="1233"/>
  <unicode hex="01A1"/>
  <outline>
    <contour>
      <point x="1182" y="1137" type="line" name="at01"/>
      <point x="1197" y="1081" name="dh06"/>
      <point x="1202" y="1043" name="dv03"/>
      <point x="1202" y="994" type="curve" smooth="yes" name="ih01"/>
      <point x="1202" y="845" name="dh04"/>
      <point x="1147" y="764" name="dv01"/>
      <point x="1028" y="764" type="curve" smooth="yes" name="dh01"/>
      <point x="1008" y="764" name="at02"/>
      <point x="989" y="765"/>
      <point x="970" y="772" type="curve" name="dv04"/>
      <point x="984" y="708" name="dh05"/>
      <point x="991" y="637" name="ih02"/>
      <point x="991" y="558" type="curve" smooth="yes" name="dv02"/>
      <point x="991" y="177" name="dh03"/>
      <point x="823" y="-29" name="sv01"/>
      <point x="511" y="-29" type="curve" smooth="yes" name="dh02"/>
      <point x="198" y="-29"/>
      <point x="32" y="174"/>
      <point x="32" y="558" type="curve" smooth="yes" name="sh01"/>
      <point x="32" y="939"/>
      <point x="200" y="1147"/>
      <point x="511" y="1147" type="curve" smooth="yes"/>
      <point x="702" y="1147"/>
      <point x="837" y="1071"/>
      <point x="916" y="922" type="curve"/>
      <point x="944" y="909"/>
      <point x="969" y="903"/>
      <point x="991" y="903" type="curve" smooth="yes" name="hr02"/>
      <point x="1047" y="903"/>
      <point x="1079" y="941"/>
      <point x="1079" y="1013" type="curve" smooth="yes"/>
      <point x="1079" y="1054"/>
      <point x="1069" y="1096"/>
      <point x="1049" y="1137" type="curve"/>
    </contour>
    <contour>
      <point x="511" y="127" type="curve" smooth="yes"/>
      <point x="700" y="127"/>
      <point x="796" y="274"/>
      <point x="796" y="559" type="curve" smooth="yes"/>
      <point x="796" y="846"/>
      <point x="700" y="991"/>
      <point x="511" y="991" type="curve" smooth="yes"/>
      <point x="323" y="991"/>
      <point x="227" y="846"/>
      <point x="227" y="559" type="curve" smooth="yes"/>
      <point x="227" y="274"/>
      <point x="323" y="127"/>
    </contour>
  </outline>
</glyph>
<glyph name="Gcaron" format="1">
  <advance width="1233"/>
  <unicode hex="01E6"/>
  <outline>
    <contour>
      <point x="401" y="1852" type="line" name="ih01"/>
      <point x="541" y="1852" type="line"/>
      <point x="706" y="1674" type="line"/>
      <point x="872" y="1852" type="line" name="sv02"/>
      <point x="1012" y="1852" type="line" name="ih02"/>
      <point x="801" y="1586" type="line" name="hr01"/>
      <point x="612" y="1586" type="line"/>
    </contour>
    <contour>
      <point x="700" y="-29" type="curve" smooth="yes" name="dv01"/>
      <point x="324" y="-29" name="dh01"/>
      <point x="102" y="255" name="at01"/>
      <point x="102" y="743" type="curve" smooth="yes"/>
      <point x="102" y="1233" name="ih03"/>
      <point x="327" y="1520" name="sv01"/>
      <point x="703" y="1520" type="curve" smooth="yes" name="dh02"/>
      <point x="835" y="1520" name="dv02"/>
      <point x="945" y="1485" name="sh01"/>
      <point x="1053" y="1413" type="curve" name="dv03"/>
      <point x="1053" y="1206" type="line"/>
      <point x="945" y="1310" name="dh03"/>
      <point x="835" y="1356" name="dh04"/>
      <point x="707" y="1356" type="curve" smooth="yes"/>
      <point x="440" y="1356"/>
      <point x="313" y="1155"/>
      <point x="313" y="739" type="curve" smooth="yes" name="sh02"/>
      <point x="313" y="330"/>
      <point x="438" y="135"/>
      <point x="705" y="135" type="curve" smooth="yes"/>
      <point x="790" y="135"/>
      <point x="855" y="155"/>
      <point x="911" y="199" type="curve"/>
      <point x="911" y="600" type="line"/>
      <point x="694" y="600" type="line" name="hr02"/>
      <point x="694" y="766" type="line"/>
      <point x="1104" y="766" type="line"/>
      <point x="1104" y="123" type="line"/>
      <point x="996" y="23"/>
      <point x="861" y="-29"/>
    </contour>
  </outline>
</glyph>
<glyph name="breve" format="1">
  <advance width="1233"/>
  <unicode hex="02D8"/>
  <outline>
    <contour>
      <point x="422" y="1608" type="line" name="sv01"/>
      <point x="429" y="1558"/>
      <point x="448" y="1520" name="dv02"/>
      <point x="481" y="1495" type="curve" smooth="yes"/>
      <point x="512" y="1470" name="sv02"/>
      <point x="557" y="1458"/>
      <point x="616" y="1458" type="curve" smooth="yes"/>
      <point x="673" y="1458" name="dv01"/>
      <point x="718" y="1470"/>
      <point x="749" y="1495" type="curve" smooth="yes" name="sv03"/>
      <point x="782" y="1520"/>
      <point x="802" y="1558"/>
      <point x="811" y="1608" type="curve"/>
      <point x="930" y="1608" type="line"/>
      <point x="923" y="1513"/>
      <point x="893" y="1441"/>
      <point x="840" y="1393" type="curve" smooth="yes"/>
      <point x="787" y="1345"/>
      <point x="712" y="1321"/>
      <point x="616" y="1321" type="curve" smooth="yes" name="hr01"/>
      <point x="520" y="1321"/>
      <point x="446" y="1345"/>
      <point x="393" y="1393" type="curve" smooth="yes"/>
      <point x="340" y="1441"/>
      <point x="310" y="1513"/>
      <point x="303" y="1608" type="curve" name="hr02"/>
    </contour>
  </outline>
</glyph>
<glyph name="dieresistonos" format="1">
  <advance width="1233"/>
  <unicode hex="0385"/>
  <outline>
    <contour>
      <point x="766" y="1894" type="line" name="av01"/>
      <point x="964" y="1894" type="line"/>
      <point x="639" y="1518" type="line" name="at01"/>
      <point x="485" y="1518" type="line" name="ih01"/>
    </contour>
    <contour>
      <point x="272" y="1326" type="line" smooth="yes" name="sv01"/>
      <point x="252" y="1326" name="sh01"/>
      <point x="242" y="1336"/>
      <point x="242" y="1356" type="curve" smooth="yes" name="at02"/>
      <point x="242" y="1498" type="line" smooth="yes"/>
      <point x="242" y="1518"/>
      <point x="252" y="1528" name="sh03"/>
      <point x="272" y="1528" type="curve" smooth="yes" name="hr04"/>
      <point x="415" y="1528" type="line" smooth="yes" name="sv02"/>
      <point x="435" y="1528" name="ah02"/>
      <point x="445" y="1518"/>
      <point x="445" y="1498" type="curve" smooth="yes" name="at03"/>
      <point x="445" y="1356" type="line" smooth="yes" name="sv03"/>
      <point x="445" y="1336"/>
      <point x="435" y="1326" name="sh02"/>
      <point x="415" y="1326" type="curve" smooth="yes" name="hr06"/>
    </contour>
    <contour>
      <point x="749" y="1326" type="line" smooth="yes" name="ah01"/>
      <point x="729" y="1326"/>
      <point x="719" y="1336"/>
      <point x="719" y="1356" type="curve" smooth="yes" name="hr07"/>
      <point x="719" y="1498" type="line" smooth="yes"/>
      <point x="719" y="1518"/>
      <point x="729" y="1528"/>
      <point x="749" y="1528" type="curve" smooth="yes" name="hr08"/>
      <point x="891" y="1528" type="line" smooth="yes" name="hr09"/>
      <point x="911" y="1528"/>
      <point x="921" y="1518"/>
      <point x="921" y="1498" type="curve" smooth="yes"/>
      <point x="921" y="1356" type="line" smooth="yes"/>
      <point x="921" y="1336"/>
      <point x="911" y="1326"/>
      <point x="891" y="1326" type="curve" smooth="yes"/>
    </contour>
  </outline>
</glyph>
<glyph name="etatonos" format="1">
  <advance width="1233"/>
  <unicode hex="03AE"/>
  <outline>
    <contour>
      <point x="756" y="1675" type="line" name="av01"/>
      <point x="954" y="1675" type="line" name="ih01"/>
      <point x="629" y="1299" type="line"/>
      <point x="475" y="1299" type="line" name="ih02"/>
    </contour>
    <contour>
      <point x="866" y="694" type="line" smooth="yes" name="ah02"/>
      <point x="866" y="895" name="sv01"/>
      <point x="799" y="987"/>
      <point x="648" y="987" type="curve" smooth="yes" name="sh03"/>
      <point x="473" y="987" name="sh02"/>
      <point x="379" y="862" name="at01"/>
      <point x="379" y="633" type="curve" smooth="yes"/>
      <point x="379" y="0" type="line" name="sh04"/>
      <point x="195" y="0" type="line" name="sv02"/>
      <point x="195" y="1120" type="line" name="sh01"/>
      <point x="361" y="1120" type="line" name="ab01"/>
      <point x="379" y="952" type="line"/>
      <point x="444" y="1081" name="ah01"/>
      <point x="558" y="1147" name="sh05"/>
      <point x="711" y="1147" type="curve" smooth="yes"/>
      <point x="940" y="1147"/>
      <point x="1051" y="999"/>
      <point x="1051" y="694" type="curve" smooth="yes"/>
      <point x="1051" y="-426" type="line"/>
      <point x="866" y="-426" type="line"/>
    </contour>
  </outline>
</glyph>
<glyph name="delta" format="1">
  <advance width="1233"/>
  <unicode hex="03B4"/>
  <outline>
    <contour>
      <point x="617" y="-29" type="curve" smooth="yes" name="dv01"/>
      <point x="304" y="-29" name="dh01"/>
      <point x="137" y="174"/>
      <point x="137" y="559" type="curve" smooth="yes" name="ih01"/>
      <point x="137" y="760"/>
      <point x="183" y="903" name="sh01"/>
      <point x="260" y="996" type="curve" smooth="yes" name="at01"/>
      <point x="279" y="1019" name="at02"/>
      <point x="305" y="1044"/>
      <point x="334" y="1067" type="curve" name="ih02"/>
      <point x="323" y="1071" name="sv01"/>
      <point x="298" y="1093"/>
      <point x="275" y="1116" type="curve" smooth="yes"/>
      <point x="230" y="1163"/>
      <point x="213" y="1210" name="sh02"/>
      <point x="213" y="1269" type="curve" smooth="yes"/>
      <point x="213" y="1450" name="dv04"/>
      <point x="378" y="1569" name="dh04"/>
      <point x="658" y="1569" type="curve" smooth="yes"/>
      <point x="709" y="1569" name="dv02"/>
      <point x="766" y="1565" name="dh03"/>
      <point x="799" y="1557" type="curve" smooth="yes" name="dv03"/>
      <point x="950" y="1521" type="line" name="dh02"/>
      <point x="950" y="1348" type="line" name="hr01"/>
      <point x="862" y="1380"/>
      <point x="755" y="1405" name="sh03"/>
      <point x="647" y="1402" type="curve" smooth="yes"/>
      <point x="615" y="1401" type="line" smooth="yes"/>
      <point x="568" y="1400"/>
      <point x="526" y="1388"/>
      <point x="482" y="1356" type="curve" smooth="yes"/>
      <point x="443" y="1328" type="line"/>
      <point x="425" y="1312"/>
      <point x="416" y="1288"/>
      <point x="416" y="1257" type="curve" smooth="yes"/>
      <point x="416" y="1214"/>
      <point x="432" y="1189"/>
      <point x="487" y="1161" type="curve"/>
      <point x="511" y="1150"/>
      <point x="543" y="1148"/>
      <point x="616" y="1147" type="curve"/>
      <point x="937" y="1138"/>
      <point x="1096" y="941"/>
      <point x="1096" y="561" type="curve" smooth="yes"/>
      <point x="1096" y="173"/>
      <point x="930" y="-29"/>
    </contour>
    <contour>
      <point x="616" y="127" type="curve" smooth="yes"/>
      <point x="805" y="127"/>
      <point x="901" y="274"/>
      <point x="901" y="559" type="curve" smooth="yes"/>
      <point x="901" y="846"/>
      <point x="805" y="991"/>
      <point x="616" y="991" type="curve" smooth="yes"/>
      <point x="428" y="991"/>
      <point x="332" y="846"/>
      <point x="332" y="559" type="curve" smooth="yes" name="hr02"/>
      <point x="332" y="274"/>
      <point x="428" y="127"/>
    </contour>
  </outline>
</glyph>
<glyph name="zeta" format="1">
  <advance width="1233"/>
  <unicode hex="03B6"/>
  <outline>
    <contour>
      <point x="738" y="-279" type="line" name="dh03"/>
      <point x="807" y="-284" name="sh01"/>
      <point x="881" y="-245"/>
      <point x="881" y="-154" type="curve" smooth="yes" name="dh01"/>
      <point x="881" y="-90" name="ih01"/>
      <point x="844" y="-44"/>
      <point x="760" y="-29" type="curve" name="at01"/>
      <point x="640" y="-5" name="sh02"/>
      <point x="154" y="-6"/>
      <point x="154" y="498" type="curve" smooth="yes" name="dh02"/>
      <point x="154" y="808" name="sh03"/>
      <point x="340" y="1136"/>
      <point x="724" y="1371" type="curve" name="dh04"/>
      <point x="192" y="1371" type="line" name="ab01"/>
      <point x="192" y="1556" type="line"/>
      <point x="1062" y="1556" type="line" name="sh04"/>
      <point x="1062" y="1371" type="line"/>
      <point x="579" y="1111"/>
      <point x="335" y="853"/>
      <point x="335" y="585" type="curve" smooth="yes"/>
      <point x="335" y="567"/>
      <point x="336" y="550"/>
      <point x="338" y="534" type="curve" smooth="yes"/>
      <point x="378" y="158"/>
      <point x="605" y="139"/>
      <point x="760" y="127" type="curve" smooth="yes"/>
      <point x="948" y="112"/>
      <point x="1055" y="21"/>
      <point x="1055" y="-144" type="curve" smooth="yes"/>
      <point x="1055" y="-301"/>
      <point x="955" y="-430"/>
      <point x="738" y="-430" type="curve" name="hr01"/>
    </contour>
  </outline>
</glyph>
<glyph name="nu" format="1">
  <advance width="1233"/>
  <unicode hex="03BD"/>
  <outline>
    <contour>
      <point x="116" y="1120" type="line" name="at01"/>
      <point x="314" y="1120" type="line"/>
      <point x="603" y="180" type="line" name="iv01"/>
      <point x="770" y="350" name="dh01"/>
      <point x="903" y="582"/>
      <point x="903" y="721" type="curve" smooth="yes" name="at02"/>
      <point x="903" y="753"/>
      <point x="896" y="810" name="dh02"/>
      <point x="881" y="870" type="curve" name="ab01"/>
      <point x="860" y="947"/>
      <point x="828" y="1021"/>
      <point x="747" y="1120" type="curve" name="sh01"/>
      <point x="933" y="1120" type="line"/>
      <point x="1021" y="1002"/>
      <point x="1090" y="831"/>
      <point x="1090" y="707" type="curve" smooth="yes"/>
      <point x="1090" y="462"/>
      <point x="819" y="153"/>
      <point x="654" y="0" type="curve"/>
      <point x="458" y="0" type="line"/>
    </contour>
  </outline>
</glyph>
<glyph name="pi" format="1">
  <advance width="1233"/>
  <unicode hex="03C0"/>
  <outline>
    <contour>
      <point x="1037" y="-39" type="curve" smooth="yes" name="av01"/>
      <point x="961" y="-39"/>
      <point x="908" y="-17" name="dh03"/>
      <point x="877" y="27" type="curve" smooth="yes" name="sv01"/>
      <point x="846" y="70"/>
      <point x="831" y="144" name="dh02"/>
      <point x="831" y="268" type="curve" smooth="yes" name="dh01"/>
      <point x="831" y="952" type="line" name="sv02"/>
      <point x="403" y="952" type="line"/>
      <point x="403" y="0" type="line"/>
      <point x="223" y="0" type="line" name="dv02"/>
      <point x="223" y="952" type="line" name="dv01"/>
      <point x="80" y="952" type="line"/>
      <point x="80" y="1100" type="line" name="dh04"/>
      <point x="1153" y="1100" type="line"/>
      <point x="1153" y="952" type="line"/>
      <point x="1012" y="952" type="line"/>
      <point x="1012" y="248" type="line" smooth="yes" name="sh01"/>
      <point x="1012" y="201" name="ab01"/>
      <point x="1018" y="168" name="av02"/>
      <point x="1037" y="145" type="curve" smooth="yes"/>
      <point x="1053" y="124"/>
      <point x="1076" y="113" name="sh02"/>
      <point x="1112" y="113" type="curve" smooth="yes"/>
      <point x="1124" y="113"/>
      <point x="1138" y="114"/>
      <point x="1153" y="116" type="curve" smooth="yes"/>
      <point x="1179" y="119"/>
      <point x="1174" y="116"/>
      <point x="1182" y="119" type="curve"/>
      <point x="1182" y="-14" type="line"/>
      <point x="1161" y="-23"/>
      <point x="1137" y="-29"/>
      <point x="1110" y="-33" type="curve" smooth="yes"/>
      <point x="1085" y="-37"/>
      <point x="1060" y="-39"/>
    </contour>
  </outline>
</glyph>
<glyph name="sigma" format="1">
  <advance width="1233"/>
  <unicode hex="03C3"/>
  <outline>
    <contour>
      <point x="589" y="-29" type="curve" smooth="yes" name="dv01"/>
      <point x="294" y="-29" name="sh01"/>
      <point x="119" y="176" name="at01"/>
      <point x="119" y="554" type="curve" smooth="yes"/>
      <point x="119" y="914" name="sv01"/>
      <point x="277" y="1120" name="sh02"/>
      <point x="598" y="1120" type="curve" smooth="yes" name="sh03"/>
      <point x="1113" y="1120" type="line"/>
      <point x="1113" y="936" type="line" name="dv02"/>
      <point x="872" y="936" type="line" name="ah02"/>
      <point x="1009" y="828"/>
      <point x="1078" y="680" name="sv02"/>
      <point x="1078" y="493" type="curve" smooth="yes" name="sh04"/>
      <point x="1078" y="188"/>
      <point x="892" y="-29" name="ah01"/>
    </contour>
    <contour>
      <point x="594" y="127" type="curve" smooth="yes"/>
      <point x="786" y="127"/>
      <point x="883" y="291"/>
      <point x="883" y="498" type="curve" smooth="yes"/>
      <point x="883" y="662"/>
      <point x="824" y="785"/>
      <point x="711" y="870" type="curve" smooth="yes"/>
      <point x="674" y="898"/>
      <point x="631" y="922"/>
      <point x="591" y="935" type="curve"/>
      <point x="411" y="935"/>
      <point x="314" y="843"/>
      <point x="314" y="560" type="curve" smooth="yes"/>
      <point x="314" y="272"/>
      <point x="411" y="127"/>
    </contour>
  </outline>
</glyph>
<glyph name="uni0401" format="1">
  <advance width="1233"/>
  <unicode hex="0401"/>
  <outline>
    <contour>
      <point x="405" y="1649" type="line" smooth="yes" name="dv01"/>
      <point x="385" y="1649" name="ih01"/>
      <point x="375" y="1659"/>
      <point x="375" y="1679" type="curve" smooth="yes" name="dv02"/>
      <point x="375" y="1822" type="line" smooth="yes"/>
      <point x="375" y="1842"/>
      <point x="385" y="1852" name="sh01"/>
      <point x="405" y="1852" type="curve" smooth="yes"/>
      <point x="548" y="1852" type="line" smooth="yes" name="sv01"/>
      <point x="568" y="1852" name="dh03"/>
      <point x="578" y="1842"/>
      <point x="578" y="1822" type="curve" smooth="yes" name="sv02"/>
      <point x="578" y="1679" type="line" smooth="yes"/>
      <point x="578" y="1659"/>
      <point x="568" y="1649" name="dh04"/>
      <point x="548" y="1649" type="curve" smooth="yes"/>
    </contour>
    <contour>
      <point x="797" y="1649" type="line" smooth="yes" name="dh01"/>
      <point x="777" y="1649"/>
      <point x="767" y="1659" name="sv03"/>
      <point x="767" y="1679" type="curve" smooth="yes" name="dh02"/>
      <point x="767" y="1822" type="line" smooth="yes"/>
      <point x="767" y="1842" name="dv04"/>
      <point x="777" y="1852" name="dv03"/>
      <point x="797" y="1852" type="curve" smooth="yes" name="sh02"/>
      <point x="939" y="1852" type="line" smooth="yes" name="sv04"/>
      <point x="959" y="1852"/>
      <point x="969" y="1842" name="ab01"/>
      <point x="969" y="1822" type="curve" smooth="yes"/>
      <point x="969" y="1679" type="line" smooth="yes"/>
      <point x="969" y="1659" name="sh03"/>
      <point x="959" y="1649"/>
      <point x="939" y="1649" type="curve" smooth="yes"/>
    </contour>
    <contour>
      <point x="197" y="1493" type="line"/>
      <point x="1083" y="1493" type="line"/>
      <point x="1083" y="1323" type="line"/>
      <point x="399" y="1323" type="line"/>
      <point x="399" y="881" type="line"/>
      <point x="1053" y="881" type="line" name="hr01"/>
      <point x="1053" y="711" type="line"/>
      <point x="399" y="711" type="line"/>
      <point x="399" y="170" type="line"/>
      <point x="1102" y="170" type="line"/>
      <point x="1102" y="0" type="line"/>
      <point x="197" y="0" type="line"/>
    </contour>
  </outline>
</glyph>
<glyph name="uni0411" format="1">
  <advance width="1233"/>
  <unicode hex="0411"/>
  <outline>
    <contour>
      <point x="166" y="1493" type="line" name="sh01"/>
      <point x="1068" y="1493" type="line"/>
      <point x="1068" y="1327" type="line" name="sv01"/>
      <point x="369" y="1327" type="line" name="sh02"/>
      <point x="369" y="877" type="line"/>
      <point x="604" y="877" type="line" name="dv02"/>
      <point x="857" y="867"/>
      <point x="1017" y="798" name="sh03"/>
      <point x="1084" y="671" type="curve" smooth="yes" name="ab01"/>
      <point x="1121" y="600"/>
      <point x="1137" y="506" name="sv02"/>
      <point x="1137" y="419" type="curve" smooth="yes" name="ah02"/>
      <point x="1137" y="138" name="dv01"/>
      <point x="967" y="0" name="sh04"/>
      <point x="608" y="0" type="curve" smooth="yes"/>
      <point x="166" y="0" type="line" name="ah01"/>
    </contour>
    <contour>
      <point x="608" y="166" type="line" smooth="yes" name="sh05"/>
      <point x="843" y="166"/>
      <point x="934" y="242"/>
      <point x="934" y="429" type="curve" smooth="yes"/>
      <point x="934" y="625"/>
      <point x="833" y="713"/>
      <point x="608" y="713" type="curve" smooth="yes"/>
      <point x="369" y="713" type="line"/>
      <point x="369" y="166" type="line"/>
    </contour>
  </outline>
</glyph>
<glyph name="uni0416" format="1">
  <advance width="1233"/>
  <unicode hex="0416"/>
  <outline>
    <contour>
      <point x="319" y="891" type="line" name="hr00"/>
      <point x="32" y="1493" type="line" name="at01"/>
      <point x="239" y="1493" type="line"/>
      <point x="523" y="898" type="line" name="dh01"/>
      <point x="523" y="1493" type="line" name="at02"/>
      <point x="710" y="1493" type="line"/>
      <point x="710" y="898" type="line" name="dh02"/>
      <point x="994" y="1493" type="line" name="at03"/>
      <point x="1201" y="1493" type="line"/>
      <point x="914" y="891" type="line"/>
      <point x="1218" y="0" type="line" name="ab01"/>
      <point x="1021" y="0" type="line"/>
      <point x="799" y="650" type="line" name="iv01"/>
      <point x="710" y="464" type="line" name="sh01"/>
      <point x="710" y="0" type="line" name="ab02"/>
      <point x="523" y="0" type="line" name="sh02"/>
      <point x="523" y="464" type="line"/>
      <point x="434" y="650" type="line" name="iv02"/>
      <point x="212" y="0" type="line" name="ab03"/>
      <point x="15" y="0" type="line"/>
    </contour>
  </outline>
</glyph>
<glyph name="uni0417" format="1">
  <advance width="1233"/>
  <unicode hex="0417"/>
  <outline>
    <contour>
      <point x="553" y="-29" type="curve" smooth="yes" name="dv01"/>
      <point x="421" y="-29"/>
      <point x="274" y="-3"/>
      <point x="137" y="45" type="curve" name="dv02"/>
      <point x="137" y="246" type="line" name="sh02"/>
      <point x="274" y="174" name="dv03"/>
      <point x="404" y="141"/>
      <point x="532" y="141" type="curve" smooth="yes" name="hr01"/>
      <point x="757" y="141" name="dv04"/>
      <point x="879" y="245" name="sh01"/>
      <point x="879" y="426" type="curve" smooth="yes" name="sv01"/>
      <point x="879" y="608"/>
      <point x="752" y="715"/>
      <point x="549" y="715" type="curve" smooth="yes" name="at01"/>
      <point x="395" y="715" type="line" name="sh03"/>
      <point x="395" y="881" type="line" name="iv01"/>
      <point x="549" y="881" type="line" smooth="yes" name="sh04"/>
      <point x="736" y="881"/>
      <point x="844" y="963" name="ah01"/>
      <point x="844" y="1118" type="curve" smooth="yes" name="sh05"/>
      <point x="844" y="1266"/>
      <point x="745" y="1350"/>
      <point x="557" y="1350" type="curve" smooth="yes"/>
      <point x="456" y="1350"/>
      <point x="326" y="1326"/>
      <point x="182" y="1270" type="curve"/>
      <point x="182" y="1456" type="line"/>
      <point x="343" y="1499"/>
      <point x="465" y="1520"/>
      <point x="569" y="1520" type="curve" smooth="yes" name="hr02"/>
      <point x="853" y="1520"/>
      <point x="1044" y="1361"/>
      <point x="1044" y="1122" type="curve" smooth="yes"/>
      <point x="1044" y="954"/>
      <point x="952" y="844"/>
      <point x="776" y="799" type="curve"/>
      <point x="973" y="747"/>
      <point x="1079" y="613"/>
      <point x="1079" y="410" type="curve" smooth="yes"/>
      <point x="1079" y="137"/>
      <point x="885" y="-29"/>
    </contour>
  </outline>
</glyph>
<glyph name="uni0421" format="1">
  <advance width="1233"/>
  <unicode hex="0421"/>
  <outline>
    <contour>
      <point x="298" y="1315" type="curve" smooth="yes"/>
      <point x="404" y="1452"/>
      <point x="555" y="1520"/>
      <point x="751" y="1520" type="curve" smooth="yes"/>
      <point x="780" y="1520"/>
      <point x="813" y="1518"/>
      <point x="850" y="1513" type="curve" smooth="yes"/>
      <point x="854" y="1513" type="line" smooth="yes"/>
      <point x="862" y="1513"/>
      <point x="866" y="1517"/>
      <point x="866" y="1526" type="curve" smooth="yes"/>
      <point x="866" y="1750" type="line" smooth="yes"/>
      <point x="866" y="1757"/>
      <point x="869" y="1760"/>
      <point x="876" y="1760" type="curve" smooth="yes"/>
      <point x="1063" y="1760" type="line" smooth="yes"/>
      <point x="1070" y="1760"/>
      <point x="1073" y="1757"/>
      <point x="1073" y="1750" type="curve" smooth="yes"/>
      <point x="1073" y="1231" type="line"/>
      <point x="972" y="1314"/>
      <point x="861" y="1356"/>
      <point x="741" y="1356" type="curve" smooth="yes"/>
      <point x="480" y="1356"/>
      <point x="350" y="1152"/>
      <point x="350" y="745" type="curve" smooth="yes"/>
      <point x="350" y="338"/>
      <point x="480" y="135"/>
      <point x="740" y="135" type="curve" smooth="yes"/>
      <point x="860" y="135"/>
      <point x="976" y="179"/>
      <point x="1073" y="260" type="curve"/>
      <point x="1073" y="53" type="line"/>
      <point x="972" y="-2"/>
      <point x="862" y="-29"/>
      <point x="745" y="-29" type="curve" smooth="yes" name="hr01"/>
      <point x="553" y="-29"/>
      <point x="402" y="41"/>
      <point x="298" y="174" type="curve" smooth="yes"/>
      <point x="192" y="309"/>
      <point x="139" y="499"/>
      <point x="139" y="743" type="curve" smooth="yes" name="hr02"/>
      <point x="139" y="988"/>
      <point x="192" y="1178"/>
    </contour>
  </outline>
</glyph>
<glyph name="uni042B" format="1">
  <advance width="1233"/>
  <unicode hex="042B"/>
  <outline>
    <contour>
      <point x="65" y="1493" type="line" name="dh01"/>
      <point x="267" y="1493" type="line" name="dh02"/>
      <point x="267" y="893" type="line"/>
      <point x="358" y="893" type="line" smooth="yes" name="dv02"/>
      <point x="617" y="893" name="dh04"/>
      <point x="809" y="740" name="ab01"/>
      <point x="809" y="447" type="curve" smooth="yes"/>
      <point x="809" y="153" name="dh05"/>
      <point x="614" y="0" name="dh06"/>
      <point x="358" y="0" type="curve" smooth="yes" name="ab02"/>
      <point x="65" y="0" type="line"/>
    </contour>
    <contour>
      <point x="931" y="1493" type="line" name="sv01"/>
      <point x="1134" y="1493" type="line" name="dh03"/>
      <point x="1134" y="0" type="line" name="dv01"/>
      <point x="931" y="0" type="line" name="sh01"/>
    </contour>
    <contour>
      <point x="358" y="166" type="line" smooth="yes"/>
      <point x="494" y="166"/>
      <point x="598" y="246" name="sh02"/>
      <point x="598" y="446" type="curve" smooth="yes"/>
      <point x="598" y="625"/>
      <point x="518" y="727"/>
      <point x="358" y="727" type="curve" smooth="yes"/>
      <point x="267" y="727" type="line"/>
      <point x="267" y="166" type="line"/>
    </contour>
  </outline>
</glyph>
<glyph name="uni044A" format="1">
  <advance width="1233"/>
  <unicode hex="044A"/>
  <outline>
    <contour>
      <point x="308" y="970" type="line" name="sh01"/>
      <point x="60" y="970" type="line"/>
      <point x="60" y="1120" type="line" name="dh01"/>
      <point x="492" y="1120" type="line" name="dh02"/>
      <point x="492" y="667" type="line"/>
      <point x="748" y="667" type="line" smooth="yes" name="dv02"/>
      <point x="1027" y="667" name="dh04"/>
      <point x="1194" y="558" name="ab01"/>
      <point x="1194" y="331" type="curve" smooth="yes"/>
      <point x="1194" y="108" name="sv01"/>
      <point x="1033" y="0" name="dh03"/>
      <point x="748" y="0" type="curve" smooth="yes" name="dv01"/>
      <point x="308" y="0" type="line" name="sh02"/>
    </contour>
    <contour>
      <point x="740" y="156" type="line" smooth="yes"/>
      <point x="905" y="156"/>
      <point x="998" y="213" name="sh03"/>
      <point x="998" y="333" type="curve" smooth="yes"/>
      <point x="998" y="454"/>
      <point x="903" y="514"/>
      <point x="740" y="514" type="curve" smooth="yes" name="hr02"/>
      <point x="492" y="514" type="line"/>
      <point x="492" y="156" type="line" name="hr03"/>
    </contour>
  </outline>
</glyph>
<glyph name="uni044E" format="1">
  <advance width="1233"/>
  <unicode hex="044E"/>
  <outline>
    <contour>
      <point x="828" y="-29" type="curve" smooth="yes" name="dv01"/>
      <point x="620" y="-29" name="dh03"/>
      <point x="465" y="165"/>
      <point x="444" y="484" type="curve" name="dh02"/>
      <point x="302" y="484" type="line" name="dh01"/>
      <point x="302" y="0" type="line" name="at01"/>
      <point x="118" y="0" type="line" name="sh01"/>
      <point x="118" y="1120" type="line"/>
      <point x="302" y="1120" type="line" name="sh02"/>
      <point x="302" y="634" type="line" name="dv04"/>
      <point x="444" y="634" type="line" name="dh06"/>
      <point x="465" y="973"/>
      <point x="621" y="1147"/>
      <point x="824" y="1147" type="curve" smooth="yes" name="dv02"/>
      <point x="1037" y="1147"/>
      <point x="1208" y="956" name="dh05"/>
      <point x="1208" y="558" type="curve" smooth="yes"/>
      <point x="1208" y="151" name="dv03"/>
      <point x="1029" y="-29"/>
    </contour>
    <contour>
      <point x="689" y="243" type="curve" smooth="yes"/>
      <point x="725" y="164"/>
      <point x="774" y="126" name="sh03"/>
      <point x="825" y="126" type="curve" smooth="yes"/>
      <point x="877" y="126"/>
      <point x="928" y="168"/>
      <point x="963" y="252" type="curve" smooth="yes" name="hr01"/>
      <point x="994" y="328"/>
      <point x="1013" y="439"/>
      <point x="1013" y="574" type="curve" smooth="yes"/>
      <point x="1013" y="706"/>
      <point x="994" y="809"/>
      <point x="957" y="882" type="curve" smooth="yes"/>
      <point x="922" y="953"/>
      <point x="875" y="990"/>
      <point x="827" y="990" type="curve" smooth="yes"/>
      <point x="776" y="990"/>
      <point x="729" y="949"/>
      <point x="692" y="868" type="curve" smooth="yes"/>
      <point x="656" y="788"/>
      <point x="636" y="682"/>
      <point x="636" y="551" type="curve" smooth="yes"/>
      <point x="636" y="420"/>
      <point x="656" y="315"/>
    </contour>
  </outline>
</glyph>
<glyph name="uni045A" format="1">
  <advance width="1233"/>
  <unicode hex="045A"/>
  <outline>
    <contour>
      <point x="106" y="1120" type="line" name="dh01"/>
      <point x="274" y="1120" type="line" name="dh02"/>
      <point x="274" y="665" type="line" name="sv01"/>
      <point x="638" y="665" type="line" name="dh03"/>
      <point x="638" y="1120" type="line" name="at01"/>
      <point x="806" y="1120" type="line"/>
      <point x="806" y="667" type="line" name="dh04"/>
      <point x="827" y="667" type="line" smooth="yes"/>
      <point x="1039" y="667" name="dh06"/>
      <point x="1223" y="558" name="ab01"/>
      <point x="1223" y="331" type="curve" smooth="yes" name="sh01"/>
      <point x="1223" y="109" name="dv01"/>
      <point x="1046" y="0" name="sh02"/>
      <point x="827" y="0" type="curve" smooth="yes" name="ab02"/>
      <point x="638" y="0" type="line"/>
      <point x="638" y="515" type="line" name="sv02"/>
      <point x="274" y="515" type="line" name="dh05"/>
      <point x="274" y="0" type="line" name="sv03"/>
      <point x="106" y="0" type="line" name="sh03"/>
    </contour>
    <contour>
      <point x="819" y="153" type="line" smooth="yes"/>
      <point x="958" y="153"/>
      <point x="1027" y="213" name="sh04"/>
      <point x="1027" y="334" type="curve" smooth="yes"/>
      <point x="1027" y="454"/>
      <point x="958" y="514"/>
      <point x="819" y="514" type="curve" smooth="yes"/>
      <point x="806" y="514" type="line"/>
      <point x="806" y="153" type="line"/>
    </contour>
  </outline>
</glyph>
<glyph name="uni0494" format="1">
  <advance width="1233"/>
  <unicode hex="0494"/>
  <outline>
    <contour>
      <point x="589" y="-240" type="line" name="dh03"/>
      <point x="651" y="-240" type="line" smooth="yes" name="dv02"/>
      <point x="830" y="-240" name="sh01"/>
      <point x="896" y="-155"/>
      <point x="896" y="104" type="curve" smooth="yes" name="dv03"/>
      <point x="896" y="394" type="line" smooth="yes"/>
      <point x="896" y="605" name="dh02"/>
      <point x="813" y="711" name="dh01"/>
      <point x="648" y="711" type="curve" smooth="yes" name="at01"/>
      <point x="378" y="711" type="line" name="sh02"/>
      <point x="378" y="0" type="line" name="sv01"/>
      <point x="175" y="0" type="line" name="sh03"/>
      <point x="175" y="1493" type="line"/>
      <point x="1099" y="1493" type="line" name="dv04"/>
      <point x="1099" y="1323" type="line"/>
      <point x="378" y="1323" type="line"/>
      <point x="378" y="881" type="line" name="dh04"/>
      <point x="689" y="881" type="line" smooth="yes" name="dv01"/>
      <point x="814" y="881"/>
      <point x="914" y="841"/>
      <point x="988" y="762" type="curve" smooth="yes" name="sh04"/>
      <point x="1064" y="681"/>
      <point x="1099" y="570"/>
      <point x="1099" y="410" type="curve" smooth="yes" name="hr01"/>
      <point x="1099" y="104" type="line" smooth="yes"/>
      <point x="1099" y="-253"/>
      <point x="969" y="-410"/>
      <point x="665" y="-410" type="curve" smooth="yes"/>
      <point x="589" y="-410" type="line" name="hr02"/>
    </contour>
  </outline>
</glyph>
<glyph name="uni0497" format="1">
  <advance width="1233"/>
  <unicode hex="0497"/>
  <outline>
    <contour>
      <point x="1048" y="0" type="line" name="ah01"/>
      <point x="996" y="0" type="line"/>
      <point x="805" y="528" type="line" name="ih01"/>
      <point x="701" y="351" type="line"/>
      <point x="701" y="0" type="line" name="sh03"/>
      <point x="533" y="0" type="line" name="sh01"/>
      <point x="533" y="351" type="line"/>
      <point x="429" y="528" type="line" name="iv01"/>
      <point x="238" y="0" type="line" name="ab01"/>
      <point x="59" y="0" type="line" name="iv02"/>
      <point x="318" y="716" type="line"/>
      <point x="79" y="1120" type="line" name="at01"/>
      <point x="278" y="1120" type="line"/>
      <point x="533" y="688" type="line" name="sh04"/>
      <point x="533" y="1120" type="line" name="at02"/>
      <point x="701" y="1120" type="line" name="sh05"/>
      <point x="701" y="688" type="line" name="ih02"/>
      <point x="956" y="1120" type="line" name="at03"/>
      <point x="1155" y="1120" type="line" name="ih03"/>
      <point x="916" y="716" type="line"/>
      <point x="1121" y="150" type="line"/>
      <point x="1198" y="150" type="line" name="sh02"/>
      <point x="1198" y="-286" type="line" name="av01"/>
      <point x="1048" y="-286" type="line"/>
    </contour>
  </outline>
</glyph>
<glyph name="uni0498" format="1">
  <advance width="1233"/>
  <unicode hex="0498"/>
  <outline>
    <contour>
      <point x="1079" y="410" type="curve" smooth="yes" name="sh02"/>
      <point x="1079" y="164" name="ih01"/>
      <point x="922" y="5" name="dh02"/>
      <point x="648" y="-24" type="curve" name="dv01"/>
      <point x="708" y="-96"/>
      <point x="736" y="-153" name="dh01"/>
      <point x="736" y="-220" type="curve" smooth="yes" name="dv02"/>
      <point x="736" y="-333" name="sh03"/>
      <point x="656" y="-395" name="dv03"/>
      <point x="496" y="-395" type="curve" smooth="yes"/>
      <point x="439" y="-395"/>
      <point x="381" y="-387" name="dv04"/>
      <point x="322" y="-371" type="curve" name="sh01"/>
      <point x="322" y="-240" type="line" name="dv05"/>
      <point x="363" y="-263"/>
      <point x="420" y="-272"/>
      <point x="469" y="-272" type="curve" smooth="yes" name="dv06"/>
      <point x="557" y="-272" name="dh03"/>
      <point x="597" y="-239" name="sv01"/>
      <point x="597" y="-182" type="curve" smooth="yes"/>
      <point x="597" y="-145"/>
      <point x="580" y="-102" name="at01"/>
      <point x="529" y="-29" type="curve" name="dh04"/>
      <point x="404" y="-26" name="ih02"/>
      <point x="266" y="0"/>
      <point x="137" y="45" type="curve"/>
      <point x="137" y="246" type="line" name="sh04"/>
      <point x="274" y="174"/>
      <point x="404" y="141"/>
      <point x="532" y="141" type="curve" smooth="yes"/>
      <point x="757" y="141"/>
      <point x="879" y="245"/>
      <point x="879" y="426" type="curve" smooth="yes" name="hr02"/>
      <point x="879" y="608"/>
      <point x="752" y="715"/>
      <point x="549" y="715" type="curve" smooth="yes"/>
      <point x="395" y="715" type="line"/>
      <point x="395" y="881" type="line"/>
      <point x="549" y="881" type="line" smooth="yes"/>
      <point x="736" y="881"/>
      <point x="844" y="963"/>
      <point x="844" y="1118" type="curve" smooth="yes"/>
      <point x="844" y="1266"/>
      <point x="745" y="1350"/>
      <point x="557" y="1350" type="curve" smooth="yes"/>
      <point x="456" y="1350"/>
      <point x="326" y="1326"/>
      <point x="182" y="1270" type="curve" name="hr03"/>
      <point x="182" y="1456" type="line"/>
      <point x="343" y="1499"/>
      <point x="465" y="1520"/>
      <point x="569" y="1520" type="curve" smooth="yes"/>
      <point x="853" y="1520"/>
      <point x="1044" y="1361"/>
      <point x="1044" y="1122" type="curve" smooth="yes"/>
      <point x="1044" y="954"/>
      <point x="952" y="844"/>
      <point x="776" y="799" type="curve"/>
      <point x="973" y="747"/>
      <point x="1079" y="613"/>
    </contour>
  </outline>
</glyph>
<glyph name="uni04AF" format="1">
  <advance width="1233"/>
  <unicode hex="04AF"/>
  <outline>
    <contour>
      <point x="520" y="18" type="line" name="dh01"/>
      <point x="92" y="1120" type="line" name="at01"/>
      <point x="287" y="1120" type="line"/>
      <point x="616" y="244" type="line" name="ih01"/>
      <point x="945" y="1120" type="line" name="at02"/>
      <point x="1140" y="1120" type="line"/>
      <point x="712" y="18" type="line" name="dh02"/>
      <point x="712" y="-426" type="line" name="ab01"/>
      <point x="520" y="-426" type="line"/>
    </contour>
  </outline>
</glyph>
<glyph name="uni04C8" format="1">
  <advance width="1233"/>
  <unicode hex="04C8"/>
  <outline>
    <contour>
      <point x="523" y="-270" type="line" name="sv01"/>
      <point x="695" y="-270" type="line" smooth="yes"/>
      <point x="842" y="-270" name="ah02"/>
      <point x="876" y="-216" name="dv01"/>
      <point x="876" y="-20" type="curve" smooth="yes"/>
      <point x="876" y="505" type="line" name="sh02"/>
      <point x="389" y="505" type="line" name="sh01"/>
      <point x="389" y="0" type="line" name="at01"/>
      <point x="205" y="0" type="line" name="sh03"/>
      <point x="205" y="1120" type="line"/>
      <point x="389" y="1120" type="line" name="sh04"/>
      <point x="389" y="675" type="line" name="at02"/>
      <point x="876" y="675" type="line"/>
      <point x="876" y="1120" type="line" name="sh05"/>
      <point x="1060" y="1120" type="line" name="ab01"/>
      <point x="1060" y="-20" type="line" smooth="yes"/>
      <point x="1060" y="-304" name="ah01"/>
      <point x="956" y="-426" name="sh06"/>
      <point x="716" y="-426" type="curve" smooth="yes"/>
      <point x="523" y="-426" type="line"/>
    </contour>
  </outline>
</glyph>
<glyph name="uni04F2" format="1">
  <advance width="1233"/>
  <unicode hex="04F2"/>
  <outline>
    <contour>
      <point x="561" y="1852" type="line" name="dv02"/>
      <point x="747" y="1852" type="line"/>
      <point x="518" y="1588" type="line" name="dv01"/>
      <point x="364" y="1588" type="line"/>
    </contour>
    <contour>
      <point x="880" y="1852" type="line" name="sv01"/>
      <point x="1066" y="1852" type="line"/>
      <point x="837" y="1588" type="line" name="sv02"/>
      <point x="683" y="1588" type="line"/>
    </contour>
    <contour>
      <point x="204" y="172" type="line" name="sv03"/>
      <point x="313" y="172" type="line" smooth="yes"/>
      <point x="422" y="172"/>
      <point x="473" y="240"/>
      <point x="519" y="342" type="curve" smooth="yes" name="at01"/>
      <point x="528" y="363"/>
      <point x="533" y="377" name="iv01"/>
      <point x="548" y="416" type="curve" name="at02"/>
      <point x="124" y="1493" type="line"/>
      <point x="341" y="1493" type="line"/>
      <point x="652" y="663" type="line"/>
      <point x="960" y="1493" type="line" name="ab01"/>
      <point x="1173" y="1493" type="line"/>
      <point x="761" y="425" type="line" smooth="yes"/>
      <point x="721" y="321"/>
      <point x="677" y="224"/>
      <point x="633" y="156" type="curve" smooth="yes"/>
      <point x="572" y="63"/>
      <point x="489" y="0"/>
      <point x="352" y="0" type="curve" smooth="yes"/>
      <point x="204" y="0" type="line"/>
    </contour>
  </outline>
</glyph>
<glyph name="uni04F3" format="1">
  <advance width="1233"/>
  <unicode hex="04F3"/>
  <outline>
    <contour>
      <point x="535" y="1648" type="line" name="dv02"/>
      <point x="705" y="1648" type="line"/>
      <point x="481" y="1272" type="line" name="dv01"/>
      <point x="344" y="1272" type="line"/>
    </contour>
    <contour>
      <point x="868" y="1648" type="line" name="sv01"/>
      <point x="1047" y="1648" type="line"/>
      <point x="799" y="1272" type="line" name="sv02"/>
      <point x="664" y="1272" type="line"/>
    </contour>
    <contour>
      <point x="184" y="-272" type="line" name="sv03"/>
      <point x="293" y="-272" type="line" smooth="yes"/>
      <point x="353" y="-272"/>
      <point x="393" y="-252"/>
      <point x="420" y="-225" type="curve" smooth="yes" name="at01"/>
      <point x="450" y="-195"/>
      <point x="484" y="-126" name="iv01"/>
      <point x="537" y="18" type="curve" name="at02"/>
      <point x="104" y="1120" type="line"/>
      <point x="299" y="1120" type="line"/>
      <point x="631" y="244" type="line"/>
      <point x="958" y="1120" type="line"/>
      <point x="1153" y="1120" type="line" name="ab01"/>
      <point x="858" y="360" type="line"/>
      <point x="782" y="169"/>
      <point x="801" y="208"/>
      <point x="741" y="52" type="curve"/>
      <point x="672" y="-132"/>
      <point x="639" y="-217"/>
      <point x="607" y="-270" type="curve" smooth="yes"/>
      <point x="548" y="-370"/>
      <point x="465" y="-426"/>
      <point x="332" y="-426" type="curve" smooth="yes"/>
      <point x="184" y="-426" type="line"/>
    </contour>
  </outline>
</glyph>
<glyph name="uni04F4" format="1">
  <advance width="1233"/>
  <unicode hex="04F4"/>
  <outline>
    <contour>
      <point x="339" y="1649" type="line" smooth="yes" name="dv01"/>
      <point x="319" y="1649" name="ih01"/>
      <point x="309" y="1659"/>
      <point x="309" y="1679" type="curve" smooth="yes" name="dv02"/>
      <point x="309" y="1822" type="line" smooth="yes"/>
      <point x="309" y="1842"/>
      <point x="319" y="1852" name="sh01"/>
      <point x="339" y="1852" type="curve" smooth="yes"/>
      <point x="482" y="1852" type="line" smooth="yes" name="sv01"/>
      <point x="502" y="1852" name="dh03"/>
      <point x="512" y="1842"/>
      <point x="512" y="1822" type="curve" smooth="yes" name="sv02"/>
      <point x="512" y="1679" type="line" smooth="yes"/>
      <point x="512" y="1659"/>
      <point x="502" y="1649" name="dh04"/>
      <point x="482" y="1649" type="curve" smooth="yes"/>
    </contour>
    <contour>
      <point x="731" y="1649" type="line" smooth="yes" name="ih02"/>
      <point x="711" y="1649" name="dv03"/>
      <point x="701" y="1659" name="dh01"/>
      <point x="701" y="1679" type="curve" smooth="yes" name="at01"/>
      <point x="701" y="1822" type="line" smooth="yes"/>
      <point x="701" y="1842" name="dh02"/>
      <point x="711" y="1852" name="dv04"/>
      <point x="731" y="1852" type="curve" smooth="yes" name="sh02"/>
      <point x="873" y="1852" type="line" smooth="yes" name="at02"/>
      <point x="893" y="1852"/>
      <point x="903" y="1842" name="sh03"/>
      <point x="903" y="1822" type="curve" smooth="yes" name="ih03"/>
      <point x="903" y="1679" type="line" smooth="yes"/>
      <point x="903" y="1659" name="sh04"/>
      <point x="893" y="1649"/>
      <point x="873" y="1649" type="curve" smooth="yes"/>
    </contour>
    <contour>
      <point x="879" y="658" type="line"/>
      <point x="740" y="589"/>
      <point x="654" y="577"/>
      <point x="534" y="577" type="curve" smooth="yes"/>
      <point x="313" y="577"/>
      <point x="127" y="618"/>
      <point x="127" y="980" type="curve" smooth="yes"/>
      <point x="127" y="1493" type="line"/>
      <point x="330" y="1493" type="line"/>
      <point x="330" y="1006" type="line" smooth="yes"/>
      <point x="330" y="782"/>
      <point x="405" y="763"/>
      <point x="577" y="763" type="curve" smooth="yes"/>
      <point x="699" y="763"/>
      <point x="764" y="773"/>
      <point x="879" y="861" type="curve"/>
      <point x="879" y="1493" type="line"/>
      <point x="1082" y="1493" type="line"/>
      <point x="1082" y="0" type="line"/>
      <point x="879" y="0" type="line"/>
    </contour>
  </outline>
</glyph>
<glyph name="uni04F9" format="1">
  <advance width="1233"/>
  <unicode hex="04F9"/>
  <outline>
    <contour>
      <point x="349" y="1321" type="line" smooth="yes" name="dv01"/>
      <point x="329" y="1321" name="dh03"/>
      <point x="319" y="1331"/>
      <point x="319" y="1351" type="curve" smooth="yes" name="dv02"/>
      <point x="319" y="1493" type="line" smooth="yes"/>
      <point x="319" y="1513"/>
      <point x="329" y="1523" name="dh04"/>
      <point x="349" y="1523" type="curve" smooth="yes"/>
      <point x="492" y="1523" type="line" smooth="yes" name="sv01"/>
      <point x="512" y="1523" name="ih01"/>
      <point x="522" y="1513"/>
      <point x="522" y="1493" type="curve" smooth="yes" name="sv02"/>
      <point x="522" y="1351" type="line" smooth="yes"/>
      <point x="522" y="1331"/>
      <point x="512" y="1321" name="sh01"/>
      <point x="492" y="1321" type="curve" smooth="yes"/>
    </contour>
    <contour>
      <point x="741" y="1321" type="line" smooth="yes" name="dh01"/>
      <point x="721" y="1321" name="dh02"/>
      <point x="711" y="1331"/>
      <point x="711" y="1351" type="curve" smooth="yes" name="dv04"/>
      <point x="711" y="1493" type="line" smooth="yes" name="dh06"/>
      <point x="711" y="1513" name="ab01"/>
      <point x="721" y="1523"/>
      <point x="741" y="1523" type="curve" smooth="yes" name="dh07"/>
      <point x="883" y="1523" type="line" smooth="yes" name="dh08"/>
      <point x="903" y="1523" name="ab02"/>
      <point x="913" y="1513"/>
      <point x="913" y="1493" type="curve" smooth="yes" name="sv03"/>
      <point x="913" y="1351" type="line" smooth="yes" name="dh05"/>
      <point x="913" y="1331" name="dv03"/>
      <point x="903" y="1321" name="sh02"/>
      <point x="883" y="1321" type="curve" smooth="yes"/>
    </contour>
    <contour>
      <point x="104" y="1120" type="line"/>
      <point x="286" y="1120" type="line" name="sh03"/>
      <point x="286" y="667" type="line"/>
      <point x="377" y="667" type="line" smooth="yes"/>
      <point x="656" y="667"/>
      <point x="823" y="558"/>
      <point x="823" y="331" type="curve" smooth="yes"/>
      <point x="823" y="108"/>
      <point x="662" y="0"/>
      <point x="377" y="0" type="curve" smooth="yes"/>
      <point x="104" y="0" type="line"/>
    </contour>
    <contour>
      <point x="945" y="1120" type="line"/>
      <point x="1129" y="1120" type="line"/>
      <point x="1129" y="0" type="line"/>
      <point x="945" y="0" type="line"/>
    </contour>
    <contour>
      <point x="369" y="154" type="line" smooth="yes"/>
      <point x="534" y="154"/>
      <point x="627" y="212"/>
      <point x="627" y="333" type="curve" smooth="yes"/>
      <point x="627" y="456"/>
      <point x="532" y="516"/>
      <point x="369" y="516" type="curve" smooth="yes"/>
      <point x="286" y="516" type="line"/>
      <point x="286" y="154" type="line"/>
    </contour>
  </outline>
</glyph>
<glyph name="uni051B" format="1">
  <advance width="1233"/>
  <unicode hex="051B"/>
  <outline>
    <contour>
      <point x="865" y="139" type="line" name="iv01"/>
      <point x="804" y="26" name="dv01"/>
      <point x="703" y="-33" name="sh01"/>
      <point x="563" y="-33" type="curve" smooth="yes" name="at02"/>
      <point x="298" y="-33" name="sh02"/>
      <point x="132" y="187" name="at01"/>
      <point x="132" y="554" type="curve" smooth="yes"/>
      <point x="132" y="920" name="sh03"/>
      <point x="298" y="1143" name="ah02"/>
      <point x="563" y="1143" type="curve" smooth="yes" name="dv02"/>
      <point x="700" y="1143" name="sh04"/>
      <point x="804" y="1085" name="sv01"/>
      <point x="865" y="973" type="curve" name="sh05"/>
      <point x="883" y="1116" type="line"/>
      <point x="1050" y="1116" type="line" name="ah01"/>
      <point x="1050" y="-430" type="line" name="sh06"/>
      <point x="865" y="-430" type="line"/>
    </contour>
    <contour>
      <point x="595" y="123" type="curve" smooth="yes"/>
      <point x="774" y="123"/>
      <point x="865" y="270"/>
      <point x="865" y="555" type="curve" smooth="yes" name="hr01"/>
      <point x="865" y="840"/>
      <point x="774" y="987"/>
      <point x="595" y="987" type="curve" smooth="yes"/>
      <point x="416" y="987"/>
      <point x="327" y="842"/>
      <point x="327" y="555" type="curve" smooth="yes"/>
      <point x="327" y="268"/>
      <point x="416" y="123"/>
    </contour>
  </outline>
</glyph>
<glyph name="uni0533" format="1">
  <advance width="1233"/>
  <unicode hex="0533"/>
  <outline>
    <contour>
      <point x="821" y="451" type="line" name="ah02"/>
      <point x="552" y="451" type="line" smooth="yes"/>
      <point x="405" y="451"/>
      <point x="291" y="494" name="sh01"/>
      <point x="212" y="579" type="curve" smooth="yes"/>
      <point x="131" y="667" name="at01"/>
      <point x="85" y="796"/>
      <point x="85" y="991" type="curve" smooth="yes" name="sh03"/>
      <point x="85" y="1178" name="sv01"/>
      <point x="128" y="1312"/>
      <point x="208" y="1397" type="curve" smooth="yes" name="sv02"/>
      <point x="288" y="1482" name="sh02"/>
      <point x="403" y="1520" name="ab01"/>
      <point x="552" y="1520" type="curve" smooth="yes"/>
      <point x="700" y="1520" name="sh04"/>
      <point x="817" y="1482"/>
      <point x="898" y="1397" type="curve" smooth="yes"/>
      <point x="978" y="1312" name="sv03"/>
      <point x="1023" y="1180"/>
      <point x="1023" y="988" type="curve" smooth="yes" name="sh05"/>
      <point x="1023" y="621" type="line"/>
      <point x="1148" y="621" type="line"/>
      <point x="1148" y="451" type="line" name="ah01"/>
      <point x="1023" y="451" type="line" name="sh06"/>
      <point x="1023" y="0" type="line"/>
      <point x="821" y="0" type="line"/>
    </contour>
    <contour>
      <point x="821" y="621" type="line"/>
      <point x="821" y="1058" type="line" smooth="yes"/>
      <point x="821" y="1131"/>
      <point x="811" y="1206"/>
      <point x="772" y="1262" type="curve" smooth="yes"/>
      <point x="733" y="1318"/>
      <point x="666" y="1356"/>
      <point x="551" y="1356" type="curve" smooth="yes"/>
      <point x="436" y="1356"/>
      <point x="371" y="1318"/>
      <point x="334" y="1253" type="curve" smooth="yes"/>
      <point x="297" y="1188"/>
      <point x="287" y="1096"/>
      <point x="287" y="988" type="curve" smooth="yes"/>
      <point x="287" y="880"/>
      <point x="297" y="788"/>
      <point x="334" y="724" type="curve" smooth="yes"/>
      <point x="371" y="659"/>
      <point x="436" y="621"/>
      <point x="552" y="621" type="curve" smooth="yes"/>
    </contour>
  </outline>
</glyph>
<glyph name="uni0536" format="1">
  <advance width="1233"/>
  <unicode hex="0536"/>
  <outline>
    <contour>
      <point x="140" y="331" type="line" name="ih01"/>
      <point x="343" y="331" type="line" name="sh01"/>
      <point x="343" y="170" type="line" name="sv01"/>
      <point x="394" y="170" type="line" smooth="yes"/>
      <point x="463" y="170"/>
      <point x="541" y="204"/>
      <point x="620" y="265" type="curve" smooth="yes" name="dh03"/>
      <point x="701" y="329"/>
      <point x="778" y="415" name="sv02"/>
      <point x="834" y="522" type="curve" smooth="yes"/>
      <point x="898" y="642"/>
      <point x="926" y="767" name="dh02"/>
      <point x="926" y="922" type="curve" smooth="yes" name="dh01"/>
      <point x="926" y="1050"/>
      <point x="906" y="1171"/>
      <point x="850" y="1252" type="curve" smooth="yes" name="at01"/>
      <point x="799" y="1324"/>
      <point x="729" y="1356" name="dh04"/>
      <point x="614" y="1356" type="curve" smooth="yes"/>
      <point x="503" y="1356"/>
      <point x="427" y="1326" name="ih02"/>
      <point x="375" y="1253" type="curve" smooth="yes" name="sv03"/>
      <point x="323" y="1180" name="ab01"/>
      <point x="299" y="1066"/>
      <point x="299" y="895" type="curve" smooth="yes" name="hr01"/>
      <point x="299" y="875" type="line" name="sh02"/>
      <point x="96" y="875" type="line"/>
      <point x="96" y="895" type="line" smooth="yes"/>
      <point x="96" y="1126"/>
      <point x="153" y="1280"/>
      <point x="245" y="1380" type="curve" smooth="yes"/>
      <point x="337" y="1480"/>
      <point x="464" y="1520"/>
      <point x="612" y="1520" type="curve" smooth="yes"/>
      <point x="764" y="1520"/>
      <point x="886" y="1478"/>
      <point x="981" y="1379" type="curve" smooth="yes"/>
      <point x="1085" y="1271"/>
      <point x="1137" y="1111"/>
      <point x="1137" y="911" type="curve" smooth="yes"/>
      <point x="1137" y="771"/>
      <point x="1111" y="656"/>
      <point x="1066" y="551" type="curve" smooth="yes"/>
      <point x="1025" y="455"/>
      <point x="967" y="366"/>
      <point x="906" y="298" type="curve" smooth="yes"/>
      <point x="846" y="230"/>
      <point x="786" y="187"/>
      <point x="738" y="170" type="curve"/>
      <point x="1097" y="170" type="line" name="hr02"/>
      <point x="1097" y="0" type="line" name="hr03"/>
      <point x="140" y="0" type="line"/>
    </contour>
  </outline>
</glyph>
<glyph name="uni053F" format="1">
  <advance width="1233"/>
  <unicode hex="053F"/>
  <outline>
    <contour>
      <point x="883" y="431" type="line" name="iv01"/>
      <point x="811" y="383" name="dv01"/>
      <point x="730" y="352"/>
      <point x="607" y="352" type="curve" smooth="yes" name="sh01"/>
      <point x="466" y="352" name="at01"/>
      <point x="351" y="394"/>
      <point x="272" y="471" type="curve" smooth="yes" name="sh02"/>
      <point x="191" y="551"/>
      <point x="147" y="671" name="dv02"/>
      <point x="147" y="838" type="curve" smooth="yes"/>
      <point x="147" y="1493" type="line" name="sh03"/>
      <point x="349" y="1493" type="line" name="at02"/>
      <point x="349" y="776" type="line" smooth="yes"/>
      <point x="349" y="716" name="sh04"/>
      <point x="358" y="653" name="ah02"/>
      <point x="397" y="602" type="curve" smooth="yes" name="ah01"/>
      <point x="436" y="551" name="sh05"/>
      <point x="500" y="516"/>
      <point x="615" y="516" type="curve" smooth="yes"/>
      <point x="730" y="516"/>
      <point x="796" y="551"/>
      <point x="835" y="602" type="curve" smooth="yes"/>
      <point x="874" y="653"/>
      <point x="883" y="716"/>
      <point x="883" y="776" type="curve" smooth="yes"/>
      <point x="883" y="1120" type="line"/>
      <point x="1085" y="1120" type="line"/>
      <point x="1085" y="0" type="line"/>
      <point x="883" y="0" type="line"/>
    </contour>
  </outline>
</glyph>
<glyph name="uni0549" format="1">
  <advance width="1233"/>
  <unicode hex="0549"/>
  <outline>
    <contour>
      <point x="200" y="267" type="line" name="hr00"/>
      <point x="200" y="479" type="line" name="ih01"/>
      <point x="438" y="378" type="line" smooth="yes"/>
      <point x="480" y="360"/>
      <point x="549" y="344"/>
      <point x="604" y="344" type="curve" smooth="yes"/>
      <point x="708" y="344" name="ah02"/>
      <point x="788" y="399"/>
      <point x="841" y="494" type="curve" smooth="yes" name="sv01"/>
      <point x="868" y="541"/>
      <point x="889" y="601"/>
      <point x="904" y="668" type="curve" smooth="yes" name="sh02"/>
      <point x="919" y="733" name="sh01"/>
      <point x="926" y="810"/>
      <point x="926" y="897" type="curve" smooth="yes"/>
      <point x="926" y="1061" name="at01"/>
      <point x="900" y="1179"/>
      <point x="849" y="1251" type="curve" smooth="yes" name="sh03"/>
      <point x="797" y="1324"/>
      <point x="720" y="1356" name="sh04"/>
      <point x="609" y="1356" type="curve" smooth="yes" name="ih02"/>
      <point x="502" y="1356"/>
      <point x="425" y="1326" name="ih03"/>
      <point x="374" y="1253" type="curve" smooth="yes" name="ah01"/>
      <point x="322" y="1180" name="sh05"/>
      <point x="299" y="1066"/>
      <point x="299" y="895" type="curve" smooth="yes"/>
      <point x="299" y="873" type="line"/>
      <point x="96" y="873" type="line"/>
      <point x="96" y="895" type="line" smooth="yes"/>
      <point x="96" y="1126"/>
      <point x="153" y="1280"/>
      <point x="245" y="1380" type="curve" smooth="yes"/>
      <point x="337" y="1479"/>
      <point x="467" y="1520"/>
      <point x="608" y="1520" type="curve" smooth="yes"/>
      <point x="756" y="1520"/>
      <point x="886" y="1476"/>
      <point x="982" y="1376" type="curve" smooth="yes"/>
      <point x="1077" y="1276"/>
      <point x="1137" y="1121"/>
      <point x="1137" y="894" type="curve" smooth="yes"/>
      <point x="1137" y="745"/>
      <point x="1111" y="624"/>
      <point x="1070" y="528" type="curve" smooth="yes"/>
      <point x="1029" y="432"/>
      <point x="975" y="363"/>
      <point x="915" y="318" type="curve" smooth="yes"/>
      <point x="855" y="273"/>
      <point x="794" y="251"/>
      <point x="741" y="251" type="curve"/>
      <point x="973" y="152" type="line"/>
      <point x="973" y="-58" type="line"/>
    </contour>
  </outline>
</glyph>
<glyph name="uni054A" format="1">
  <advance width="1233"/>
  <unicode hex="054A"/>
  <outline>
    <contour>
      <point x="958" y="917" type="line" smooth="yes" name="dh05"/>
      <point x="958" y="1022"/>
      <point x="951" y="1124"/>
      <point x="912" y="1204" type="curve" smooth="yes" name="dh04"/>
      <point x="873" y="1283" name="dh03"/>
      <point x="807" y="1339"/>
      <point x="691" y="1351" type="curve"/>
      <point x="691" y="475" type="line"/>
      <point x="501" y="475" type="line" name="dh02"/>
      <point x="501" y="1351" type="line" name="dh01"/>
      <point x="385" y="1335"/>
      <point x="321" y="1286"/>
      <point x="282" y="1210" type="curve" smooth="yes" name="at01"/>
      <point x="243" y="1134"/>
      <point x="235" y="1034" name="dh06"/>
      <point x="235" y="917" type="curve" smooth="yes" name="ab01"/>
      <point x="235" y="875" type="line"/>
      <point x="45" y="875" type="line"/>
      <point x="45" y="932" type="line" smooth="yes" name="sh01"/>
      <point x="45" y="1107"/>
      <point x="85" y="1252"/>
      <point x="174" y="1356" type="curve" smooth="yes"/>
      <point x="263" y="1460"/>
      <point x="397" y="1520"/>
      <point x="601" y="1520" type="curve" smooth="yes"/>
      <point x="804" y="1520"/>
      <point x="942" y="1460"/>
      <point x="1029" y="1356" type="curve" smooth="yes"/>
      <point x="1116" y="1252"/>
      <point x="1148" y="1107"/>
      <point x="1148" y="932" type="curve" smooth="yes"/>
      <point x="1148" y="0" type="line"/>
      <point x="958" y="0" type="line"/>
    </contour>
  </outline>
</glyph>
<glyph name="uni054B" format="1">
  <advance width="1233"/>
  <unicode hex="054B"/>
  <outline>
    <contour>
      <point x="139" y="332" type="line" name="ih01"/>
      <point x="342" y="332" type="line" name="sh01"/>
      <point x="342" y="170" type="line" name="sv01"/>
      <point x="382" y="170" type="line" smooth="yes"/>
      <point x="462" y="170"/>
      <point x="544" y="202" name="dh03"/>
      <point x="620" y="259" type="curve"/>
      <point x="636" y="328" name="dv01"/>
      <point x="646" y="391"/>
      <point x="646" y="447" type="curve" smooth="yes"/>
      <point x="646" y="515" name="dh01"/>
      <point x="632" y="569"/>
      <point x="600" y="608" type="curve" smooth="yes"/>
      <point x="554" y="662" name="at01"/>
      <point x="488" y="664"/>
      <point x="442" y="667" type="curve" name="dh06"/>
      <point x="361" y="670"/>
      <point x="273" y="674" name="ih02"/>
      <point x="200" y="721" type="curve" smooth="yes" name="sv02"/>
      <point x="149" y="753" name="ab01"/>
      <point x="124" y="796"/>
      <point x="109" y="847" type="curve" smooth="yes" name="sh02"/>
      <point x="97" y="890" name="dh05"/>
      <point x="96" y="932"/>
      <point x="96" y="960" type="curve" smooth="yes" name="sv03"/>
      <point x="96" y="1060"/>
      <point x="109" y="1144"/>
      <point x="141" y="1224" type="curve" smooth="yes" name="dh02"/>
      <point x="174" y="1307"/>
      <point x="225" y="1379" name="dv02"/>
      <point x="300" y="1432" type="curve" smooth="yes" name="hr01"/>
      <point x="376" y="1487" name="dh04"/>
      <point x="474" y="1520"/>
      <point x="611" y="1520" type="curve" smooth="yes"/>
      <point x="811" y="1520" name="sh03"/>
      <point x="939" y="1446"/>
      <point x="1020" y="1333" type="curve" smooth="yes"/>
      <point x="1103" y="1215"/>
      <point x="1136" y="1059"/>
      <point x="1136" y="912" type="curve" smooth="yes"/>
      <point x="1136" y="725"/>
      <point x="1085" y="572"/>
      <point x="1013" y="448" type="curve" smooth="yes"/>
      <point x="938" y="321"/>
      <point x="837" y="218"/>
      <point x="737" y="170" type="curve"/>
      <point x="1096" y="170" type="line"/>
      <point x="1096" y="0" type="line"/>
      <point x="139" y="0" type="line"/>
    </contour>
    <contour>
      <point x="776" y="423" type="curve"/>
      <point x="870" y="563"/>
      <point x="925" y="708"/>
      <point x="925" y="916" type="curve" smooth="yes" name="hr02"/>
      <point x="925" y="1024"/>
      <point x="910" y="1146"/>
      <point x="865" y="1226" type="curve" smooth="yes"/>
      <point x="818" y="1310"/>
      <point x="735" y="1356"/>
      <point x="614" y="1356" type="curve" smooth="yes"/>
      <point x="526" y="1356"/>
      <point x="466" y="1333"/>
      <point x="422" y="1298" type="curve" smooth="yes"/>
      <point x="373" y="1259"/>
      <point x="344" y="1209"/>
      <point x="327" y="1161" type="curve" smooth="yes"/>
      <point x="310" y="1112"/>
      <point x="301" y="1058"/>
      <point x="301" y="997" type="curve" smooth="yes"/>
      <point x="301" y="952"/>
      <point x="306" y="909"/>
      <point x="331" y="882" type="curve" smooth="yes"/>
      <point x="363" y="846"/>
      <point x="418" y="843"/>
      <point x="483" y="842" type="curve"/>
      <point x="545" y="839"/>
      <point x="638" y="831"/>
      <point x="708" y="745" type="curve" smooth="yes" name="hr03"/>
      <point x="757" y="684"/>
      <point x="782" y="601"/>
      <point x="782" y="505" type="curve" smooth="yes" name="hr04"/>
      <point x="782" y="478"/>
      <point x="780" y="451"/>
    </contour>
  </outline>
</glyph>
<glyph name="uni0553" format="1">
  <advance width="1233"/>
  <unicode hex="0553"/>
  <outline>
    <contour>
      <point x="518" y="158" type="line" name="dh03"/>
      <point x="342" y="166"/>
      <point x="230" y="221" name="dh01"/>
      <point x="159" y="329" type="curve" smooth="yes"/>
      <point x="95" y="428" name="sh01"/>
      <point x="70" y="563" name="at01"/>
      <point x="70" y="763" type="curve" smooth="yes" name="sh02"/>
      <point x="70" y="952" name="sv01"/>
      <point x="92" y="1098"/>
      <point x="160" y="1202" type="curve" smooth="yes" name="dh06"/>
      <point x="228" y="1307"/>
      <point x="338" y="1364" name="dh04"/>
      <point x="518" y="1371" type="curve" name="ab01"/>
      <point x="518" y="1493" type="line"/>
      <point x="711" y="1493" type="line" name="sh03"/>
      <point x="711" y="1371" type="line"/>
      <point x="891" y="1364" name="dh02"/>
      <point x="1003" y="1306"/>
      <point x="1071" y="1202" type="curve" smooth="yes" name="sv02"/>
      <point x="1139" y="1098" name="sh04"/>
      <point x="1162" y="952"/>
      <point x="1162" y="765" type="curve" smooth="yes" name="dh05"/>
      <point x="1162" y="578"/>
      <point x="1139" y="431" name="sv03"/>
      <point x="1071" y="327" type="curve" smooth="yes"/>
      <point x="1003" y="223" name="sh05"/>
      <point x="891" y="164"/>
      <point x="711" y="157" type="curve"/>
      <point x="711" y="0" type="line"/>
      <point x="518" y="0" type="line"/>
    </contour>
    <contour>
      <point x="518" y="1203" type="line"/>
      <point x="421" y="1199"/>
      <point x="358" y="1170"/>
      <point x="319" y="1102" type="curve" smooth="yes"/>
      <point x="279" y="1033"/>
      <point x="265" y="925"/>
      <point x="265" y="766" type="curve" smooth="yes"/>
      <point x="265" y="606"/>
      <point x="279" y="498"/>
      <point x="320" y="423" type="curve" smooth="yes"/>
      <point x="359" y="351"/>
      <point x="419" y="320"/>
      <point x="518" y="316" type="curve"/>
    </contour>
    <contour>
      <point x="711" y="316" type="line"/>
      <point x="808" y="320"/>
      <point x="872" y="352"/>
      <point x="911" y="424" type="curve" smooth="yes"/>
      <point x="950" y="496"/>
      <point x="964" y="604"/>
      <point x="964" y="765" type="curve" smooth="yes"/>
      <point x="964" y="926"/>
      <point x="950" y="1033"/>
      <point x="911" y="1102" type="curve" smooth="yes"/>
      <point x="872" y="1170"/>
      <point x="808" y="1199"/>
      <point x="711" y="1203" type="curve"/>
    </contour>
  </outline>
</glyph>
<glyph name="uni0554" format="1">
  <advance width="1233"/>
  <unicode hex="0554"/>
  <outline>
    <contour>
      <point x="227" y="244" type="line" name="sh01"/>
      <point x="36" y="244" type="line"/>
      <point x="36" y="419" type="line"/>
      <point x="227" y="419" type="line" name="sh02"/>
      <point x="227" y="1080" type="line" smooth="yes"/>
      <point x="227" y="1208"/>
      <point x="263" y="1315" name="at01"/>
      <point x="340" y="1395" type="curve"/>
      <point x="420" y="1476" name="sh03"/>
      <point x="536" y="1520"/>
      <point x="696" y="1520" type="curve" smooth="yes" name="dv01"/>
      <point x="864" y="1520"/>
      <point x="979" y="1473" name="sh05"/>
      <point x="1055" y="1393" type="curve" smooth="yes" name="sv01"/>
      <point x="1131" y="1313" name="sh06"/>
      <point x="1166" y="1205" name="sv02"/>
      <point x="1166" y="1076" type="curve" smooth="yes" name="sh04"/>
      <point x="1166" y="947" name="ab01"/>
      <point x="1131" y="841"/>
      <point x="1054" y="761" type="curve" smooth="yes" name="dv02"/>
      <point x="979" y="685"/>
      <point x="867" y="634" name="ah02"/>
      <point x="716" y="634" type="curve" smooth="yes"/>
      <point x="656" y="634"/>
      <point x="605" y="642" name="sv03"/>
      <point x="554" y="661" type="curve" smooth="yes"/>
      <point x="498" y="682" name="sh07"/>
      <point x="456" y="710"/>
      <point x="429" y="745" type="curve"/>
      <point x="429" y="419" type="line" name="ah01"/>
      <point x="1153" y="419" type="line" name="sh08"/>
      <point x="1153" y="244" type="line"/>
      <point x="429" y="244" type="line"/>
      <point x="429" y="0" type="line"/>
      <point x="227" y="0" type="line"/>
    </contour>
    <contour>
      <point x="706" y="798" type="curve" smooth="yes"/>
      <point x="810" y="798"/>
      <point x="873" y="828"/>
      <point x="910" y="873" type="curve" smooth="yes"/>
      <point x="949" y="921"/>
      <point x="963" y="992"/>
      <point x="963" y="1077" type="curve" smooth="yes"/>
      <point x="963" y="1162"/>
      <point x="949" y="1230"/>
      <point x="909" y="1279" type="curve" smooth="yes"/>
      <point x="889" y="1304"/>
      <point x="862" y="1323"/>
      <point x="828" y="1336" type="curve" smooth="yes"/>
      <point x="792" y="1349"/>
      <point x="749" y="1356"/>
      <point x="698" y="1356" type="curve" smooth="yes"/>
      <point x="594" y="1356"/>
      <point x="527" y="1328"/>
      <point x="486" y="1280" type="curve" smooth="yes"/>
      <point x="445" y="1232"/>
      <point x="430" y="1163"/>
      <point x="430" y="1083" type="curve" smooth="yes"/>
      <point x="430" y="995"/>
      <point x="448" y="929"/>
      <point x="491" y="878" type="curve" smooth="yes"/>
      <point x="534" y="827"/>
      <point x="602" y="798"/>
    </contour>
  </outline>
</glyph>
<glyph name="uni0561" format="1">
  <advance width="1233"/>
  <unicode hex="0561"/>
  <outline>
    <contour>
      <point x="344" y="-27" type="curve" smooth="yes" name="ab01"/>
      <point x="261" y="-27"/>
      <point x="200" y="-3" name="dh01"/>
      <point x="159" y="76" type="curve" smooth="yes" name="at01"/>
      <point x="121" y="148"/>
      <point x="103" y="263" name="dh02"/>
      <point x="103" y="471" type="curve" smooth="yes" name="sh01"/>
      <point x="103" y="1120" type="line" name="sv01"/>
      <point x="271" y="1120" type="line" name="hr01"/>
      <point x="271" y="479" type="line" smooth="yes" name="dh03"/>
      <point x="271" y="400" name="at02"/>
      <point x="273" y="336"/>
      <point x="277" y="287" type="curve" smooth="yes" name="dh04"/>
      <point x="285" y="188"/>
      <point x="298" y="127" name="sv02"/>
      <point x="394" y="127" type="curve" smooth="yes"/>
      <point x="454" y="127" name="sh02"/>
      <point x="483" y="149" name="at03"/>
      <point x="502" y="188" type="curve" smooth="yes"/>
      <point x="523" y="231" name="dh06"/>
      <point x="533" y="315" name="dh05"/>
      <point x="533" y="479" type="curve" smooth="yes" name="iv01"/>
      <point x="533" y="1120" type="line" name="ab02"/>
      <point x="701" y="1120" type="line" name="ih01"/>
      <point x="701" y="479" type="line" smooth="yes"/>
      <point x="701" y="281"/>
      <point x="714" y="218" name="sh03"/>
      <point x="730" y="183" type="curve" smooth="yes"/>
      <point x="747" y="148"/>
      <point x="779" y="127"/>
      <point x="832" y="127" type="curve" smooth="yes"/>
      <point x="889" y="127"/>
      <point x="916" y="152"/>
      <point x="932" y="188" type="curve" smooth="yes"/>
      <point x="955" y="237"/>
      <point x="962" y="330"/>
      <point x="962" y="479" type="curve" smooth="yes"/>
      <point x="962" y="1120" type="line"/>
      <point x="1129" y="1120" type="line"/>
      <point x="1129" y="0" type="line"/>
      <point x="962" y="0" type="line"/>
      <point x="962" y="96" type="line"/>
      <point x="917" y="14"/>
      <point x="851" y="-27"/>
      <point x="764" y="-27" type="curve" smooth="yes"/>
      <point x="673" y="-27"/>
      <point x="601" y="15"/>
      <point x="562" y="114" type="curve"/>
      <point x="515" y="18"/>
      <point x="453" y="-27"/>
    </contour>
  </outline>
</glyph>
<glyph name="uni0562" format="1">
  <advance width="1233"/>
  <unicode hex="0562"/>
  <outline>
    <contour>
      <point x="193" y="1120" type="line" name="sh01"/>
      <point x="377" y="1120" type="line" name="sh02"/>
      <point x="377" y="952" type="line" name="iv01"/>
      <point x="442" y="1081" name="sv02"/>
      <point x="556" y="1147"/>
      <point x="709" y="1147" type="curve" smooth="yes" name="sh03"/>
      <point x="940" y="1147" name="ah02"/>
      <point x="1049" y="1001"/>
      <point x="1049" y="694" type="curve" smooth="yes" name="sv01"/>
      <point x="1049" y="450" type="line" name="sh04"/>
      <point x="864" y="450" type="line" name="sv03"/>
      <point x="864" y="694" type="line" smooth="yes" name="sh05"/>
      <point x="864" y="895" name="ab02"/>
      <point x="797" y="987" name="sh06"/>
      <point x="646" y="987" type="curve" smooth="yes" name="ab01"/>
      <point x="471" y="987"/>
      <point x="377" y="865" name="ah01"/>
      <point x="377" y="633" type="curve" smooth="yes" name="sh07"/>
      <point x="377" y="143" type="line"/>
      <point x="1059" y="143" type="line"/>
      <point x="1059" y="0" type="line"/>
      <point x="377" y="0" type="line"/>
      <point x="377" y="-426" type="line" name="hr01"/>
      <point x="193" y="-426" type="line"/>
    </contour>
  </outline>
</glyph>
<glyph name="uni0574" format="1">
  <advance width="1233"/>
  <unicode hex="0574"/>
  <outline>
    <contour>
      <point x="482" y="-29" type="curve" smooth="yes" name="sv02"/>
      <point x="251" y="-29" name="dh01"/>
      <point x="144" y="119" name="at01"/>
      <point x="144" y="424" type="curve" smooth="yes"/>
      <point x="144" y="1120" type="line" name="dh02"/>
      <point x="328" y="1120" type="line" name="sv01"/>
      <point x="328" y="424" type="line" smooth="yes" name="sh01"/>
      <point x="328" y="223" name="at02"/>
      <point x="398" y="131"/>
      <point x="547" y="131" type="curve" smooth="yes" name="sh02"/>
      <point x="723" y="131"/>
      <point x="815" y="254" name="dh04"/>
      <point x="815" y="485" type="curve" smooth="yes"/>
      <point x="815" y="1556" type="line" name="dh03"/>
      <point x="1168" y="1556" type="line"/>
      <point x="1168" y="1413" type="line"/>
      <point x="1000" y="1413" type="line" name="sh03"/>
      <point x="1000" y="0" type="line"/>
      <point x="833" y="0" type="line"/>
      <point x="815" y="168" type="line"/>
      <point x="750" y="39"/>
      <point x="638" y="-29"/>
    </contour>
  </outline>
</glyph>
<glyph name="uni0584" format="1">
  <advance width="1233"/>
  <unicode hex="0584"/>
  <outline>
    <contour>
      <point x="199" y="-327" type="line" name="sh01"/>
      <point x="79" y="-327" type="line"/>
      <point x="79" y="-184" type="line"/>
      <point x="199" y="-184" type="line" name="sh02"/>
      <point x="199" y="1120" type="line" name="at01"/>
      <point x="366" y="1120" type="line"/>
      <point x="384" y="977" type="line" name="sh04"/>
      <point x="445" y="1090" name="sv02"/>
      <point x="548" y="1147"/>
      <point x="684" y="1147" type="curve" smooth="yes" name="sh05"/>
      <point x="817" y="1147"/>
      <point x="925" y="1092" name="dv01"/>
      <point x="1001" y="989" type="curve" smooth="yes" name="sh06"/>
      <point x="1077" y="886" name="sv03"/>
      <point x="1117" y="740"/>
      <point x="1117" y="555" type="curve" smooth="yes" name="sv04"/>
      <point x="1117" y="376" name="sh03"/>
      <point x="1079" y="232" name="ab01"/>
      <point x="1002" y="128" type="curve" smooth="yes"/>
      <point x="926" y="27" name="dv02"/>
      <point x="820" y="-29"/>
      <point x="683" y="-29" type="curve" smooth="yes" name="ah02"/>
      <point x="544" y="-29" name="sv01"/>
      <point x="445" y="28" name="sh07"/>
      <point x="384" y="141" type="curve"/>
      <point x="384" y="-184" type="line" name="ah01"/>
      <point x="1138" y="-184" type="line" name="sh08"/>
      <point x="1138" y="-327" type="line"/>
      <point x="384" y="-327" type="line"/>
      <point x="384" y="-426" type="line"/>
      <point x="199" y="-426" type="line"/>
    </contour>
    <contour>
      <point x="656" y="127" type="curve" smooth="yes" name="hr01"/>
      <point x="745" y="127"/>
      <point x="812" y="163"/>
      <point x="857" y="236" type="curve" smooth="yes"/>
      <point x="902" y="307"/>
      <point x="924" y="415"/>
      <point x="924" y="559" type="curve" smooth="yes"/>
      <point x="924" y="847"/>
      <point x="835" y="991"/>
      <point x="656" y="991" type="curve" smooth="yes"/>
      <point x="475" y="991"/>
      <point x="384" y="846"/>
      <point x="384" y="559" type="curve" smooth="yes"/>
      <point x="384" y="272"/>
      <point x="475" y="127"/>
    </contour>
  </outline>
</glyph>
<glyph name="uni10D0" format="1">
  <advance width="1233"/>
  <unicode hex="10D0"/>
  <outline>
    <contour>
      <point x="609" y="0" type="curve" smooth="yes" name="ab01"/>
      <point x="310" y="0" name="dh01"/>
      <point x="160" y="164"/>
      <point x="160" y="438" type="curve" smooth="yes" name="ih01"/>
      <point x="160" y="522" name="dh02"/>
      <point x="174" y="575" name="sv01"/>
      <point x="240" y="660" type="curve" name="dh05"/>
      <point x="430" y="660" type="line"/>
      <point x="362" y="579" name="dh03"/>
      <point x="345" y="534" name="dh04"/>
      <point x="345" y="453" type="curve" smooth="yes"/>
      <point x="345" y="265" name="dh06"/>
      <point x="436" y="145"/>
      <point x="617" y="145" type="curve" smooth="yes"/>
      <point x="798" y="145" name="sh01"/>
      <point x="889" y="263"/>
      <point x="889" y="466" type="curve" smooth="yes"/>
      <point x="889" y="621"/>
      <point x="836" y="713"/>
      <point x="700" y="768" type="curve"/>
      <point x="505" y="836"/>
      <point x="407" y="962"/>
      <point x="406" y="1146" type="curve"/>
      <point x="587" y="1146" type="line"/>
      <point x="588" y="1039"/>
      <point x="631" y="968"/>
      <point x="714" y="934" type="curve"/>
      <point x="974" y="835"/>
      <point x="1075" y="704"/>
      <point x="1075" y="469" type="curve" smooth="yes"/>
      <point x="1075" y="178"/>
      <point x="920" y="0"/>
    </contour>
  </outline>
</glyph>
<glyph name="uni10D1" format="1">
  <advance width="1233"/>
  <unicode hex="10D1"/>
  <outline>
    <contour>
      <point x="621" y="0" type="curve" smooth="yes" name="ab01"/>
      <point x="314" y="0" name="dh01"/>
      <point x="159" y="191" name="dh05"/>
      <point x="159" y="531" type="curve" smooth="yes"/>
      <point x="159" y="842"/>
      <point x="289" y="997" name="at01"/>
      <point x="548" y="1056" type="curve"/>
      <point x="548" y="1194" type="line" smooth="yes"/>
      <point x="548" y="1303"/>
      <point x="462" y="1323" name="dh06"/>
      <point x="386" y="1342" type="curve" smooth="yes" name="dh04"/>
      <point x="291" y="1365"/>
      <point x="245" y="1426" name="sv01"/>
      <point x="245" y="1558" type="curve" name="dh03"/>
      <point x="426" y="1558" type="line"/>
      <point x="426" y="1499" name="dh02"/>
      <point x="468" y="1460"/>
      <point x="552" y="1442" type="curve"/>
      <point x="659" y="1404" name="sh01"/>
      <point x="713" y="1323"/>
      <point x="713" y="1200" type="curve" smooth="yes"/>
      <point x="713" y="1056" type="line"/>
      <point x="959" y="970"/>
      <point x="1076" y="818"/>
      <point x="1076" y="524" type="curve" smooth="yes"/>
      <point x="1076" y="189"/>
      <point x="925" y="0"/>
    </contour>
    <contour>
      <point x="620" y="145" type="curve" smooth="yes"/>
      <point x="801" y="145"/>
      <point x="888" y="283"/>
      <point x="888" y="538" type="curve" smooth="yes"/>
      <point x="888" y="795"/>
      <point x="801" y="916"/>
      <point x="617" y="916" type="curve" smooth="yes"/>
      <point x="436" y="916"/>
      <point x="345" y="791"/>
      <point x="345" y="542" type="curve" smooth="yes"/>
      <point x="345" y="285"/>
      <point x="437" y="145"/>
    </contour>
  </outline>
</glyph>
<glyph name="uni10D4" format="1">
  <advance width="1233"/>
  <unicode hex="10D4"/>
  <outline>
    <contour>
      <point x="631" y="-425" type="curve" smooth="yes" name="ab01"/>
      <point x="318" y="-425" name="dh01"/>
      <point x="160" y="-280"/>
      <point x="160" y="-40" type="curve" smooth="yes" name="ih01"/>
      <point x="160" y="70" name="dh02"/>
      <point x="192" y="141" name="sv01"/>
      <point x="301" y="226" type="curve" name="dh03"/>
      <point x="489" y="226" type="line"/>
      <point x="393" y="146" name="dv01"/>
      <point x="345" y="75" name="sh01"/>
      <point x="345" y="-34" type="curve" smooth="yes" name="ih03"/>
      <point x="345" y="-190"/>
      <point x="440" y="-283" name="ih02"/>
      <point x="635" y="-283" type="curve" smooth="yes" name="dv02"/>
      <point x="811" y="-283"/>
      <point x="899" y="-203" name="dh04"/>
      <point x="899" y="-42" type="curve" smooth="yes"/>
      <point x="899" y="634" type="line" smooth="yes"/>
      <point x="899" y="817" name="sh02"/>
      <point x="821" y="903"/>
      <point x="657" y="903" type="curve" smooth="yes"/>
      <point x="506" y="903"/>
      <point x="425" y="830"/>
      <point x="425" y="681" type="curve" smooth="yes"/>
      <point x="425" y="607"/>
      <point x="446" y="536"/>
      <point x="487" y="469" type="curve"/>
      <point x="311" y="468" type="line"/>
      <point x="271" y="521"/>
      <point x="255" y="598"/>
      <point x="255" y="670" type="curve" smooth="yes" name="hr01"/>
      <point x="255" y="922"/>
      <point x="454" y="1045"/>
      <point x="654" y="1045" type="curve" smooth="yes"/>
      <point x="864" y="1045"/>
      <point x="1075" y="910"/>
      <point x="1075" y="633" type="curve" smooth="yes"/>
      <point x="1075" y="-32" type="line" smooth="yes"/>
      <point x="1075" y="-296"/>
      <point x="931" y="-425"/>
    </contour>
  </outline>
</glyph>
<glyph name="uni10DA" format="1">
  <advance width="1233"/>
  <unicode hex="10DA"/>
  <outline>
    <contour>
      <point x="762" y="-425" type="line" name="ab01"/>
      <point x="730" y="-275"/>
      <point x="604" y="-199"/>
      <point x="481" y="-199" type="curve" smooth="yes"/>
      <point x="410" y="-199"/>
      <point x="344" y="-223"/>
      <point x="299" y="-274" type="curve" name="dh01"/>
      <point x="222" y="-179" type="line" name="dv02"/>
      <point x="263" y="-119" name="sh02"/>
      <point x="321" y="-84"/>
      <point x="396" y="-75" type="curve" name="dh04"/>
      <point x="409" y="-61" type="line" name="sh03"/>
      <point x="242" y="112" name="sh04"/>
      <point x="160" y="337" name="dh03"/>
      <point x="160" y="574" type="curve" smooth="yes" name="hr01"/>
      <point x="160" y="891" name="sh01"/>
      <point x="311" y="1045" name="dv01"/>
      <point x="612" y="1045" type="curve" smooth="yes" name="dh02"/>
      <point x="923" y="1045"/>
      <point x="1074" y="882" name="ab02"/>
      <point x="1074" y="593" type="curve" smooth="yes"/>
      <point x="1074" y="483"/>
      <point x="1053" y="448" name="sh05"/>
      <point x="1015" y="383" type="curve" smooth="yes"/>
      <point x="994" y="346"/>
      <point x="971" y="300"/>
      <point x="971" y="212" type="curve" smooth="yes"/>
      <point x="971" y="185"/>
      <point x="973" y="163"/>
      <point x="976" y="136" type="curve" name="hr02"/>
      <point x="817" y="135" type="line"/>
      <point x="813" y="167"/>
      <point x="811" y="197"/>
      <point x="811" y="225" type="curve" smooth="yes"/>
      <point x="811" y="304"/>
      <point x="825" y="340"/>
      <point x="843" y="376" type="curve" smooth="yes"/>
      <point x="870" y="432"/>
      <point x="889" y="478"/>
      <point x="889" y="578" type="curve" smooth="yes"/>
      <point x="889" y="799"/>
      <point x="800" y="904"/>
      <point x="615" y="904" type="curve" smooth="yes"/>
      <point x="430" y="904"/>
      <point x="345" y="795"/>
      <point x="345" y="558" type="curve" smooth="yes"/>
      <point x="345" y="222"/>
      <point x="516" y="33"/>
      <point x="649" y="-73" type="curve"/>
      <point x="801" y="-198"/>
      <point x="952" y="-318"/>
      <point x="952" y="-425" type="curve"/>
    </contour>
  </outline>
</glyph>
<glyph name="uni10DE" format="1">
  <advance width="1233"/>
  <unicode hex="10DE"/>
  <outline>
    <contour>
      <point x="619" y="0" type="curve" smooth="yes" name="ab01"/>
      <point x="326" y="0" name="dh01"/>
      <point x="160" y="144"/>
      <point x="160" y="429" type="curve" smooth="yes" name="ih01"/>
      <point x="160" y="555" name="dh02"/>
      <point x="194" y="648" name="sv01"/>
      <point x="261" y="707" type="curve" name="sh01"/>
      <point x="436" y="707" type="line" name="dv01"/>
      <point x="375" y="624"/>
      <point x="345" y="532" name="dh03"/>
      <point x="345" y="431" type="curve" smooth="yes" name="dv02"/>
      <point x="345" y="240" name="sh03"/>
      <point x="446" y="145"/>
      <point x="621" y="145" type="curve" smooth="yes" name="av01"/>
      <point x="804" y="145"/>
      <point x="888" y="249"/>
      <point x="888" y="469" type="curve" smooth="yes" name="dh04"/>
      <point x="888" y="696" name="sh04"/>
      <point x="799" y="804"/>
      <point x="612" y="804" type="curve" smooth="yes" name="sh02"/>
      <point x="549" y="804" type="line"/>
      <point x="549" y="939" type="line"/>
      <point x="631" y="939" type="line" smooth="yes" name="sh05"/>
      <point x="771" y="939"/>
      <point x="847" y="1017"/>
      <point x="847" y="1105" type="curve" smooth="yes" name="hr02"/>
      <point x="847" y="1197"/>
      <point x="760" y="1297"/>
      <point x="568" y="1321" type="curve"/>
      <point x="373" y="1357"/>
      <point x="276" y="1434"/>
      <point x="276" y="1551" type="curve"/>
      <point x="448" y="1551" type="line" name="hr03"/>
      <point x="448" y="1504"/>
      <point x="528" y="1466"/>
      <point x="687" y="1439" type="curve"/>
      <point x="915" y="1412"/>
      <point x="1030" y="1316"/>
      <point x="1030" y="1135" type="curve" smooth="yes"/>
      <point x="1030" y="1007"/>
      <point x="973" y="916"/>
      <point x="844" y="873" type="curve"/>
      <point x="844" y="853" type="line"/>
      <point x="1005" y="776"/>
      <point x="1076" y="661"/>
      <point x="1076" y="457" type="curve" smooth="yes"/>
      <point x="1076" y="160"/>
      <point x="928" y="0"/>
    </contour>
  </outline>
</glyph>
<glyph name="uni10E7" format="1">
  <advance width="1233"/>
  <unicode hex="10E7"/>
  <outline>
    <contour>
      <point x="628" y="-423" type="curve" smooth="yes" name="dv01"/>
      <point x="316" y="-423" name="sh02"/>
      <point x="158" y="-291" name="sh04"/>
      <point x="158" y="-23" type="curve" name="dv02"/>
      <point x="346" y="-23" type="line" name="ah02"/>
      <point x="346" y="-198"/>
      <point x="442" y="-284"/>
      <point x="629" y="-284" type="curve" smooth="yes" name="dv03"/>
      <point x="806" y="-284" name="sh01"/>
      <point x="895" y="-204" name="av01"/>
      <point x="895" y="-43" type="curve" smooth="yes" name="ih01"/>
      <point x="895" y="201" type="line" name="sh03"/>
      <point x="875" y="201" type="line" name="dv04"/>
      <point x="814" y="134" name="sh06"/>
      <point x="733" y="103" name="av02"/>
      <point x="606" y="103" type="curve" smooth="yes"/>
      <point x="309" y="103" name="sh05"/>
      <point x="158" y="281"/>
      <point x="158" y="562" type="curve" smooth="yes" name="ah01"/>
      <point x="158" y="766" name="sh07"/>
      <point x="238" y="893"/>
      <point x="437" y="1015" type="curve"/>
      <point x="653" y="1015" type="line"/>
      <point x="427" y="858"/>
      <point x="345" y="742"/>
      <point x="345" y="558" type="curve" smooth="yes"/>
      <point x="345" y="367"/>
      <point x="434" y="251"/>
      <point x="631" y="251" type="curve" smooth="yes"/>
      <point x="792" y="251"/>
      <point x="895" y="329"/>
      <point x="895" y="486" type="curve" smooth="yes"/>
      <point x="895" y="1007" type="line"/>
      <point x="1074" y="1007" type="line" name="hr01"/>
      <point x="1074" y="-47" type="line" smooth="yes"/>
      <point x="1074" y="-300"/>
      <point x="927" y="-423"/>
    </contour>
  </outline>
</glyph>
<glyph name="uni10EC" format="1">
  <advance width="1233"/>
  <unicode hex="10EC"/>
  <outline>
    <contour>
      <point x="589" y="0" type="curve" smooth="yes" name="ab01"/>
      <point x="316" y="0" name="dh01"/>
      <point x="161" y="176"/>
      <point x="161" y="527" type="curve" smooth="yes" name="at01"/>
      <point x="161" y="1236" type="line" smooth="yes"/>
      <point x="161" y="1451"/>
      <point x="265" y="1556" name="at02"/>
      <point x="449" y="1556" type="curve" smooth="yes" name="sh01"/>
      <point x="580" y="1556" name="ih01"/>
      <point x="649" y="1500" name="sv01"/>
      <point x="693" y="1363" type="curve"/>
      <point x="713" y="1363" type="line" name="dh04"/>
      <point x="753" y="1490" name="dh03"/>
      <point x="839" y="1556"/>
      <point x="955" y="1556" type="curve" smooth="yes" name="sv02"/>
      <point x="1108" y="1556" name="sh02"/>
      <point x="1180" y="1441" name="sv03"/>
      <point x="1180" y="1192" type="curve"/>
      <point x="1027" y="1192" type="line" name="dv02"/>
      <point x="1027" y="1362" name="dh06"/>
      <point x="1000" y="1418"/>
      <point x="925" y="1418" type="curve" smooth="yes" name="dh05"/>
      <point x="842" y="1418" name="dv01"/>
      <point x="782" y="1349" name="dh02"/>
      <point x="782" y="1210" type="curve" smooth="yes" name="sv04"/>
      <point x="782" y="1175" type="line"/>
      <point x="625" y="1175" type="line"/>
      <point x="625" y="1208" type="line" smooth="yes" name="sh03"/>
      <point x="625" y="1348"/>
      <point x="578" y="1418"/>
      <point x="484" y="1418" type="curve" smooth="yes"/>
      <point x="389" y="1418"/>
      <point x="342" y="1347"/>
      <point x="342" y="1205" type="curve" smooth="yes"/>
      <point x="342" y="916" type="line" name="hr02"/>
      <point x="362" y="916" type="line"/>
      <point x="409" y="1004"/>
      <point x="504" y="1046"/>
      <point x="625" y="1046" type="curve" smooth="yes"/>
      <point x="923" y="1046"/>
      <point x="1074" y="790"/>
      <point x="1074" y="527" type="curve" smooth="yes"/>
      <point x="1074" y="265"/>
      <point x="925" y="0"/>
    </contour>
    <contour>
      <point x="889" y="522" type="curve" smooth="yes"/>
      <point x="889" y="781"/>
      <point x="750" y="905"/>
      <point x="610" y="905" type="curve" smooth="yes"/>
      <point x="482" y="905"/>
      <point x="347" y="799"/>
      <point x="347" y="549" type="curve" smooth="yes"/>
      <point x="347" y="297"/>
      <point x="483" y="146"/>
      <point x="627" y="146" type="curve" smooth="yes"/>
      <point x="758" y="146"/>
      <point x="889" y="271"/>
    </contour>
  </outline>
</glyph>
<glyph name="uni10F2" format="1">
  <advance width="1233"/>
  <unicode hex="10F2"/>
  <outline>
    <contour>
      <point x="201" y="-60" type="line" name="hr00"/>
      <point x="300" y="-60"/>
      <point x="377" y="-30" name="sh01"/>
      <point x="430" y="29" type="curve" name="dv02"/>
      <point x="250" y="142" name="sh02"/>
      <point x="160" y="306"/>
      <point x="160" y="521" type="curve" smooth="yes"/>
      <point x="160" y="866" name="ih01"/>
      <point x="391" y="1046"/>
      <point x="620" y="1046" type="curve" smooth="yes" name="ih02"/>
      <point x="848" y="1046"/>
      <point x="1076" y="868" name="ah02"/>
      <point x="1076" y="524" type="curve" smooth="yes" name="dv01"/>
      <point x="1076" y="304" name="sh03"/>
      <point x="986" y="145"/>
      <point x="795" y="29" type="curve" name="ah01"/>
      <point x="856" y="-34" name="sh04"/>
      <point x="934" y="-63"/>
      <point x="1030" y="-60" type="curve"/>
      <point x="1030" y="-269" type="line"/>
      <point x="854" y="-223"/>
      <point x="716" y="-135"/>
      <point x="616" y="-6" type="curve"/>
      <point x="488" y="-134"/>
      <point x="350" y="-222"/>
      <point x="201" y="-269" type="curve"/>
    </contour>
    <contour>
      <point x="616" y="118" type="curve"/>
      <point x="807" y="179"/>
      <point x="889" y="307"/>
      <point x="889" y="530" type="curve" smooth="yes"/>
      <point x="889" y="770"/>
      <point x="798" y="902"/>
      <point x="615" y="902" type="curve" smooth="yes"/>
      <point x="434" y="902"/>
      <point x="345" y="770"/>
      <point x="345" y="533" type="curve" smooth="yes"/>
      <point x="345" y="310"/>
      <point x="423" y="182"/>
    </contour>
  </outline>
</glyph>
<glyph name="ygrave" format="1">
  <advance width="1233"/>
  <unicode hex="1EF3"/>
  <outline>
    <contour>
      <point x="227" y="1647" type="line" name="av01"/>
      <point x="425" y="1647" type="line"/>
      <point x="706" y="1271" type="line" name="iv01"/>
      <point x="552" y="1271" type="line"/>
    </contour>
    <contour>
      <point x="184" y="-272" type="line" name="sv01"/>
      <point x="293" y="-272" type="line" smooth="yes"/>
      <point x="353" y="-272"/>
      <point x="393" y="-252"/>
      <point x="420" y="-225" type="curve" smooth="yes" name="at01"/>
      <point x="449" y="-194"/>
      <point x="485" y="-126" name="iv02"/>
      <point x="537" y="18" type="curve" name="at02"/>
      <point x="104" y="1120" type="line" name="iv03"/>
      <point x="299" y="1120" type="line"/>
      <point x="631" y="244" type="line"/>
      <point x="958" y="1120" type="line"/>
      <point x="1153" y="1120" type="line" name="ab01"/>
      <point x="858" y="360" type="line" smooth="yes"/>
      <point x="754" y="93"/>
      <point x="794" y="190"/>
      <point x="741" y="52" type="curve" smooth="yes"/>
      <point x="653" y="-179"/>
      <point x="629" y="-233"/>
      <point x="608" y="-270" type="curve" smooth="yes"/>
      <point x="551" y="-370"/>
      <point x="457" y="-426"/>
      <point x="332" y="-426" type="curve" smooth="yes"/>
      <point x="184" y="-426" type="line"/>
    </contour>
  </outline>
</glyph>
<glyph name="uni2047" format="1">
  <advance width="1233"/>
  <unicode hex="2047"/>
  <outline>
    <contour>
      <point x="168" y="555" type="line" smooth="yes" name="ih01"/>
      <point x="168" y="689"/>
      <point x="190" y="763"/>
      <point x="262" y="872" type="curve" smooth="yes" name="ih02"/>
      <point x="321" y="961" type="line" smooth="yes" name="dv03"/>
      <point x="373" y="1040"/>
      <point x="391" y="1092"/>
      <point x="391" y="1151" type="curve" smooth="yes" name="dv04"/>
      <point x="391" y="1260" name="sv01"/>
      <point x="330" y="1313" name="sh01"/>
      <point x="242" y="1313" type="curve" smooth="yes"/>
      <point x="171" y="1313"/>
      <point x="115" y="1277" name="sh02"/>
      <point x="34" y="1190" type="curve" name="hr01"/>
      <point x="34" y="1407" type="line" name="hr02"/>
      <point x="120" y="1488" name="ih03"/>
      <point x="194" y="1521"/>
      <point x="307" y="1521" type="curve" smooth="yes"/>
      <point x="310" y="1521" name="ih04"/>
      <point x="318" y="1521" name="sv02"/>
      <point x="329" y="1520" type="curve" smooth="yes" name="ih05"/>
      <point x="500" y="1505"/>
      <point x="593" y="1387" name="sv03"/>
      <point x="593" y="1170" type="curve" smooth="yes" name="sv04"/>
      <point x="593" y="1068" name="sh03"/>
      <point x="572" y="994"/>
      <point x="489" y="868" type="curve" smooth="yes"/>
      <point x="432" y="782" type="line" smooth="yes" name="sh04"/>
      <point x="372" y="690"/>
      <point x="362" y="652"/>
      <point x="362" y="571" type="curve" smooth="yes" name="dv01"/>
      <point x="362" y="401" type="line"/>
      <point x="168" y="401" type="line" name="dh01"/>
    </contour>
    <contour>
      <point x="776" y="555" type="line" smooth="yes"/>
      <point x="776" y="689" name="dv02"/>
      <point x="798" y="763"/>
      <point x="870" y="872" type="curve" smooth="yes" name="dh02"/>
      <point x="929" y="961" type="line" smooth="yes"/>
      <point x="981" y="1040"/>
      <point x="999" y="1092" name="sv05"/>
      <point x="999" y="1151" type="curve" smooth="yes" name="hr03"/>
      <point x="999" y="1260" name="dh03"/>
      <point x="938" y="1313"/>
      <point x="850" y="1313" type="curve" smooth="yes" name="sv06"/>
      <point x="779" y="1313"/>
      <point x="723" y="1277" name="dh04"/>
      <point x="642" y="1190" type="curve"/>
      <point x="642" y="1407" type="line"/>
      <point x="728" y="1488"/>
      <point x="802" y="1521" name="sh05"/>
      <point x="915" y="1521" type="curve" smooth="yes"/>
      <point x="918" y="1521"/>
      <point x="926" y="1521"/>
      <point x="937" y="1520" type="curve" smooth="yes"/>
      <point x="1108" y="1505"/>
      <point x="1201" y="1387"/>
      <point x="1201" y="1170" type="curve" smooth="yes"/>
      <point x="1201" y="1068"/>
      <point x="1180" y="994"/>
      <point x="1097" y="868" type="curve" smooth="yes"/>
      <point x="1040" y="782" type="line" smooth="yes"/>
      <point x="980" y="690"/>
      <point x="970" y="652"/>
      <point x="970" y="571" type="curve" smooth="yes"/>
      <point x="970" y="401" type="line"/>
      <point x="776" y="401" type="line"/>
    </contour>
    <contour>
      <point x="269" y="-40" type="curve" smooth="yes"/>
      <point x="228" y="-40"/>
      <point x="193" y="-26"/>
      <point x="165" y="2" type="curve" smooth="yes"/>
      <point x="136" y="31"/>
      <point x="122" y="70"/>
      <point x="122" y="113" type="curve" smooth="yes"/>
      <point x="122" y="156"/>
      <point x="136" y="194"/>
      <point x="164" y="222" type="curve" smooth="yes"/>
      <point x="187" y="245"/>
      <point x="223" y="264"/>
      <point x="268" y="264" type="curve" smooth="yes"/>
      <point x="311" y="264"/>
      <point x="345" y="249"/>
      <point x="372" y="222" type="curve" smooth="yes"/>
      <point x="400" y="194"/>
      <point x="414" y="158"/>
      <point x="414" y="113" type="curve" smooth="yes"/>
      <point x="414" y="68"/>
      <point x="400" y="31"/>
      <point x="372" y="3" type="curve" smooth="yes"/>
      <point x="343" y="-26"/>
      <point x="309" y="-40"/>
    </contour>
    <contour>
      <point x="881" y="-40" type="curve" smooth="yes"/>
      <point x="840" y="-40"/>
      <point x="805" y="-26"/>
      <point x="777" y="2" type="curve" smooth="yes"/>
      <point x="748" y="31"/>
      <point x="734" y="70"/>
      <point x="734" y="113" type="curve" smooth="yes"/>
      <point x="734" y="156"/>
      <point x="748" y="194"/>
      <point x="776" y="222" type="curve" smooth="yes"/>
      <point x="799" y="245"/>
      <point x="835" y="264"/>
      <point x="880" y="264" type="curve" smooth="yes"/>
      <point x="923" y="264"/>
      <point x="957" y="249"/>
      <point x="984" y="222" type="curve" smooth="yes"/>
      <point x="1012" y="194"/>
      <point x="1026" y="158"/>
      <point x="1026" y="113" type="curve" smooth="yes"/>
      <point x="1026" y="68"/>
      <point x="1012" y="31"/>
      <point x="984" y="3" type="curve" smooth="yes"/>
      <point x="955" y="-26"/>
      <point x="921" y="-40"/>
    </contour>
  </outline>
</glyph>
<glyph name="uni2078" format="1">
  <advance width="1233"/>
  <unicode hex="2078"/>
  <outline>
    <contour>
      <point x="616" y="1108" type="curve" smooth="yes" name="dv01"/>
      <point x="428" y="1108"/>
      <point x="315" y="1198" name="ih01"/>
      <point x="315" y="1347" type="curve" smooth="yes" name="sh01"/>
      <point x="315" y="1468" name="dv04"/>
      <point x="382" y="1543"/>
      <point x="507" y="1568" type="curve" name="ih02"/>
      <point x="399" y="1592" name="sh02"/>
      <point x="337" y="1662"/>
      <point x="337" y="1758" type="curve" smooth="yes" name="dv06"/>
      <point x="337" y="1890" name="ah02"/>
      <point x="444" y="1974" name="dv03"/>
      <point x="616" y="1974" type="curve" smooth="yes" name="sh03"/>
      <point x="789" y="1974"/>
      <point x="896" y="1890" name="dv02"/>
      <point x="896" y="1758" type="curve" smooth="yes"/>
      <point x="896" y="1662" name="dv05"/>
      <point x="834" y="1592"/>
      <point x="726" y="1568" type="curve"/>
      <point x="851" y="1543" name="ah01"/>
      <point x="918" y="1468"/>
      <point x="918" y="1348" type="curve" smooth="yes"/>
      <point x="918" y="1197"/>
      <point x="805" y="1108"/>
    </contour>
    <contour>
      <point x="616" y="1609" type="curve" smooth="yes"/>
      <point x="717" y="1609"/>
      <point x="771" y="1658"/>
      <point x="771" y="1747" type="curve" smooth="yes"/>
      <point x="771" y="1839"/>
      <point x="720" y="1887"/>
      <point x="616" y="1887" type="curve" smooth="yes"/>
      <point x="516" y="1887"/>
      <point x="462" y="1839"/>
      <point x="462" y="1747" type="curve" smooth="yes"/>
      <point x="462" y="1658"/>
      <point x="516" y="1609"/>
    </contour>
    <contour>
      <point x="616" y="1196" type="curve" smooth="yes"/>
      <point x="729" y="1196"/>
      <point x="792" y="1255"/>
      <point x="792" y="1359" type="curve" smooth="yes"/>
      <point x="792" y="1463"/>
      <point x="728" y="1521"/>
      <point x="616" y="1521" type="curve" smooth="yes"/>
      <point x="503" y="1521"/>
      <point x="441" y="1463"/>
      <point x="441" y="1359" type="curve" smooth="yes"/>
      <point x="441" y="1255"/>
      <point x="507" y="1196"/>
    </contour>
  </outline>
</glyph>
<glyph name="franc" format="1">
  <advance width="1233"/>
  <unicode hex="20A3"/>
  <outline>
    <contour>
      <point x="233" y="313" type="line" name="dh01"/>
      <point x="0" y="313" type="line"/>
      <point x="0" y="382" type="line"/>
      <point x="233" y="382" type="line" name="sh01"/>
      <point x="233" y="1493" type="line" name="at01"/>
      <point x="1091" y="1493" type="line"/>
      <point x="1091" y="1323" type="line" name="sv01"/>
      <point x="435" y="1323" type="line" name="sh02"/>
      <point x="435" y="883" type="line"/>
      <point x="1027" y="883" type="line" name="dv02"/>
      <point x="1027" y="713" type="line" name="dv01"/>
      <point x="435" y="713" type="line" name="sh03"/>
      <point x="435" y="382" type="line" name="sv02"/>
      <point x="682" y="382" type="line"/>
      <point x="682" y="313" type="line" name="sv03"/>
      <point x="435" y="313" type="line" name="dh02"/>
      <point x="435" y="0" type="line" name="ab01"/>
      <point x="233" y="0" type="line"/>
    </contour>
  </outline>
</glyph>
<glyph name="uni20A9" format="1">
  <advance width="1233"/>
  <unicode hex="20A9"/>
  <outline>
    <contour>
      <point x="89" y="896" type="line" name="dv01"/>
      <point x="0" y="896" type="line"/>
      <point x="0" y="1039" type="line"/>
      <point x="68" y="1039" type="line" name="dv02"/>
      <point x="50" y="1156" type="line" name="sv01"/>
      <point x="0" y="1156" type="line"/>
      <point x="0" y="1299" type="line"/>
      <point x="29" y="1299" type="line" name="sv02"/>
      <point x="0" y="1493" type="line" name="at01"/>
      <point x="197" y="1493" type="line"/>
      <point x="220" y="1299" type="line" name="sv03"/>
      <point x="525" y="1299" type="line"/>
      <point x="555" y="1493" type="line" name="at02"/>
      <point x="695" y="1493" type="line"/>
      <point x="725" y="1299" type="line" name="sv04"/>
      <point x="1013" y="1299" type="line"/>
      <point x="1036" y="1493" type="line" name="at03"/>
      <point x="1233" y="1493" type="line"/>
      <point x="1204" y="1299" type="line" name="sv05"/>
      <point x="1233" y="1299" type="line"/>
      <point x="1233" y="1156" type="line" name="sv06"/>
      <point x="1183" y="1156" type="line" name="sv07"/>
      <point x="1166" y="1039" type="line" name="sv08"/>
      <point x="1233" y="1039" type="line"/>
      <point x="1233" y="896" type="line" name="sv09"/>
      <point x="1144" y="896" type="line"/>
      <point x="1010" y="0" type="line" name="ab01"/>
      <point x="819" y="0" type="line"/>
      <point x="628" y="887" type="line" name="sv10"/>
      <point x="614" y="887" type="line"/>
      <point x="414" y="0" type="line" name="ab02"/>
      <point x="223" y="0" type="line" name="hr01"/>
    </contour>
    <contour>
      <point x="475" y="1039" type="line" name="sv11"/>
      <point x="493" y="1156" type="line" name="sv12"/>
      <point x="236" y="1156" type="line" name="sv13"/>
      <point x="250" y="1039" type="line" name="hr03"/>
    </contour>
    <contour>
      <point x="633" y="1039" type="line" name="sv14"/>
      <point x="616" y="1156" type="line" name="iv01"/>
      <point x="597" y="1039" type="line"/>
    </contour>
    <contour>
      <point x="983" y="1039" type="line" name="sv15"/>
      <point x="996" y="1156" type="line" name="sv16"/>
      <point x="737" y="1156" type="line" name="sv17"/>
      <point x="755" y="1039" type="line"/>
    </contour>
    <contour>
      <point x="450" y="896" type="line" name="sv18"/>
      <point x="267" y="896" type="line"/>
      <point x="340" y="281" type="line" name="iv02"/>
    </contour>
    <contour>
      <point x="966" y="896" type="line" name="sv19"/>
      <point x="781" y="896" type="line"/>
      <point x="893" y="279" type="line" name="iv03"/>
    </contour>
  </outline>
</glyph>
<glyph name="uni20B0" format="1">
  <advance width="1233"/>
  <unicode hex="20B0"/>
  <outline>
    <contour>
      <point x="682" y="133" type="line" name="sh01"/>
      <point x="861" y="133" name="sh03"/>
      <point x="980" y="227"/>
      <point x="980" y="395" type="curve" smooth="yes" name="dv02"/>
      <point x="980" y="475"/>
      <point x="954" y="523" name="sv01"/>
      <point x="861" y="616" type="curve"/>
      <point x="762" y="525"/>
      <point x="685" y="490" name="sv02"/>
      <point x="612" y="490" type="curve" smooth="yes"/>
      <point x="510" y="490" name="dv03"/>
      <point x="455" y="559"/>
      <point x="428" y="594" type="curve" smooth="yes" name="dh01"/>
      <point x="392" y="641" name="at01"/>
      <point x="363" y="664" name="dh04"/>
      <point x="331" y="664" type="curve" smooth="yes" name="hr01"/>
      <point x="291" y="664" name="sh02"/>
      <point x="251" y="624" name="dv01"/>
      <point x="185" y="516" type="curve"/>
      <point x="46" y="612" type="line" name="dh03"/>
      <point x="155" y="787" name="sv03"/>
      <point x="226" y="852" name="dh02"/>
      <point x="321" y="852" type="curve" smooth="yes" name="hr02"/>
      <point x="380" y="852"/>
      <point x="445" y="829" name="sh04"/>
      <point x="492" y="774" type="curve" smooth="yes"/>
      <point x="557" y="698"/>
      <point x="586" y="667"/>
      <point x="617" y="667" type="curve" smooth="yes"/>
      <point x="641" y="667"/>
      <point x="678" y="686"/>
      <point x="717" y="733" type="curve"/>
      <point x="564" y="854"/>
      <point x="490" y="994"/>
      <point x="490" y="1167" type="curve" smooth="yes"/>
      <point x="490" y="1393"/>
      <point x="618" y="1520"/>
      <point x="790" y="1520" type="curve" smooth="yes"/>
      <point x="950" y="1520"/>
      <point x="1092" y="1408"/>
      <point x="1092" y="1152" type="curve" smooth="yes" name="hr03"/>
      <point x="1092" y="1021"/>
      <point x="1057" y="879"/>
      <point x="985" y="766" type="curve"/>
      <point x="1110" y="651"/>
      <point x="1166" y="545"/>
      <point x="1166" y="398" type="curve" smooth="yes"/>
      <point x="1166" y="160"/>
      <point x="1018" y="-29"/>
      <point x="682" y="-29" type="curve"/>
    </contour>
    <contour>
      <point x="834" y="881" type="curve"/>
      <point x="879" y="949"/>
      <point x="902" y="1057"/>
      <point x="902" y="1152" type="curve" smooth="yes" name="hr04"/>
      <point x="902" y="1289"/>
      <point x="855" y="1362"/>
      <point x="790" y="1362" type="curve" smooth="yes"/>
      <point x="721" y="1362"/>
      <point x="680" y="1278"/>
      <point x="680" y="1170" type="curve" smooth="yes"/>
      <point x="680" y="1049"/>
      <point x="730" y="961"/>
    </contour>
  </outline>
</glyph>
<glyph name="uni2155" format="1">
  <advance width="1233"/>
  <unicode hex="2155"/>
  <outline>
    <contour>
      <point x="104" y="934" type="line" name="sv01"/>
      <point x="309" y="934" type="line" name="sh01"/>
      <point x="309" y="1545" type="line"/>
      <point x="86" y="1504" type="line"/>
      <point x="86" y="1620" type="line" name="dh01"/>
      <point x="315" y="1659" type="line" name="av01"/>
      <point x="453" y="1659" type="line" name="dh02"/>
      <point x="453" y="934" type="line"/>
      <point x="657" y="934" type="line" name="dv08"/>
      <point x="657" y="824" type="line" name="dv07"/>
      <point x="104" y="824" type="line"/>
    </contour>
    <contour>
      <point x="27" y="612" type="line"/>
      <point x="1087" y="874" type="line"/>
      <point x="1114" y="766" type="line"/>
      <point x="51" y="504" type="line"/>
    </contour>
    <contour>
      <point x="764" y="-285" type="curve" smooth="yes" name="dv01"/>
      <point x="665" y="-285"/>
      <point x="584" y="-273" name="ih01"/>
      <point x="520" y="-249" type="curve" name="dv02"/>
      <point x="520" y="-135" type="line" name="dh05"/>
      <point x="589" y="-170" name="dv03"/>
      <point x="672" y="-190" name="dh03"/>
      <point x="752" y="-190" type="curve" smooth="yes"/>
      <point x="892" y="-190" name="dv06"/>
      <point x="968" y="-122" name="dv05"/>
      <point x="968" y="-1" type="curve" smooth="yes"/>
      <point x="968" y="119" name="dh04"/>
      <point x="886" y="188" name="dv04"/>
      <point x="749" y="188" type="curve" smooth="yes" name="dh06"/>
      <point x="682" y="188"/>
      <point x="619" y="174"/>
      <point x="559" y="147" type="curve" name="sh02"/>
      <point x="559" y="565" type="line"/>
      <point x="1029" y="565" type="line"/>
      <point x="1029" y="470" type="line"/>
      <point x="674" y="470" type="line"/>
      <point x="674" y="266" type="line"/>
      <point x="707" y="277"/>
      <point x="743" y="283"/>
      <point x="782" y="283" type="curve" smooth="yes" name="hr01"/>
      <point x="973" y="283"/>
      <point x="1094" y="174"/>
      <point x="1094" y="-1" type="curve" smooth="yes"/>
      <point x="1094" y="-177"/>
      <point x="968" y="-285"/>
    </contour>
  </outline>
</glyph>
<glyph name="uni2159" format="1">
  <advance width="1233"/>
  <unicode hex="2159"/>
  <outline>
    <contour>
      <point x="104" y="934" type="line" name="sv01"/>
      <point x="309" y="934" type="line" name="sh01"/>
      <point x="309" y="1545" type="line"/>
      <point x="86" y="1504" type="line"/>
      <point x="86" y="1620" type="line" name="dh01"/>
      <point x="315" y="1659" type="line" name="av01"/>
      <point x="453" y="1659" type="line" name="dh02"/>
      <point x="453" y="934" type="line"/>
      <point x="657" y="934" type="line" name="sh02"/>
      <point x="657" y="824" type="line" name="dv07"/>
      <point x="104" y="824" type="line"/>
    </contour>
    <contour>
      <point x="27" y="612" type="line"/>
      <point x="1087" y="874" type="line"/>
      <point x="1114" y="766" type="line"/>
      <point x="51" y="504" type="line"/>
    </contour>
    <contour>
      <point x="841" y="-285" type="curve" smooth="yes" name="dv01"/>
      <point x="626" y="-285" name="dh03"/>
      <point x="530" y="-152" name="dv06"/>
      <point x="530" y="148" type="curve" smooth="yes"/>
      <point x="530" y="433" name="ih01"/>
      <point x="652" y="582" name="dv05"/>
      <point x="881" y="582" type="curve" smooth="yes" name="dh04"/>
      <point x="942" y="582" name="dv04"/>
      <point x="1005" y="570" name="dh06"/>
      <point x="1062" y="549" type="curve"/>
      <point x="1062" y="445" type="line" name="dv02"/>
      <point x="1010" y="472" name="dh05"/>
      <point x="951" y="487" name="dv03"/>
      <point x="887" y="487" type="curve" smooth="yes"/>
      <point x="727" y="487"/>
      <point x="645" y="379"/>
      <point x="645" y="167" type="curve" name="sh03"/>
      <point x="688" y="245"/>
      <point x="755" y="284"/>
      <point x="848" y="284" type="curve" smooth="yes"/>
      <point x="1029" y="284"/>
      <point x="1130" y="183"/>
      <point x="1130" y="-1" type="curve" smooth="yes"/>
      <point x="1130" y="-182"/>
      <point x="1025" y="-285"/>
    </contour>
    <contour>
      <point x="839" y="-197" type="curve" smooth="yes"/>
      <point x="950" y="-197"/>
      <point x="1006" y="-132"/>
      <point x="1006" y="-1" type="curve" smooth="yes"/>
      <point x="1006" y="130"/>
      <point x="950" y="195"/>
      <point x="839" y="195" type="curve" smooth="yes" name="hr01"/>
      <point x="731" y="195"/>
      <point x="667" y="123"/>
      <point x="667" y="-1" type="curve" smooth="yes"/>
      <point x="667" y="-125"/>
      <point x="731" y="-197"/>
    </contour>
  </outline>
</glyph>
<glyph name="uni215A" format="1">
  <advance width="1233"/>
  <unicode hex="215A"/>
  <outline>
    <contour>
      <point x="305" y="809" type="curve" smooth="yes" name="dv11"/>
      <point x="206" y="809"/>
      <point x="125" y="821"/>
      <point x="61" y="845" type="curve" name="dv12"/>
      <point x="61" y="959" type="line"/>
      <point x="130" y="924" name="dv05"/>
      <point x="213" y="904" name="dh01"/>
      <point x="293" y="904" type="curve" smooth="yes"/>
      <point x="433" y="904" name="dv04"/>
      <point x="509" y="972" name="dv03"/>
      <point x="509" y="1093" type="curve" smooth="yes"/>
      <point x="509" y="1213" name="dh02"/>
      <point x="427" y="1282" name="dv06"/>
      <point x="290" y="1282" type="curve" smooth="yes" name="dh04"/>
      <point x="223" y="1282"/>
      <point x="160" y="1268"/>
      <point x="100" y="1241" type="curve"/>
      <point x="100" y="1659" type="line"/>
      <point x="570" y="1659" type="line"/>
      <point x="570" y="1564" type="line" name="dv01"/>
      <point x="215" y="1564" type="line" name="dh03"/>
      <point x="215" y="1360" type="line" name="dv10"/>
      <point x="248" y="1371"/>
      <point x="284" y="1377" name="ih01"/>
      <point x="323" y="1377" type="curve" smooth="yes" name="dv09"/>
      <point x="514" y="1377" name="sh01"/>
      <point x="635" y="1268" name="dv08"/>
      <point x="635" y="1093" type="curve" smooth="yes" name="dh06"/>
      <point x="635" y="917"/>
      <point x="509" y="809" name="dv02"/>
    </contour>
    <contour>
      <point x="27" y="612" type="line" name="dv07"/>
      <point x="1087" y="874" type="line" name="sh02"/>
      <point x="1114" y="766" type="line"/>
      <point x="51" y="504" type="line"/>
    </contour>
    <contour>
      <point x="841" y="-285" type="curve" smooth="yes" name="sh03"/>
      <point x="626" y="-285"/>
      <point x="530" y="-152"/>
      <point x="530" y="148" type="curve" smooth="yes" name="hr01"/>
      <point x="530" y="433"/>
      <point x="652" y="582"/>
      <point x="881" y="582" type="curve" smooth="yes"/>
      <point x="942" y="582"/>
      <point x="1005" y="570"/>
      <point x="1062" y="549" type="curve"/>
      <point x="1062" y="445" type="line"/>
      <point x="1010" y="472"/>
      <point x="951" y="487"/>
      <point x="887" y="487" type="curve" smooth="yes"/>
      <point x="727" y="487"/>
      <point x="645" y="379"/>
      <point x="645" y="167" type="curve"/>
      <point x="688" y="245"/>
      <point x="755" y="284"/>
      <point x="848" y="284" type="curve" smooth="yes"/>
      <point x="1029" y="284"/>
      <point x="1130" y="183"/>
      <point x="1130" y="-1" type="curve" smooth="yes"/>
      <point x="1130" y="-182"/>
      <point x="1025" y="-285"/>
    </contour>
    <contour>
      <point x="839" y="-197" type="curve" smooth="yes"/>
      <point x="950" y="-197"/>
      <point x="1006" y="-132"/>
      <point x="1006" y="-1" type="curve" smooth="yes"/>
      <point x="1006" y="130"/>
      <point x="950" y="195"/>
      <point x="839" y="195" type="curve" smooth="yes"/>
      <point x="731" y="195"/>
      <point x="667" y="123"/>
      <point x="667" y="-1" type="curve" smooth="yes"/>
      <point x="667" y="-125"/>
      <point x="731" y="-197"/>
    </contour>
  </outline>
</glyph>
<glyph name="uni219D" format="1">
  <advance width="1233"/>
  <unicode hex="219D"/>
  <outline>
    <contour>
      <point x="1017" y="619" type="line" name="sh01"/>
      <point x="908" y="491" type="line" smooth="yes"/>
      <point x="860" y="434" name="av01"/>
      <point x="798" y="399"/>
      <point x="723" y="399" type="curve" smooth="yes"/>
      <point x="654" y="399"/>
      <point x="594" y="430" name="sv01"/>
      <point x="542" y="491" type="curve" smooth="yes"/>
      <point x="507" y="532" name="iv01"/>
      <point x="493" y="566"/>
      <point x="482" y="593" type="curve" smooth="yes"/>
      <point x="458" y="653" name="av03"/>
      <point x="427" y="680"/>
      <point x="396" y="695" type="curve" smooth="yes" name="hr01"/>
      <point x="377" y="704"/>
      <point x="360" y="709" name="sv02"/>
      <point x="339" y="709" type="curve" smooth="yes"/>
      <point x="292" y="709" name="ih01"/>
      <point x="261" y="685"/>
      <point x="234" y="654" type="curve" smooth="yes" name="dh01"/>
      <point x="214" y="631" name="dv01"/>
      <point x="198" y="604" name="dh02"/>
      <point x="195" y="593" type="curve" name="av02"/>
      <point x="89" y="660" type="line" name="sv03"/>
      <point x="118" y="734"/>
      <point x="177" y="809" name="sh02"/>
      <point x="241" y="841" type="curve" smooth="yes"/>
      <point x="270" y="856"/>
      <point x="303" y="864"/>
      <point x="339" y="864" type="curve" smooth="yes"/>
      <point x="412" y="864"/>
      <point x="472" y="833"/>
      <point x="523" y="773" type="curve" smooth="yes" name="hr02"/>
      <point x="555" y="734"/>
      <point x="571" y="699"/>
      <point x="583" y="670" type="curve" smooth="yes"/>
      <point x="602" y="623"/>
      <point x="614" y="600"/>
      <point x="667" y="568" type="curve" smooth="yes"/>
      <point x="684" y="558"/>
      <point x="702" y="553"/>
      <point x="723" y="553" type="curve" smooth="yes"/>
      <point x="768" y="553"/>
      <point x="808" y="579"/>
      <point x="832" y="607" type="curve" smooth="yes"/>
      <point x="932" y="723"/>
      <point x="936" y="733"/>
      <point x="941" y="738" type="curve" name="hr03"/>
      <point x="674" y="738" type="line"/>
      <point x="674" y="865" type="line"/>
      <point x="1086" y="865" type="line"/>
      <point x="1144" y="807" type="line"/>
      <point x="1144" y="395" type="line" name="hr04"/>
      <point x="1017" y="395" type="line"/>
    </contour>
  </outline>
</glyph>
<glyph name="uni21AA" format="1">
  <advance width="1233"/>
  <unicode hex="21AA"/>
  <outline>
    <contour>
      <point x="786" y="319" type="line"/>
      <point x="946" y="479" type="line" name="dv01"/>
      <point x="325" y="479" type="line" smooth="yes"/>
      <point x="283" y="479"/>
      <point x="208" y="508" name="dh01"/>
      <point x="152" y="564" type="curve" smooth="yes"/>
      <point x="85" y="629" name="av02"/>
      <point x="66" y="704" name="sh01"/>
      <point x="66" y="768" type="curve" smooth="yes"/>
      <point x="66" y="852" name="dh02"/>
      <point x="100" y="926"/>
      <point x="151" y="975" type="curve" smooth="yes"/>
      <point x="211" y="1034" name="dv02"/>
      <point x="288" y="1059"/>
      <point x="357" y="1059" type="curve"/>
      <point x="357" y="895" type="line"/>
      <point x="324" y="895"/>
      <point x="290" y="881" name="av01"/>
      <point x="267" y="858" type="curve" smooth="yes"/>
      <point x="247" y="839"/>
      <point x="230" y="809"/>
      <point x="230" y="770" type="curve" smooth="yes"/>
      <point x="230" y="735"/>
      <point x="244" y="703"/>
      <point x="267" y="680" type="curve" smooth="yes" name="hr01"/>
      <point x="288" y="659"/>
      <point x="322" y="643"/>
      <point x="365" y="643" type="curve" smooth="yes"/>
      <point x="946" y="643" type="line"/>
      <point x="786" y="803" type="line"/>
      <point x="876" y="893" type="line"/>
      <point x="1167" y="602" type="line"/>
      <point x="1167" y="520" type="line"/>
      <point x="876" y="229" type="line"/>
    </contour>
  </outline>
</glyph>
<glyph name="carriagereturn" format="1">
  <advance width="1233"/>
  <unicode hex="21B5"/>
  <outline>
    <contour>
      <point x="64" y="291" type="line" name="hr00"/>
      <point x="64" y="373" type="line"/>
      <point x="354" y="664" type="line"/>
      <point x="444" y="574" type="line"/>
      <point x="284" y="414" type="line"/>
      <point x="1006" y="414" type="line" name="dh01"/>
      <point x="1006" y="861" type="line" name="av01"/>
      <point x="1170" y="861" type="line"/>
      <point x="1170" y="250" type="line" name="dh02"/>
      <point x="284" y="250" type="line"/>
      <point x="444" y="90" type="line"/>
      <point x="354" y="0" type="line" name="ab01"/>
    </contour>
  </outline>
</glyph>
<glyph name="uni21B6" format="1">
  <advance width="1233"/>
  <unicode hex="21B6"/>
  <outline>
    <contour>
      <point x="81" y="635" type="line"/>
      <point x="171" y="725" type="line"/>
      <point x="331" y="565" type="line"/>
      <point x="332" y="589" type="line" smooth="yes"/>
      <point x="337" y="706"/>
      <point x="383" y="806" name="dv02"/>
      <point x="459" y="882" type="curve" smooth="yes"/>
      <point x="536" y="958"/>
      <point x="633" y="997" name="sv01"/>
      <point x="745" y="997" type="curve" smooth="yes"/>
      <point x="862" y="997" name="dv01"/>
      <point x="958" y="953"/>
      <point x="1031" y="881" type="curve" smooth="yes"/>
      <point x="1107" y="805"/>
      <point x="1151" y="709"/>
      <point x="1152" y="596" type="curve"/>
      <point x="1000" y="596" type="line" name="av01"/>
      <point x="1000" y="671"/>
      <point x="970" y="739"/>
      <point x="925" y="786" type="curve" smooth="yes" name="hr01"/>
      <point x="889" y="825"/>
      <point x="828" y="862"/>
      <point x="747" y="862" type="curve" smooth="yes"/>
      <point x="678" y="862"/>
      <point x="613" y="834"/>
      <point x="565" y="787" type="curve" smooth="yes"/>
      <point x="506" y="728"/>
      <point x="495" y="657"/>
      <point x="495" y="588" type="curve" smooth="yes"/>
      <point x="495" y="565" type="line"/>
      <point x="655" y="725" type="line"/>
      <point x="745" y="635" type="line"/>
      <point x="454" y="344" type="line"/>
      <point x="372" y="344" type="line"/>
    </contour>
  </outline>
</glyph>
<glyph name="uni21BC" format="1">
  <advance width="1233"/>
  <unicode hex="21BC"/>
  <outline>
    <contour>
      <point x="66" y="602" type="line" name="hr00"/>
      <point x="357" y="893" type="line" name="av01"/>
      <point x="447" y="803" type="line"/>
      <point x="287" y="643" type="line"/>
      <point x="1167" y="643" type="line" name="dv02"/>
      <point x="1167" y="479" type="line" name="dv01"/>
      <point x="66" y="479" type="line"/>
    </contour>
  </outline>
</glyph>
<glyph name="uni21BF" format="1">
  <advance width="1233"/>
  <unicode hex="21BF"/>
  <outline>
    <contour>
      <point x="534" y="880" type="line" name="dh01"/>
      <point x="374" y="720" type="line"/>
      <point x="284" y="810" type="line"/>
      <point x="576" y="1101" type="line" name="av01"/>
      <point x="698" y="1101" type="line" name="dh02"/>
      <point x="698" y="0" type="line" name="ab01"/>
      <point x="534" y="0" type="line"/>
    </contour>
  </outline>
</glyph>
<glyph name="uni21C2" format="1">
  <advance width="1233"/>
  <unicode hex="21C2"/>
  <outline>
    <contour>
      <point x="534" y="1101" type="line" name="dh01"/>
      <point x="698" y="1101" type="line" name="dh02"/>
      <point x="698" y="221" type="line" name="iv01"/>
      <point x="858" y="381" type="line"/>
      <point x="948" y="291" type="line"/>
      <point x="658" y="0" type="line" name="ab01"/>
      <point x="534" y="0" type="line"/>
    </contour>
  </outline>
</glyph>
<glyph name="uni21CB" format="1">
  <advance width="1233"/>
  <unicode hex="21CB"/>
  <outline>
    <contour>
      <point x="66" y="766" type="line" name="hr00"/>
      <point x="357" y="1057" type="line" name="av01"/>
      <point x="447" y="967" type="line"/>
      <point x="287" y="807" type="line"/>
      <point x="1167" y="807" type="line" name="dv04"/>
      <point x="1167" y="643" type="line" name="dv03"/>
      <point x="66" y="643" type="line"/>
    </contour>
    <contour>
      <point x="786" y="155" type="line"/>
      <point x="946" y="315" type="line" name="dv01"/>
      <point x="66" y="315" type="line"/>
      <point x="66" y="479" type="line"/>
      <point x="1167" y="479" type="line" name="dv02"/>
      <point x="1167" y="356" type="line"/>
      <point x="876" y="65" type="line" name="av02"/>
    </contour>
  </outline>
</glyph>
<glyph name="uni21E0" format="1">
  <advance width="1233"/>
  <unicode hex="21E0"/>
  <outline>
    <contour>
      <point x="66" y="520" type="line"/>
      <point x="66" y="602" type="line"/>
      <point x="357" y="893" type="line" name="av02"/>
      <point x="447" y="803" type="line"/>
      <point x="287" y="643" type="line"/>
      <point x="545" y="643" type="line" name="dh01"/>
      <point x="545" y="479" type="line" name="dv01"/>
      <point x="287" y="479" type="line"/>
      <point x="447" y="319" type="line"/>
      <point x="357" y="229" type="line" name="av01"/>
    </contour>
    <contour>
      <point x="670" y="643" type="line" name="dh02"/>
      <point x="857" y="643" type="line" name="dh03"/>
      <point x="857" y="479" type="line" name="sv01"/>
      <point x="670" y="479" type="line"/>
    </contour>
    <contour>
      <point x="980" y="643" type="line" name="dh04"/>
      <point x="1167" y="643" type="line" name="sh01"/>
      <point x="1167" y="479" type="line" name="sv02"/>
      <point x="980" y="479" type="line"/>
    </contour>
  </outline>
</glyph>
<glyph name="uni21F3" format="1">
  <advance width="1233"/>
  <unicode hex="21F3"/>
  <outline>
    <contour>
      <point x="244" y="373" type="line" name="sv01"/>
      <point x="444" y="373" type="line" name="sh01"/>
      <point x="444" y="769" type="line" name="dv02"/>
      <point x="244" y="769" type="line"/>
      <point x="616" y="1142" type="line" name="at01"/>
      <point x="990" y="769" type="line" name="sv02"/>
      <point x="788" y="769" type="line"/>
      <point x="788" y="373" type="line" name="sh02"/>
      <point x="990" y="373" type="line"/>
      <point x="616" y="0" type="line" name="ab01"/>
    </contour>
    <contour>
      <point x="812" y="294" type="line" name="dv01"/>
      <point x="718" y="294" type="line" name="ah01"/>
      <point x="718" y="848" type="line" name="sv03"/>
      <point x="812" y="848" type="line" name="iv01"/>
      <point x="616" y="1042" type="line"/>
      <point x="422" y="848" type="line" name="dv03"/>
      <point x="514" y="848" type="line"/>
      <point x="514" y="294" type="line" name="sh03"/>
      <point x="422" y="294" type="line" name="iv02"/>
      <point x="616" y="100" type="line"/>
    </contour>
  </outline>
</glyph>
<glyph name="uni21F9" format="1">
  <advance width="1233"/>
  <unicode hex="21F9"/>
  <outline>
    <contour>
      <point x="66" y="520" type="line" name="hr00"/>
      <point x="66" y="602" type="line"/>
      <point x="357" y="893" type="line" name="av04"/>
      <point x="447" y="803" type="line"/>
      <point x="287" y="643" type="line" name="sv01"/>
      <point x="534" y="643" type="line" name="dh01"/>
      <point x="534" y="893" type="line" name="av05"/>
      <point x="698" y="893" type="line"/>
      <point x="698" y="643" type="line" name="dh02"/>
      <point x="946" y="643" type="line" name="dv02"/>
      <point x="786" y="803" type="line"/>
      <point x="876" y="893" type="line" name="av06"/>
      <point x="1167" y="602" type="line"/>
      <point x="1167" y="520" type="line"/>
      <point x="876" y="229" type="line" name="av01"/>
      <point x="786" y="319" type="line"/>
      <point x="946" y="479" type="line" name="dv01"/>
      <point x="698" y="479" type="line" name="sh01"/>
      <point x="698" y="229" type="line" name="av02"/>
      <point x="534" y="229" type="line" name="sh02"/>
      <point x="534" y="479" type="line" name="sv02"/>
      <point x="287" y="479" type="line" name="iv01"/>
      <point x="447" y="319" type="line"/>
      <point x="357" y="229" type="line" name="av03"/>
    </contour>
  </outline>
</glyph>
<glyph name="uni21FD" format="1">
  <advance width="1233"/>
  <unicode hex="21FD"/>
  <outline>
    <contour>
      <point x="25" y="561" type="line" name="hr00"/>
      <point x="398" y="934" type="line" name="av02"/>
      <point x="398" y="643" type="line" name="dh02"/>
      <point x="1167" y="643" type="line" name="dv02"/>
      <point x="1167" y="479" type="line" name="dv01"/>
      <point x="398" y="479" type="line" name="sh01"/>
      <point x="398" y="188" type="line" name="av01"/>
    </contour>
    <contour>
      <point x="319" y="756" type="line" name="dh01"/>
      <point x="125" y="561" type="line"/>
      <point x="319" y="366" type="line" name="iv01"/>
    </contour>
  </outline>
</glyph>
<glyph name="uni220A" format="1">
  <advance width="1233"/>
  <unicode hex="220A"/>
  <outline>
    <contour>
      <point x="630" y="165" type="line" smooth="yes" name="dv01"/>
      <point x="448" y="165"/>
      <point x="285" y="255"/>
      <point x="197" y="402" type="curve" smooth="yes"/>
      <point x="150" y="479" name="at01"/>
      <point x="130" y="559"/>
      <point x="130" y="639" type="curve" smooth="yes" name="sv01"/>
      <point x="130" y="815"/>
      <point x="227" y="971"/>
      <point x="379" y="1054" type="curve" smooth="yes" name="dv04"/>
      <point x="456" y="1096" name="dv03"/>
      <point x="539" y="1117"/>
      <point x="630" y="1117" type="curve" smooth="yes" name="dv02"/>
      <point x="1102" y="1117" type="line"/>
      <point x="1102" y="947" type="line" name="sv02"/>
      <point x="630" y="947" type="line" smooth="yes"/>
      <point x="453" y="947"/>
      <point x="345" y="823"/>
      <point x="315" y="726" type="curve"/>
      <point x="1102" y="726" type="line"/>
      <point x="1102" y="556" type="line"/>
      <point x="315" y="556" type="line"/>
      <point x="345" y="459"/>
      <point x="453" y="335"/>
      <point x="630" y="335" type="curve" smooth="yes"/>
      <point x="1102" y="335" type="line"/>
      <point x="1102" y="165" type="line"/>
    </contour>
  </outline>
</glyph>
<glyph name="uni220D" format="1">
  <advance width="1233"/>
  <unicode hex="220D"/>
  <outline>
    <contour>
      <point x="130" y="335" type="line" name="hr00"/>
      <point x="602" y="335" type="line" smooth="yes" name="dv02"/>
      <point x="781" y="335" name="dv03"/>
      <point x="888" y="459"/>
      <point x="918" y="556" type="curve"/>
      <point x="131" y="556" type="line" name="dv04"/>
      <point x="131" y="726" type="line" name="sv01"/>
      <point x="918" y="726" type="line"/>
      <point x="888" y="823" name="at01"/>
      <point x="781" y="947"/>
      <point x="602" y="947" type="curve" smooth="yes"/>
      <point x="130" y="947" type="line"/>
      <point x="130" y="1117" type="line"/>
      <point x="602" y="1117" type="line" smooth="yes" name="dv01"/>
      <point x="784" y="1117"/>
      <point x="947" y="1026"/>
      <point x="1035" y="880" type="curve" smooth="yes"/>
      <point x="1080" y="807"/>
      <point x="1102" y="728"/>
      <point x="1102" y="643" type="curve" smooth="yes"/>
      <point x="1102" y="472"/>
      <point x="1011" y="318"/>
      <point x="853" y="229" type="curve" smooth="yes"/>
      <point x="776" y="186"/>
      <point x="693" y="165"/>
      <point x="602" y="165" type="curve" smooth="yes"/>
      <point x="130" y="165" type="line"/>
    </contour>
  </outline>
</glyph>
<glyph name="intersection" format="1">
  <advance width="1233"/>
  <unicode hex="2229"/>
  <outline>
    <contour>
      <point x="164" y="580" type="line" smooth="yes" name="sh01"/>
      <point x="164" y="740"/>
      <point x="172" y="839"/>
      <point x="189" y="908" type="curve" smooth="yes" name="dv02"/>
      <point x="222" y="1045"/>
      <point x="305" y="1117"/>
      <point x="426" y="1157" type="curve" smooth="yes"/>
      <point x="484" y="1176" name="sh02"/>
      <point x="547" y="1186" name="ah02"/>
      <point x="615" y="1186" type="curve" smooth="yes"/>
      <point x="760" y="1186" name="sh03"/>
      <point x="882" y="1142"/>
      <point x="958" y="1069" type="curve" smooth="yes" name="dv01"/>
      <point x="995" y="1033"/>
      <point x="1025" y="985" name="sh05"/>
      <point x="1044" y="910" type="curve" name="sh04"/>
      <point x="1057" y="851" name="ab01"/>
      <point x="1068" y="764"/>
      <point x="1068" y="580" type="curve" smooth="yes" name="ah01"/>
      <point x="1068" y="0" type="line" name="sh06"/>
      <point x="896" y="0" type="line"/>
      <point x="896" y="674" type="line" smooth="yes"/>
      <point x="896" y="708"/>
      <point x="893" y="784"/>
      <point x="885" y="832" type="curve" smooth="yes"/>
      <point x="878" y="868"/>
      <point x="870" y="891"/>
      <point x="866" y="902" type="curve"/>
      <point x="834" y="974"/>
      <point x="723" y="1022"/>
      <point x="615" y="1022" type="curve" smooth="yes"/>
      <point x="512" y="1022"/>
      <point x="405" y="979"/>
      <point x="367" y="903" type="curve" smooth="yes"/>
      <point x="356" y="880"/>
      <point x="352" y="859"/>
      <point x="349" y="832" type="curve" smooth="yes"/>
      <point x="341" y="775"/>
      <point x="337" y="696"/>
      <point x="337" y="672" type="curve" smooth="yes"/>
      <point x="337" y="0" type="line"/>
      <point x="164" y="0" type="line"/>
    </contour>
  </outline>
</glyph>
<glyph name="uni223D" format="1">
  <advance width="1233"/>
  <unicode hex="223D"/>
  <outline>
    <contour>
      <point x="381" y="497" type="curve" smooth="yes" name="dv01"/>
      <point x="281" y="497"/>
      <point x="188" y="531"/>
      <point x="88" y="611" type="curve" name="dv02"/>
      <point x="88" y="786" type="line"/>
      <point x="188" y="702"/>
      <point x="276" y="663" name="dv04"/>
      <point x="368" y="663" type="curve" smooth="yes" name="hr01"/>
      <point x="431" y="663"/>
      <point x="501" y="681" name="dv03"/>
      <point x="578" y="717" type="curve" smooth="yes" name="hr02"/>
      <point x="610" y="732" type="line" smooth="yes"/>
      <point x="701" y="775"/>
      <point x="776" y="786"/>
      <point x="840" y="786" type="curve" smooth="yes" name="hr03"/>
      <point x="948" y="786"/>
      <point x="1041" y="751"/>
      <point x="1145" y="671" type="curve"/>
      <point x="1145" y="497" type="line"/>
      <point x="1044" y="585"/>
      <point x="956" y="620"/>
      <point x="848" y="620" type="curve" smooth="yes" name="hr04"/>
      <point x="765" y="620"/>
      <point x="711" y="599"/>
      <point x="621" y="562" type="curve" name="hr05"/>
      <point x="591" y="548"/>
      <point x="604" y="556"/>
      <point x="588" y="548" type="curve"/>
      <point x="516" y="517"/>
      <point x="457" y="497"/>
    </contour>
  </outline>
</glyph>
